%TF.GenerationSoftware,KiCad,Pcbnew,6.0.11-2627ca5db0~126~ubuntu20.04.1*%
%TF.CreationDate,2023-11-27T13:15:08+01:00*%
%TF.ProjectId,ironReflow,69726f6e-5265-4666-9c6f-772e6b696361,1.0*%
%TF.SameCoordinates,Original*%
%TF.FileFunction,Soldermask,Bot*%
%TF.FilePolarity,Negative*%
%FSLAX46Y46*%
G04 Gerber Fmt 4.6, Leading zero omitted, Abs format (unit mm)*
G04 Created by KiCad (PCBNEW 6.0.11-2627ca5db0~126~ubuntu20.04.1) date 2023-11-27 13:15:08*
%MOMM*%
%LPD*%
G01*
G04 APERTURE LIST*
G04 Aperture macros list*
%AMRoundRect*
0 Rectangle with rounded corners*
0 $1 Rounding radius*
0 $2 $3 $4 $5 $6 $7 $8 $9 X,Y pos of 4 corners*
0 Add a 4 corners polygon primitive as box body*
4,1,4,$2,$3,$4,$5,$6,$7,$8,$9,$2,$3,0*
0 Add four circle primitives for the rounded corners*
1,1,$1+$1,$2,$3*
1,1,$1+$1,$4,$5*
1,1,$1+$1,$6,$7*
1,1,$1+$1,$8,$9*
0 Add four rect primitives between the rounded corners*
20,1,$1+$1,$2,$3,$4,$5,0*
20,1,$1+$1,$4,$5,$6,$7,0*
20,1,$1+$1,$6,$7,$8,$9,0*
20,1,$1+$1,$8,$9,$2,$3,0*%
G04 Aperture macros list end*
%ADD10O,3.048000X1.850000*%
%ADD11R,2.600000X2.600000*%
%ADD12C,2.600000*%
%ADD13C,2.500000*%
%ADD14R,2.500000X2.500000*%
%ADD15R,1.700000X1.700000*%
%ADD16O,1.700000X1.700000*%
%ADD17C,7.400000*%
%ADD18C,4.100000*%
%ADD19O,1.600000X1.600000*%
%ADD20C,1.600000*%
%ADD21O,1.600000X2.000000*%
%ADD22R,3.500000X3.500000*%
%ADD23RoundRect,0.750000X-1.000000X0.750000X-1.000000X-0.750000X1.000000X-0.750000X1.000000X0.750000X0*%
%ADD24RoundRect,0.875000X-0.875000X0.875000X-0.875000X-0.875000X0.875000X-0.875000X0.875000X0.875000X0*%
%ADD25O,1.501140X2.199640*%
%ADD26O,2.199640X1.501140*%
%ADD27O,3.240000X2.720000*%
%ADD28R,1.800000X1.800000*%
%ADD29C,1.800000*%
%ADD30R,2.000000X2.000000*%
%ADD31C,2.000000*%
G04 APERTURE END LIST*
D10*
%TO.C,SW1*%
X145652000Y-155154000D03*
X158152000Y-155154000D03*
X158152000Y-150154000D03*
X145652000Y-150154000D03*
%TD*%
D11*
%TO.C,J1*%
X130516000Y-106164000D03*
D12*
X125516000Y-106164000D03*
%TD*%
D13*
%TO.C,J7*%
X114126000Y-155956000D03*
X119126000Y-155956000D03*
D14*
X124126000Y-155956000D03*
%TD*%
D15*
%TO.C,J6*%
X138102000Y-139302000D03*
D16*
X138102000Y-136762000D03*
X138102000Y-134222000D03*
%TD*%
D15*
%TO.C,J5*%
X132354000Y-124329000D03*
D16*
X132354000Y-121789000D03*
X132354000Y-119249000D03*
X132354000Y-116709000D03*
X132354000Y-114169000D03*
%TD*%
D12*
%TO.C,J4*%
X113364000Y-106172000D03*
D11*
X118364000Y-106172000D03*
%TD*%
D15*
%TO.C,J3*%
X142753000Y-119888000D03*
D16*
X140213000Y-119888000D03*
%TD*%
D17*
%TO.C,H4*%
X104902000Y-155194000D03*
D18*
X104902000Y-155194000D03*
%TD*%
%TO.C,H3*%
X185420000Y-155448000D03*
D17*
X185420000Y-155448000D03*
%TD*%
%TO.C,H2*%
X185166000Y-104648000D03*
D18*
X185166000Y-104648000D03*
%TD*%
D17*
%TO.C,H1*%
X104902000Y-105410000D03*
D18*
X104902000Y-105410000D03*
%TD*%
D19*
%TO.C,R1*%
X156972000Y-135382000D03*
D20*
X156972000Y-143002000D03*
%TD*%
%TO.C,C1*%
X147320000Y-136164000D03*
X147320000Y-138664000D03*
%TD*%
D21*
%TO.C,Oled 128x64 I2C*%
X178198000Y-123432000D03*
X175658000Y-123432000D03*
X173118000Y-123432000D03*
X170578000Y-123432000D03*
%TD*%
D22*
%TO.C,J2*%
X141165500Y-114204000D03*
D23*
X141165500Y-108204000D03*
D24*
X136465500Y-111204000D03*
%TD*%
D25*
%TO.C,Arduino ProMini*%
X176530000Y-102616000D03*
X173990000Y-102616000D03*
X171450000Y-102616000D03*
X168910000Y-102616000D03*
X166370000Y-102616000D03*
X163830000Y-102616000D03*
X161290000Y-102616000D03*
X158750000Y-102616000D03*
X156210000Y-102616000D03*
X153670000Y-102616000D03*
X151130000Y-102616000D03*
X148590000Y-102616000D03*
X148590000Y-117856000D03*
X151130000Y-117856000D03*
X153670000Y-117856000D03*
X156210000Y-117856000D03*
X158750000Y-117856000D03*
X161290000Y-117856000D03*
X163830000Y-117856000D03*
X166370000Y-117856000D03*
X168910000Y-117856000D03*
X171450000Y-117856000D03*
X173990000Y-117856000D03*
X176530000Y-117856000D03*
X165100000Y-115316000D03*
X167640000Y-115316000D03*
D26*
X148590000Y-115316000D03*
D25*
X154940000Y-115316000D03*
X157480000Y-115316000D03*
D26*
X148590000Y-112776000D03*
X148590000Y-110236000D03*
%TD*%
D27*
%TO.C,Pot1*%
X137157000Y-147854000D03*
X137157000Y-157454000D03*
D28*
X129657000Y-150154000D03*
D29*
X129657000Y-152654000D03*
X129657000Y-155154000D03*
%TD*%
D30*
%TO.C,U1*%
X154950000Y-125050000D03*
D31*
X152410000Y-125050000D03*
X149870000Y-125050000D03*
%TD*%
M02*
