%TF.GenerationSoftware,KiCad,Pcbnew,6.0.11-2627ca5db0~126~ubuntu20.04.1*%
%TF.CreationDate,2023-11-27T13:14:47+01:00*%
%TF.ProjectId,ironReflow,69726f6e-5265-4666-9c6f-772e6b696361,1.0*%
%TF.SameCoordinates,Original*%
%TF.FileFunction,Drillmap*%
%TF.FilePolarity,Positive*%
%FSLAX45Y45*%
G04 Gerber Fmt 4.5, Leading zero omitted, Abs format (unit mm)*
G04 Created by KiCad (PCBNEW 6.0.11-2627ca5db0~126~ubuntu20.04.1) date 2023-11-27 13:14:47*
%MOMM*%
%LPD*%
G01*
G04 APERTURE LIST*
%ADD10C,0.100000*%
%ADD11C,0.200000*%
%ADD12C,0.040000*%
%ADD13C,0.080000*%
%ADD14C,0.080010*%
%ADD15C,0.110000*%
%ADD16C,0.130000*%
%ADD17C,0.370000*%
G04 APERTURE END LIST*
D10*
X10000000Y-10000000D02*
X19000000Y-10000000D01*
X19000000Y-10000000D02*
X19000000Y-16000000D01*
X19000000Y-16000000D02*
X10000000Y-16000000D01*
X10000000Y-16000000D02*
X10000000Y-10000000D01*
D11*
D12*
X15226710Y-10632530D02*
X15266710Y-10672530D01*
X15266710Y-10632530D02*
X15226710Y-10672530D01*
D13*
X14772000Y-13616400D02*
G75*
G03*
X14772000Y-13616400I-40000J0D01*
G01*
X14772000Y-13866400D02*
G75*
G03*
X14772000Y-13866400I-40000J0D01*
G01*
X15737200Y-13538200D02*
G75*
G03*
X15737200Y-13538200I-40000J0D01*
G01*
X15737200Y-14300200D02*
G75*
G03*
X15737200Y-14300200I-40000J0D01*
G01*
D14*
X14859000Y-10221595D02*
X14859000Y-10301605D01*
X14818995Y-10261600D02*
X14899005Y-10261600D01*
X14859000Y-10983595D02*
X14859000Y-11063605D01*
X14818995Y-11023600D02*
X14899005Y-11023600D01*
X14859000Y-11237595D02*
X14859000Y-11317605D01*
X14818995Y-11277600D02*
X14899005Y-11277600D01*
X14859000Y-11491595D02*
X14859000Y-11571605D01*
X14818995Y-11531600D02*
X14899005Y-11531600D01*
X14859000Y-11745595D02*
X14859000Y-11825605D01*
X14818995Y-11785600D02*
X14899005Y-11785600D01*
X15113000Y-10221595D02*
X15113000Y-10301605D01*
X15072995Y-10261600D02*
X15153005Y-10261600D01*
X15113000Y-11745595D02*
X15113000Y-11825605D01*
X15072995Y-11785600D02*
X15153005Y-11785600D01*
X15367000Y-10221595D02*
X15367000Y-10301605D01*
X15326995Y-10261600D02*
X15407005Y-10261600D01*
X15367000Y-11745595D02*
X15367000Y-11825605D01*
X15326995Y-11785600D02*
X15407005Y-11785600D01*
X15494000Y-11491595D02*
X15494000Y-11571605D01*
X15453995Y-11531600D02*
X15534005Y-11531600D01*
X15621000Y-10221595D02*
X15621000Y-10301605D01*
X15580995Y-10261600D02*
X15661005Y-10261600D01*
X15621000Y-11745595D02*
X15621000Y-11825605D01*
X15580995Y-11785600D02*
X15661005Y-11785600D01*
X15748000Y-11491595D02*
X15748000Y-11571605D01*
X15707995Y-11531600D02*
X15788005Y-11531600D01*
X15875000Y-10221595D02*
X15875000Y-10301605D01*
X15834995Y-10261600D02*
X15915005Y-10261600D01*
X15875000Y-11745595D02*
X15875000Y-11825605D01*
X15834995Y-11785600D02*
X15915005Y-11785600D01*
X16129000Y-10221595D02*
X16129000Y-10301605D01*
X16088995Y-10261600D02*
X16169005Y-10261600D01*
X16129000Y-11745595D02*
X16129000Y-11825605D01*
X16088995Y-11785600D02*
X16169005Y-11785600D01*
X16383000Y-10221595D02*
X16383000Y-10301605D01*
X16342995Y-10261600D02*
X16423005Y-10261600D01*
X16383000Y-11745595D02*
X16383000Y-11825605D01*
X16342995Y-11785600D02*
X16423005Y-11785600D01*
X16510000Y-11491595D02*
X16510000Y-11571605D01*
X16469995Y-11531600D02*
X16550005Y-11531600D01*
X16637000Y-10221595D02*
X16637000Y-10301605D01*
X16596995Y-10261600D02*
X16677005Y-10261600D01*
X16637000Y-11745595D02*
X16637000Y-11825605D01*
X16596995Y-11785600D02*
X16677005Y-11785600D01*
X16764000Y-11491595D02*
X16764000Y-11571605D01*
X16723995Y-11531600D02*
X16804005Y-11531600D01*
X16891000Y-10221595D02*
X16891000Y-10301605D01*
X16850995Y-10261600D02*
X16931005Y-10261600D01*
X16891000Y-11745595D02*
X16891000Y-11825605D01*
X16850995Y-11785600D02*
X16931005Y-11785600D01*
X17145000Y-10221595D02*
X17145000Y-10301605D01*
X17104995Y-10261600D02*
X17185005Y-10261600D01*
X17145000Y-11745595D02*
X17145000Y-11825605D01*
X17104995Y-11785600D02*
X17185005Y-11785600D01*
X17399000Y-10221595D02*
X17399000Y-10301605D01*
X17358995Y-10261600D02*
X17439005Y-10261600D01*
X17399000Y-11745595D02*
X17399000Y-11825605D01*
X17358995Y-11785600D02*
X17439005Y-11785600D01*
X17653000Y-10221595D02*
X17653000Y-10301605D01*
X17612995Y-10261600D02*
X17693005Y-10261600D01*
X17653000Y-11745595D02*
X17653000Y-11825605D01*
X17612995Y-11785600D02*
X17693005Y-11785600D01*
D10*
X13001056Y-15050756D02*
X13001056Y-14980044D01*
X12930344Y-14980044D01*
X12930344Y-15050756D01*
X13001056Y-15050756D01*
X13001056Y-15300756D02*
X13001056Y-15230044D01*
X12930344Y-15230044D01*
X12930344Y-15300756D01*
X13001056Y-15300756D01*
X13001056Y-15550756D02*
X13001056Y-15480044D01*
X12930344Y-15480044D01*
X12930344Y-15550756D01*
X13001056Y-15550756D01*
X13270756Y-11452256D02*
X13270756Y-11381544D01*
X13200044Y-11381544D01*
X13200044Y-11452256D01*
X13270756Y-11452256D01*
X13270756Y-11706256D02*
X13270756Y-11635544D01*
X13200044Y-11635544D01*
X13200044Y-11706256D01*
X13270756Y-11706256D01*
X13270756Y-11960256D02*
X13270756Y-11889544D01*
X13200044Y-11889544D01*
X13200044Y-11960256D01*
X13270756Y-11960256D01*
X13270756Y-12214256D02*
X13270756Y-12143544D01*
X13200044Y-12143544D01*
X13200044Y-12214256D01*
X13270756Y-12214256D01*
X13270756Y-12468256D02*
X13270756Y-12397544D01*
X13200044Y-12397544D01*
X13200044Y-12468256D01*
X13270756Y-12468256D01*
X13681906Y-11155756D02*
X13681906Y-11085044D01*
X13611194Y-11085044D01*
X13611194Y-11155756D01*
X13681906Y-11155756D01*
D11*
X13596550Y-11020400D02*
X13596550Y-11220400D01*
X13696550Y-11020400D02*
X13696550Y-11220400D01*
X13596550Y-11220400D02*
G75*
G03*
X13696550Y-11220400I50000J0D01*
G01*
X13696550Y-11020400D02*
G75*
G03*
X13596550Y-11020400I-50000J0D01*
G01*
D10*
X13845556Y-13457556D02*
X13845556Y-13386844D01*
X13774844Y-13386844D01*
X13774844Y-13457556D01*
X13845556Y-13457556D01*
X13845556Y-13711556D02*
X13845556Y-13640844D01*
X13774844Y-13640844D01*
X13774844Y-13711556D01*
X13845556Y-13711556D01*
X13845556Y-13965556D02*
X13845556Y-13894844D01*
X13774844Y-13894844D01*
X13774844Y-13965556D01*
X13845556Y-13965556D01*
X14056656Y-12024156D02*
X14056656Y-11953444D01*
X13985944Y-11953444D01*
X13985944Y-12024156D01*
X14056656Y-12024156D01*
X14151906Y-10855756D02*
X14151906Y-10785044D01*
X14081194Y-10785044D01*
X14081194Y-10855756D01*
X14151906Y-10855756D01*
D11*
X14216550Y-10770400D02*
X14016550Y-10770400D01*
X14216550Y-10870400D02*
X14016550Y-10870400D01*
X14016550Y-10770400D02*
G75*
G03*
X14016550Y-10870400I0J-50000D01*
G01*
X14216550Y-10870400D02*
G75*
G03*
X14216550Y-10770400I0J50000D01*
G01*
D10*
X14151906Y-11455756D02*
X14151906Y-11385044D01*
X14081194Y-11385044D01*
X14081194Y-11455756D01*
X14151906Y-11455756D01*
D11*
X14216550Y-11370400D02*
X14016550Y-11370400D01*
X14216550Y-11470400D02*
X14016550Y-11470400D01*
X14016550Y-11370400D02*
G75*
G03*
X14016550Y-11470400I0J-50000D01*
G01*
X14216550Y-11470400D02*
G75*
G03*
X14216550Y-11370400I0J50000D01*
G01*
D10*
X14310656Y-12024156D02*
X14310656Y-11953444D01*
X14239944Y-11953444D01*
X14239944Y-12024156D01*
X14310656Y-12024156D01*
X15022356Y-12540356D02*
X15022356Y-12469644D01*
X14951644Y-12469644D01*
X14951644Y-12540356D01*
X15022356Y-12540356D01*
X15276356Y-12540356D02*
X15276356Y-12469644D01*
X15205644Y-12469644D01*
X15205644Y-12540356D01*
X15276356Y-12540356D01*
X15530356Y-12540356D02*
X15530356Y-12469644D01*
X15459644Y-12469644D01*
X15459644Y-12540356D01*
X15530356Y-12540356D01*
X17093156Y-12378556D02*
X17093156Y-12307844D01*
X17022444Y-12307844D01*
X17022444Y-12378556D01*
X17093156Y-12378556D01*
X17347156Y-12378556D02*
X17347156Y-12307844D01*
X17276444Y-12307844D01*
X17276444Y-12378556D01*
X17347156Y-12378556D01*
X17601156Y-12378556D02*
X17601156Y-12307844D01*
X17530444Y-12307844D01*
X17530444Y-12378556D01*
X17601156Y-12378556D01*
X17855156Y-12378556D02*
X17855156Y-12307844D01*
X17784444Y-12307844D01*
X17784444Y-12378556D01*
X17855156Y-12378556D01*
D15*
X13715700Y-14840400D02*
X13770700Y-14785400D01*
X13715700Y-14730400D01*
X13660700Y-14785400D01*
X13715700Y-14840400D01*
D11*
X13680700Y-14840400D02*
X13750700Y-14840400D01*
X13680700Y-14730400D02*
X13750700Y-14730400D01*
X13750700Y-14840400D02*
G75*
G03*
X13750700Y-14730400I0J55000D01*
G01*
X13680700Y-14730400D02*
G75*
G03*
X13680700Y-14840400I0J-55000D01*
G01*
D15*
X13715700Y-15800400D02*
X13770700Y-15745400D01*
X13715700Y-15690400D01*
X13660700Y-15745400D01*
X13715700Y-15800400D01*
D11*
X13680700Y-15800400D02*
X13750700Y-15800400D01*
X13680700Y-15690400D02*
X13750700Y-15690400D01*
X13750700Y-15800400D02*
G75*
G03*
X13750700Y-15690400I0J55000D01*
G01*
X13680700Y-15690400D02*
G75*
G03*
X13680700Y-15800400I0J-55000D01*
G01*
D16*
X11271400Y-10552200D02*
X11401400Y-10682200D01*
X11401400Y-10552200D02*
X11271400Y-10682200D01*
X11401400Y-10617200D02*
G75*
G03*
X11401400Y-10617200I-65000J0D01*
G01*
X11347600Y-15530600D02*
X11477600Y-15660600D01*
X11477600Y-15530600D02*
X11347600Y-15660600D01*
X11477600Y-15595600D02*
G75*
G03*
X11477600Y-15595600I-65000J0D01*
G01*
X11771400Y-10552200D02*
X11901400Y-10682200D01*
X11901400Y-10552200D02*
X11771400Y-10682200D01*
X11901400Y-10617200D02*
G75*
G03*
X11901400Y-10617200I-65000J0D01*
G01*
X11847600Y-15530600D02*
X11977600Y-15660600D01*
X11977600Y-15530600D02*
X11847600Y-15660600D01*
X11977600Y-15595600D02*
G75*
G03*
X11977600Y-15595600I-65000J0D01*
G01*
X12347600Y-15530600D02*
X12477600Y-15660600D01*
X12477600Y-15530600D02*
X12347600Y-15660600D01*
X12477600Y-15595600D02*
G75*
G03*
X12477600Y-15595600I-65000J0D01*
G01*
X12486600Y-10551400D02*
X12616600Y-10681400D01*
X12616600Y-10551400D02*
X12486600Y-10681400D01*
X12616600Y-10616400D02*
G75*
G03*
X12616600Y-10616400I-65000J0D01*
G01*
X12986600Y-10551400D02*
X13116600Y-10681400D01*
X13116600Y-10551400D02*
X12986600Y-10681400D01*
X13116600Y-10616400D02*
G75*
G03*
X13116600Y-10616400I-65000J0D01*
G01*
X14500200Y-14950400D02*
X14630200Y-15080400D01*
X14630200Y-14950400D02*
X14500200Y-15080400D01*
X14630200Y-15015400D02*
G75*
G03*
X14630200Y-15015400I-65000J0D01*
G01*
X14500200Y-15450400D02*
X14630200Y-15580400D01*
X14630200Y-15450400D02*
X14500200Y-15580400D01*
X14630200Y-15515400D02*
G75*
G03*
X14630200Y-15515400I-65000J0D01*
G01*
X15750200Y-14950400D02*
X15880200Y-15080400D01*
X15880200Y-14950400D02*
X15750200Y-15080400D01*
X15880200Y-15015400D02*
G75*
G03*
X15880200Y-15015400I-65000J0D01*
G01*
X15750200Y-15450400D02*
X15880200Y-15580400D01*
X15880200Y-15450400D02*
X15750200Y-15580400D01*
X15880200Y-15515400D02*
G75*
G03*
X15880200Y-15515400I-65000J0D01*
G01*
D17*
X10305200Y-10356000D02*
X10675200Y-10726000D01*
X10675200Y-10356000D02*
X10305200Y-10726000D01*
X10490200Y-10356000D02*
X10490200Y-10726000D01*
X10305200Y-10541000D02*
X10675200Y-10541000D01*
X10305200Y-15334400D02*
X10675200Y-15704400D01*
X10675200Y-15334400D02*
X10305200Y-15704400D01*
X10490200Y-15334400D02*
X10490200Y-15704400D01*
X10305200Y-15519400D02*
X10675200Y-15519400D01*
X18331600Y-10279800D02*
X18701600Y-10649800D01*
X18701600Y-10279800D02*
X18331600Y-10649800D01*
X18516600Y-10279800D02*
X18516600Y-10649800D01*
X18331600Y-10464800D02*
X18701600Y-10464800D01*
X18357000Y-15359800D02*
X18727000Y-15729800D01*
X18727000Y-15359800D02*
X18357000Y-15729800D01*
X18542000Y-15359800D02*
X18542000Y-15729800D01*
X18357000Y-15544800D02*
X18727000Y-15544800D01*
D11*
X10252619Y-16315476D02*
X10252619Y-16115476D01*
X10300238Y-16115476D01*
X10328810Y-16125000D01*
X10347857Y-16144048D01*
X10357381Y-16163095D01*
X10366905Y-16201190D01*
X10366905Y-16229762D01*
X10357381Y-16267857D01*
X10347857Y-16286905D01*
X10328810Y-16305952D01*
X10300238Y-16315476D01*
X10252619Y-16315476D01*
X10452619Y-16315476D02*
X10452619Y-16182143D01*
X10452619Y-16220238D02*
X10462143Y-16201190D01*
X10471667Y-16191667D01*
X10490714Y-16182143D01*
X10509762Y-16182143D01*
X10576429Y-16315476D02*
X10576429Y-16182143D01*
X10576429Y-16115476D02*
X10566905Y-16125000D01*
X10576429Y-16134524D01*
X10585952Y-16125000D01*
X10576429Y-16115476D01*
X10576429Y-16134524D01*
X10700238Y-16315476D02*
X10681190Y-16305952D01*
X10671667Y-16286905D01*
X10671667Y-16115476D01*
X10805000Y-16315476D02*
X10785952Y-16305952D01*
X10776429Y-16286905D01*
X10776429Y-16115476D01*
X11033571Y-16315476D02*
X11033571Y-16115476D01*
X11100238Y-16258333D01*
X11166905Y-16115476D01*
X11166905Y-16315476D01*
X11347857Y-16315476D02*
X11347857Y-16210714D01*
X11338333Y-16191667D01*
X11319286Y-16182143D01*
X11281190Y-16182143D01*
X11262143Y-16191667D01*
X11347857Y-16305952D02*
X11328809Y-16315476D01*
X11281190Y-16315476D01*
X11262143Y-16305952D01*
X11252619Y-16286905D01*
X11252619Y-16267857D01*
X11262143Y-16248809D01*
X11281190Y-16239286D01*
X11328809Y-16239286D01*
X11347857Y-16229762D01*
X11443095Y-16182143D02*
X11443095Y-16382143D01*
X11443095Y-16191667D02*
X11462143Y-16182143D01*
X11500238Y-16182143D01*
X11519286Y-16191667D01*
X11528809Y-16201190D01*
X11538333Y-16220238D01*
X11538333Y-16277381D01*
X11528809Y-16296428D01*
X11519286Y-16305952D01*
X11500238Y-16315476D01*
X11462143Y-16315476D01*
X11443095Y-16305952D01*
X11624048Y-16296428D02*
X11633571Y-16305952D01*
X11624048Y-16315476D01*
X11614524Y-16305952D01*
X11624048Y-16296428D01*
X11624048Y-16315476D01*
X11624048Y-16191667D02*
X11633571Y-16201190D01*
X11624048Y-16210714D01*
X11614524Y-16201190D01*
X11624048Y-16191667D01*
X11624048Y-16210714D01*
D12*
X9955000Y-16625000D02*
X9995000Y-16665000D01*
X9995000Y-16625000D02*
X9955000Y-16665000D01*
D11*
X10290714Y-16535476D02*
X10309762Y-16535476D01*
X10328810Y-16545000D01*
X10338333Y-16554524D01*
X10347857Y-16573571D01*
X10357381Y-16611667D01*
X10357381Y-16659286D01*
X10347857Y-16697381D01*
X10338333Y-16716428D01*
X10328810Y-16725952D01*
X10309762Y-16735476D01*
X10290714Y-16735476D01*
X10271667Y-16725952D01*
X10262143Y-16716428D01*
X10252619Y-16697381D01*
X10243095Y-16659286D01*
X10243095Y-16611667D01*
X10252619Y-16573571D01*
X10262143Y-16554524D01*
X10271667Y-16545000D01*
X10290714Y-16535476D01*
X10443095Y-16716428D02*
X10452619Y-16725952D01*
X10443095Y-16735476D01*
X10433571Y-16725952D01*
X10443095Y-16716428D01*
X10443095Y-16735476D01*
X10624048Y-16602143D02*
X10624048Y-16735476D01*
X10576429Y-16525952D02*
X10528810Y-16668809D01*
X10652619Y-16668809D01*
X10766905Y-16535476D02*
X10785952Y-16535476D01*
X10805000Y-16545000D01*
X10814524Y-16554524D01*
X10824048Y-16573571D01*
X10833571Y-16611667D01*
X10833571Y-16659286D01*
X10824048Y-16697381D01*
X10814524Y-16716428D01*
X10805000Y-16725952D01*
X10785952Y-16735476D01*
X10766905Y-16735476D01*
X10747857Y-16725952D01*
X10738333Y-16716428D01*
X10728810Y-16697381D01*
X10719286Y-16659286D01*
X10719286Y-16611667D01*
X10728810Y-16573571D01*
X10738333Y-16554524D01*
X10747857Y-16545000D01*
X10766905Y-16535476D01*
X10957381Y-16535476D02*
X10976429Y-16535476D01*
X10995476Y-16545000D01*
X11005000Y-16554524D01*
X11014524Y-16573571D01*
X11024048Y-16611667D01*
X11024048Y-16659286D01*
X11014524Y-16697381D01*
X11005000Y-16716428D01*
X10995476Y-16725952D01*
X10976429Y-16735476D01*
X10957381Y-16735476D01*
X10938333Y-16725952D01*
X10928810Y-16716428D01*
X10919286Y-16697381D01*
X10909762Y-16659286D01*
X10909762Y-16611667D01*
X10919286Y-16573571D01*
X10928810Y-16554524D01*
X10938333Y-16545000D01*
X10957381Y-16535476D01*
X11109762Y-16735476D02*
X11109762Y-16602143D01*
X11109762Y-16621190D02*
X11119286Y-16611667D01*
X11138333Y-16602143D01*
X11166905Y-16602143D01*
X11185952Y-16611667D01*
X11195476Y-16630714D01*
X11195476Y-16735476D01*
X11195476Y-16630714D02*
X11205000Y-16611667D01*
X11224048Y-16602143D01*
X11252619Y-16602143D01*
X11271667Y-16611667D01*
X11281190Y-16630714D01*
X11281190Y-16735476D01*
X11376428Y-16735476D02*
X11376428Y-16602143D01*
X11376428Y-16621190D02*
X11385952Y-16611667D01*
X11405000Y-16602143D01*
X11433571Y-16602143D01*
X11452619Y-16611667D01*
X11462143Y-16630714D01*
X11462143Y-16735476D01*
X11462143Y-16630714D02*
X11471667Y-16611667D01*
X11490714Y-16602143D01*
X11519286Y-16602143D01*
X11538333Y-16611667D01*
X11547857Y-16630714D01*
X11547857Y-16735476D01*
X11938333Y-16525952D02*
X11766905Y-16783095D01*
X12195476Y-16535476D02*
X12214524Y-16535476D01*
X12233571Y-16545000D01*
X12243095Y-16554524D01*
X12252619Y-16573571D01*
X12262143Y-16611667D01*
X12262143Y-16659286D01*
X12252619Y-16697381D01*
X12243095Y-16716428D01*
X12233571Y-16725952D01*
X12214524Y-16735476D01*
X12195476Y-16735476D01*
X12176428Y-16725952D01*
X12166905Y-16716428D01*
X12157381Y-16697381D01*
X12147857Y-16659286D01*
X12147857Y-16611667D01*
X12157381Y-16573571D01*
X12166905Y-16554524D01*
X12176428Y-16545000D01*
X12195476Y-16535476D01*
X12347857Y-16716428D02*
X12357381Y-16725952D01*
X12347857Y-16735476D01*
X12338333Y-16725952D01*
X12347857Y-16716428D01*
X12347857Y-16735476D01*
X12481190Y-16535476D02*
X12500238Y-16535476D01*
X12519286Y-16545000D01*
X12528809Y-16554524D01*
X12538333Y-16573571D01*
X12547857Y-16611667D01*
X12547857Y-16659286D01*
X12538333Y-16697381D01*
X12528809Y-16716428D01*
X12519286Y-16725952D01*
X12500238Y-16735476D01*
X12481190Y-16735476D01*
X12462143Y-16725952D01*
X12452619Y-16716428D01*
X12443095Y-16697381D01*
X12433571Y-16659286D01*
X12433571Y-16611667D01*
X12443095Y-16573571D01*
X12452619Y-16554524D01*
X12462143Y-16545000D01*
X12481190Y-16535476D01*
X12738333Y-16735476D02*
X12624048Y-16735476D01*
X12681190Y-16735476D02*
X12681190Y-16535476D01*
X12662143Y-16564048D01*
X12643095Y-16583095D01*
X12624048Y-16592619D01*
X12919286Y-16535476D02*
X12824048Y-16535476D01*
X12814524Y-16630714D01*
X12824048Y-16621190D01*
X12843095Y-16611667D01*
X12890714Y-16611667D01*
X12909762Y-16621190D01*
X12919286Y-16630714D01*
X12928809Y-16649762D01*
X12928809Y-16697381D01*
X12919286Y-16716428D01*
X12909762Y-16725952D01*
X12890714Y-16735476D01*
X12843095Y-16735476D01*
X12824048Y-16725952D01*
X12814524Y-16716428D01*
X12995476Y-16535476D02*
X13128809Y-16535476D01*
X13043095Y-16735476D01*
X13195476Y-16535476D02*
X13195476Y-16573571D01*
X13271667Y-16535476D02*
X13271667Y-16573571D01*
X13566905Y-16811667D02*
X13557381Y-16802143D01*
X13538333Y-16773571D01*
X13528809Y-16754524D01*
X13519286Y-16725952D01*
X13509762Y-16678333D01*
X13509762Y-16640238D01*
X13519286Y-16592619D01*
X13528809Y-16564048D01*
X13538333Y-16545000D01*
X13557381Y-16516428D01*
X13566905Y-16506905D01*
X13747857Y-16735476D02*
X13633571Y-16735476D01*
X13690714Y-16735476D02*
X13690714Y-16535476D01*
X13671667Y-16564048D01*
X13652619Y-16583095D01*
X13633571Y-16592619D01*
X13985952Y-16735476D02*
X13985952Y-16535476D01*
X14071667Y-16735476D02*
X14071667Y-16630714D01*
X14062143Y-16611667D01*
X14043095Y-16602143D01*
X14014524Y-16602143D01*
X13995476Y-16611667D01*
X13985952Y-16621190D01*
X14195476Y-16735476D02*
X14176428Y-16725952D01*
X14166905Y-16716428D01*
X14157381Y-16697381D01*
X14157381Y-16640238D01*
X14166905Y-16621190D01*
X14176428Y-16611667D01*
X14195476Y-16602143D01*
X14224048Y-16602143D01*
X14243095Y-16611667D01*
X14252619Y-16621190D01*
X14262143Y-16640238D01*
X14262143Y-16697381D01*
X14252619Y-16716428D01*
X14243095Y-16725952D01*
X14224048Y-16735476D01*
X14195476Y-16735476D01*
X14376428Y-16735476D02*
X14357381Y-16725952D01*
X14347857Y-16706905D01*
X14347857Y-16535476D01*
X14528809Y-16725952D02*
X14509762Y-16735476D01*
X14471667Y-16735476D01*
X14452619Y-16725952D01*
X14443095Y-16706905D01*
X14443095Y-16630714D01*
X14452619Y-16611667D01*
X14471667Y-16602143D01*
X14509762Y-16602143D01*
X14528809Y-16611667D01*
X14538333Y-16630714D01*
X14538333Y-16649762D01*
X14443095Y-16668809D01*
X14605000Y-16811667D02*
X14614524Y-16802143D01*
X14633571Y-16773571D01*
X14643095Y-16754524D01*
X14652619Y-16725952D01*
X14662143Y-16678333D01*
X14662143Y-16640238D01*
X14652619Y-16592619D01*
X14643095Y-16564048D01*
X14633571Y-16545000D01*
X14614524Y-16516428D01*
X14605000Y-16506905D01*
D13*
X9995000Y-16909000D02*
G75*
G03*
X9995000Y-16909000I-40000J0D01*
G01*
D11*
X10290714Y-16799476D02*
X10309762Y-16799476D01*
X10328810Y-16809000D01*
X10338333Y-16818524D01*
X10347857Y-16837571D01*
X10357381Y-16875667D01*
X10357381Y-16923286D01*
X10347857Y-16961381D01*
X10338333Y-16980429D01*
X10328810Y-16989952D01*
X10309762Y-16999476D01*
X10290714Y-16999476D01*
X10271667Y-16989952D01*
X10262143Y-16980429D01*
X10252619Y-16961381D01*
X10243095Y-16923286D01*
X10243095Y-16875667D01*
X10252619Y-16837571D01*
X10262143Y-16818524D01*
X10271667Y-16809000D01*
X10290714Y-16799476D01*
X10443095Y-16980429D02*
X10452619Y-16989952D01*
X10443095Y-16999476D01*
X10433571Y-16989952D01*
X10443095Y-16980429D01*
X10443095Y-16999476D01*
X10566905Y-16885190D02*
X10547857Y-16875667D01*
X10538333Y-16866143D01*
X10528810Y-16847095D01*
X10528810Y-16837571D01*
X10538333Y-16818524D01*
X10547857Y-16809000D01*
X10566905Y-16799476D01*
X10605000Y-16799476D01*
X10624048Y-16809000D01*
X10633571Y-16818524D01*
X10643095Y-16837571D01*
X10643095Y-16847095D01*
X10633571Y-16866143D01*
X10624048Y-16875667D01*
X10605000Y-16885190D01*
X10566905Y-16885190D01*
X10547857Y-16894714D01*
X10538333Y-16904238D01*
X10528810Y-16923286D01*
X10528810Y-16961381D01*
X10538333Y-16980429D01*
X10547857Y-16989952D01*
X10566905Y-16999476D01*
X10605000Y-16999476D01*
X10624048Y-16989952D01*
X10633571Y-16980429D01*
X10643095Y-16961381D01*
X10643095Y-16923286D01*
X10633571Y-16904238D01*
X10624048Y-16894714D01*
X10605000Y-16885190D01*
X10766905Y-16799476D02*
X10785952Y-16799476D01*
X10805000Y-16809000D01*
X10814524Y-16818524D01*
X10824048Y-16837571D01*
X10833571Y-16875667D01*
X10833571Y-16923286D01*
X10824048Y-16961381D01*
X10814524Y-16980429D01*
X10805000Y-16989952D01*
X10785952Y-16999476D01*
X10766905Y-16999476D01*
X10747857Y-16989952D01*
X10738333Y-16980429D01*
X10728810Y-16961381D01*
X10719286Y-16923286D01*
X10719286Y-16875667D01*
X10728810Y-16837571D01*
X10738333Y-16818524D01*
X10747857Y-16809000D01*
X10766905Y-16799476D01*
X10957381Y-16799476D02*
X10976429Y-16799476D01*
X10995476Y-16809000D01*
X11005000Y-16818524D01*
X11014524Y-16837571D01*
X11024048Y-16875667D01*
X11024048Y-16923286D01*
X11014524Y-16961381D01*
X11005000Y-16980429D01*
X10995476Y-16989952D01*
X10976429Y-16999476D01*
X10957381Y-16999476D01*
X10938333Y-16989952D01*
X10928810Y-16980429D01*
X10919286Y-16961381D01*
X10909762Y-16923286D01*
X10909762Y-16875667D01*
X10919286Y-16837571D01*
X10928810Y-16818524D01*
X10938333Y-16809000D01*
X10957381Y-16799476D01*
X11109762Y-16999476D02*
X11109762Y-16866143D01*
X11109762Y-16885190D02*
X11119286Y-16875667D01*
X11138333Y-16866143D01*
X11166905Y-16866143D01*
X11185952Y-16875667D01*
X11195476Y-16894714D01*
X11195476Y-16999476D01*
X11195476Y-16894714D02*
X11205000Y-16875667D01*
X11224048Y-16866143D01*
X11252619Y-16866143D01*
X11271667Y-16875667D01*
X11281190Y-16894714D01*
X11281190Y-16999476D01*
X11376428Y-16999476D02*
X11376428Y-16866143D01*
X11376428Y-16885190D02*
X11385952Y-16875667D01*
X11405000Y-16866143D01*
X11433571Y-16866143D01*
X11452619Y-16875667D01*
X11462143Y-16894714D01*
X11462143Y-16999476D01*
X11462143Y-16894714D02*
X11471667Y-16875667D01*
X11490714Y-16866143D01*
X11519286Y-16866143D01*
X11538333Y-16875667D01*
X11547857Y-16894714D01*
X11547857Y-16999476D01*
X11938333Y-16789952D02*
X11766905Y-17047095D01*
X12195476Y-16799476D02*
X12214524Y-16799476D01*
X12233571Y-16809000D01*
X12243095Y-16818524D01*
X12252619Y-16837571D01*
X12262143Y-16875667D01*
X12262143Y-16923286D01*
X12252619Y-16961381D01*
X12243095Y-16980429D01*
X12233571Y-16989952D01*
X12214524Y-16999476D01*
X12195476Y-16999476D01*
X12176428Y-16989952D01*
X12166905Y-16980429D01*
X12157381Y-16961381D01*
X12147857Y-16923286D01*
X12147857Y-16875667D01*
X12157381Y-16837571D01*
X12166905Y-16818524D01*
X12176428Y-16809000D01*
X12195476Y-16799476D01*
X12347857Y-16980429D02*
X12357381Y-16989952D01*
X12347857Y-16999476D01*
X12338333Y-16989952D01*
X12347857Y-16980429D01*
X12347857Y-16999476D01*
X12481190Y-16799476D02*
X12500238Y-16799476D01*
X12519286Y-16809000D01*
X12528809Y-16818524D01*
X12538333Y-16837571D01*
X12547857Y-16875667D01*
X12547857Y-16923286D01*
X12538333Y-16961381D01*
X12528809Y-16980429D01*
X12519286Y-16989952D01*
X12500238Y-16999476D01*
X12481190Y-16999476D01*
X12462143Y-16989952D01*
X12452619Y-16980429D01*
X12443095Y-16961381D01*
X12433571Y-16923286D01*
X12433571Y-16875667D01*
X12443095Y-16837571D01*
X12452619Y-16818524D01*
X12462143Y-16809000D01*
X12481190Y-16799476D01*
X12614524Y-16799476D02*
X12738333Y-16799476D01*
X12671667Y-16875667D01*
X12700238Y-16875667D01*
X12719286Y-16885190D01*
X12728809Y-16894714D01*
X12738333Y-16913762D01*
X12738333Y-16961381D01*
X12728809Y-16980429D01*
X12719286Y-16989952D01*
X12700238Y-16999476D01*
X12643095Y-16999476D01*
X12624048Y-16989952D01*
X12614524Y-16980429D01*
X12928809Y-16999476D02*
X12814524Y-16999476D01*
X12871667Y-16999476D02*
X12871667Y-16799476D01*
X12852619Y-16828048D01*
X12833571Y-16847095D01*
X12814524Y-16856619D01*
X13109762Y-16799476D02*
X13014524Y-16799476D01*
X13005000Y-16894714D01*
X13014524Y-16885190D01*
X13033571Y-16875667D01*
X13081190Y-16875667D01*
X13100238Y-16885190D01*
X13109762Y-16894714D01*
X13119286Y-16913762D01*
X13119286Y-16961381D01*
X13109762Y-16980429D01*
X13100238Y-16989952D01*
X13081190Y-16999476D01*
X13033571Y-16999476D01*
X13014524Y-16989952D01*
X13005000Y-16980429D01*
X13195476Y-16799476D02*
X13195476Y-16837571D01*
X13271667Y-16799476D02*
X13271667Y-16837571D01*
X13566905Y-17075667D02*
X13557381Y-17066143D01*
X13538333Y-17037571D01*
X13528809Y-17018524D01*
X13519286Y-16989952D01*
X13509762Y-16942333D01*
X13509762Y-16904238D01*
X13519286Y-16856619D01*
X13528809Y-16828048D01*
X13538333Y-16809000D01*
X13557381Y-16780429D01*
X13566905Y-16770905D01*
X13728809Y-16866143D02*
X13728809Y-16999476D01*
X13681190Y-16789952D02*
X13633571Y-16932810D01*
X13757381Y-16932810D01*
X13985952Y-16999476D02*
X13985952Y-16799476D01*
X14071667Y-16999476D02*
X14071667Y-16894714D01*
X14062143Y-16875667D01*
X14043095Y-16866143D01*
X14014524Y-16866143D01*
X13995476Y-16875667D01*
X13985952Y-16885190D01*
X14195476Y-16999476D02*
X14176428Y-16989952D01*
X14166905Y-16980429D01*
X14157381Y-16961381D01*
X14157381Y-16904238D01*
X14166905Y-16885190D01*
X14176428Y-16875667D01*
X14195476Y-16866143D01*
X14224048Y-16866143D01*
X14243095Y-16875667D01*
X14252619Y-16885190D01*
X14262143Y-16904238D01*
X14262143Y-16961381D01*
X14252619Y-16980429D01*
X14243095Y-16989952D01*
X14224048Y-16999476D01*
X14195476Y-16999476D01*
X14376428Y-16999476D02*
X14357381Y-16989952D01*
X14347857Y-16970905D01*
X14347857Y-16799476D01*
X14528809Y-16989952D02*
X14509762Y-16999476D01*
X14471667Y-16999476D01*
X14452619Y-16989952D01*
X14443095Y-16970905D01*
X14443095Y-16894714D01*
X14452619Y-16875667D01*
X14471667Y-16866143D01*
X14509762Y-16866143D01*
X14528809Y-16875667D01*
X14538333Y-16894714D01*
X14538333Y-16913762D01*
X14443095Y-16932810D01*
X14614524Y-16989952D02*
X14633571Y-16999476D01*
X14671667Y-16999476D01*
X14690714Y-16989952D01*
X14700238Y-16970905D01*
X14700238Y-16961381D01*
X14690714Y-16942333D01*
X14671667Y-16932810D01*
X14643095Y-16932810D01*
X14624048Y-16923286D01*
X14614524Y-16904238D01*
X14614524Y-16894714D01*
X14624048Y-16875667D01*
X14643095Y-16866143D01*
X14671667Y-16866143D01*
X14690714Y-16875667D01*
X14766905Y-17075667D02*
X14776428Y-17066143D01*
X14795476Y-17037571D01*
X14805000Y-17018524D01*
X14814524Y-16989952D01*
X14824048Y-16942333D01*
X14824048Y-16904238D01*
X14814524Y-16856619D01*
X14805000Y-16828048D01*
X14795476Y-16809000D01*
X14776428Y-16780429D01*
X14766905Y-16770905D01*
D14*
X9954995Y-17132995D02*
X9954995Y-17213005D01*
X9914990Y-17173000D02*
X9995000Y-17173000D01*
D11*
X10290714Y-17063476D02*
X10309762Y-17063476D01*
X10328810Y-17073000D01*
X10338333Y-17082524D01*
X10347857Y-17101571D01*
X10357381Y-17139667D01*
X10357381Y-17187286D01*
X10347857Y-17225381D01*
X10338333Y-17244429D01*
X10328810Y-17253952D01*
X10309762Y-17263476D01*
X10290714Y-17263476D01*
X10271667Y-17253952D01*
X10262143Y-17244429D01*
X10252619Y-17225381D01*
X10243095Y-17187286D01*
X10243095Y-17139667D01*
X10252619Y-17101571D01*
X10262143Y-17082524D01*
X10271667Y-17073000D01*
X10290714Y-17063476D01*
X10443095Y-17244429D02*
X10452619Y-17253952D01*
X10443095Y-17263476D01*
X10433571Y-17253952D01*
X10443095Y-17244429D01*
X10443095Y-17263476D01*
X10566905Y-17149190D02*
X10547857Y-17139667D01*
X10538333Y-17130143D01*
X10528810Y-17111095D01*
X10528810Y-17101571D01*
X10538333Y-17082524D01*
X10547857Y-17073000D01*
X10566905Y-17063476D01*
X10605000Y-17063476D01*
X10624048Y-17073000D01*
X10633571Y-17082524D01*
X10643095Y-17101571D01*
X10643095Y-17111095D01*
X10633571Y-17130143D01*
X10624048Y-17139667D01*
X10605000Y-17149190D01*
X10566905Y-17149190D01*
X10547857Y-17158714D01*
X10538333Y-17168238D01*
X10528810Y-17187286D01*
X10528810Y-17225381D01*
X10538333Y-17244429D01*
X10547857Y-17253952D01*
X10566905Y-17263476D01*
X10605000Y-17263476D01*
X10624048Y-17253952D01*
X10633571Y-17244429D01*
X10643095Y-17225381D01*
X10643095Y-17187286D01*
X10633571Y-17168238D01*
X10624048Y-17158714D01*
X10605000Y-17149190D01*
X10766905Y-17063476D02*
X10785952Y-17063476D01*
X10805000Y-17073000D01*
X10814524Y-17082524D01*
X10824048Y-17101571D01*
X10833571Y-17139667D01*
X10833571Y-17187286D01*
X10824048Y-17225381D01*
X10814524Y-17244429D01*
X10805000Y-17253952D01*
X10785952Y-17263476D01*
X10766905Y-17263476D01*
X10747857Y-17253952D01*
X10738333Y-17244429D01*
X10728810Y-17225381D01*
X10719286Y-17187286D01*
X10719286Y-17139667D01*
X10728810Y-17101571D01*
X10738333Y-17082524D01*
X10747857Y-17073000D01*
X10766905Y-17063476D01*
X10957381Y-17063476D02*
X10976429Y-17063476D01*
X10995476Y-17073000D01*
X11005000Y-17082524D01*
X11014524Y-17101571D01*
X11024048Y-17139667D01*
X11024048Y-17187286D01*
X11014524Y-17225381D01*
X11005000Y-17244429D01*
X10995476Y-17253952D01*
X10976429Y-17263476D01*
X10957381Y-17263476D01*
X10938333Y-17253952D01*
X10928810Y-17244429D01*
X10919286Y-17225381D01*
X10909762Y-17187286D01*
X10909762Y-17139667D01*
X10919286Y-17101571D01*
X10928810Y-17082524D01*
X10938333Y-17073000D01*
X10957381Y-17063476D01*
X11109762Y-17263476D02*
X11109762Y-17130143D01*
X11109762Y-17149190D02*
X11119286Y-17139667D01*
X11138333Y-17130143D01*
X11166905Y-17130143D01*
X11185952Y-17139667D01*
X11195476Y-17158714D01*
X11195476Y-17263476D01*
X11195476Y-17158714D02*
X11205000Y-17139667D01*
X11224048Y-17130143D01*
X11252619Y-17130143D01*
X11271667Y-17139667D01*
X11281190Y-17158714D01*
X11281190Y-17263476D01*
X11376428Y-17263476D02*
X11376428Y-17130143D01*
X11376428Y-17149190D02*
X11385952Y-17139667D01*
X11405000Y-17130143D01*
X11433571Y-17130143D01*
X11452619Y-17139667D01*
X11462143Y-17158714D01*
X11462143Y-17263476D01*
X11462143Y-17158714D02*
X11471667Y-17139667D01*
X11490714Y-17130143D01*
X11519286Y-17130143D01*
X11538333Y-17139667D01*
X11547857Y-17158714D01*
X11547857Y-17263476D01*
X11938333Y-17053952D02*
X11766905Y-17311095D01*
X12195476Y-17063476D02*
X12214524Y-17063476D01*
X12233571Y-17073000D01*
X12243095Y-17082524D01*
X12252619Y-17101571D01*
X12262143Y-17139667D01*
X12262143Y-17187286D01*
X12252619Y-17225381D01*
X12243095Y-17244429D01*
X12233571Y-17253952D01*
X12214524Y-17263476D01*
X12195476Y-17263476D01*
X12176428Y-17253952D01*
X12166905Y-17244429D01*
X12157381Y-17225381D01*
X12147857Y-17187286D01*
X12147857Y-17139667D01*
X12157381Y-17101571D01*
X12166905Y-17082524D01*
X12176428Y-17073000D01*
X12195476Y-17063476D01*
X12347857Y-17244429D02*
X12357381Y-17253952D01*
X12347857Y-17263476D01*
X12338333Y-17253952D01*
X12347857Y-17244429D01*
X12347857Y-17263476D01*
X12481190Y-17063476D02*
X12500238Y-17063476D01*
X12519286Y-17073000D01*
X12528809Y-17082524D01*
X12538333Y-17101571D01*
X12547857Y-17139667D01*
X12547857Y-17187286D01*
X12538333Y-17225381D01*
X12528809Y-17244429D01*
X12519286Y-17253952D01*
X12500238Y-17263476D01*
X12481190Y-17263476D01*
X12462143Y-17253952D01*
X12452619Y-17244429D01*
X12443095Y-17225381D01*
X12433571Y-17187286D01*
X12433571Y-17139667D01*
X12443095Y-17101571D01*
X12452619Y-17082524D01*
X12462143Y-17073000D01*
X12481190Y-17063476D01*
X12614524Y-17063476D02*
X12738333Y-17063476D01*
X12671667Y-17139667D01*
X12700238Y-17139667D01*
X12719286Y-17149190D01*
X12728809Y-17158714D01*
X12738333Y-17177762D01*
X12738333Y-17225381D01*
X12728809Y-17244429D01*
X12719286Y-17253952D01*
X12700238Y-17263476D01*
X12643095Y-17263476D01*
X12624048Y-17253952D01*
X12614524Y-17244429D01*
X12928809Y-17263476D02*
X12814524Y-17263476D01*
X12871667Y-17263476D02*
X12871667Y-17063476D01*
X12852619Y-17092048D01*
X12833571Y-17111095D01*
X12814524Y-17120619D01*
X13109762Y-17063476D02*
X13014524Y-17063476D01*
X13005000Y-17158714D01*
X13014524Y-17149190D01*
X13033571Y-17139667D01*
X13081190Y-17139667D01*
X13100238Y-17149190D01*
X13109762Y-17158714D01*
X13119286Y-17177762D01*
X13119286Y-17225381D01*
X13109762Y-17244429D01*
X13100238Y-17253952D01*
X13081190Y-17263476D01*
X13033571Y-17263476D01*
X13014524Y-17253952D01*
X13005000Y-17244429D01*
X13195476Y-17063476D02*
X13195476Y-17101571D01*
X13271667Y-17063476D02*
X13271667Y-17101571D01*
X13566905Y-17339667D02*
X13557381Y-17330143D01*
X13538333Y-17301571D01*
X13528809Y-17282524D01*
X13519286Y-17253952D01*
X13509762Y-17206333D01*
X13509762Y-17168238D01*
X13519286Y-17120619D01*
X13528809Y-17092048D01*
X13538333Y-17073000D01*
X13557381Y-17044429D01*
X13566905Y-17034905D01*
X13624048Y-17063476D02*
X13747857Y-17063476D01*
X13681190Y-17139667D01*
X13709762Y-17139667D01*
X13728809Y-17149190D01*
X13738333Y-17158714D01*
X13747857Y-17177762D01*
X13747857Y-17225381D01*
X13738333Y-17244429D01*
X13728809Y-17253952D01*
X13709762Y-17263476D01*
X13652619Y-17263476D01*
X13633571Y-17253952D01*
X13624048Y-17244429D01*
X13938333Y-17263476D02*
X13824048Y-17263476D01*
X13881190Y-17263476D02*
X13881190Y-17063476D01*
X13862143Y-17092048D01*
X13843095Y-17111095D01*
X13824048Y-17120619D01*
X14176428Y-17263476D02*
X14176428Y-17063476D01*
X14262143Y-17263476D02*
X14262143Y-17158714D01*
X14252619Y-17139667D01*
X14233571Y-17130143D01*
X14205000Y-17130143D01*
X14185952Y-17139667D01*
X14176428Y-17149190D01*
X14385952Y-17263476D02*
X14366905Y-17253952D01*
X14357381Y-17244429D01*
X14347857Y-17225381D01*
X14347857Y-17168238D01*
X14357381Y-17149190D01*
X14366905Y-17139667D01*
X14385952Y-17130143D01*
X14414524Y-17130143D01*
X14433571Y-17139667D01*
X14443095Y-17149190D01*
X14452619Y-17168238D01*
X14452619Y-17225381D01*
X14443095Y-17244429D01*
X14433571Y-17253952D01*
X14414524Y-17263476D01*
X14385952Y-17263476D01*
X14566905Y-17263476D02*
X14547857Y-17253952D01*
X14538333Y-17234905D01*
X14538333Y-17063476D01*
X14719286Y-17253952D02*
X14700238Y-17263476D01*
X14662143Y-17263476D01*
X14643095Y-17253952D01*
X14633571Y-17234905D01*
X14633571Y-17158714D01*
X14643095Y-17139667D01*
X14662143Y-17130143D01*
X14700238Y-17130143D01*
X14719286Y-17139667D01*
X14728809Y-17158714D01*
X14728809Y-17177762D01*
X14633571Y-17196810D01*
X14805000Y-17253952D02*
X14824048Y-17263476D01*
X14862143Y-17263476D01*
X14881190Y-17253952D01*
X14890714Y-17234905D01*
X14890714Y-17225381D01*
X14881190Y-17206333D01*
X14862143Y-17196810D01*
X14833571Y-17196810D01*
X14814524Y-17187286D01*
X14805000Y-17168238D01*
X14805000Y-17158714D01*
X14814524Y-17139667D01*
X14833571Y-17130143D01*
X14862143Y-17130143D01*
X14881190Y-17139667D01*
X14957381Y-17339667D02*
X14966905Y-17330143D01*
X14985952Y-17301571D01*
X14995476Y-17282524D01*
X15005000Y-17253952D01*
X15014524Y-17206333D01*
X15014524Y-17168238D01*
X15005000Y-17120619D01*
X14995476Y-17092048D01*
X14985952Y-17073000D01*
X14966905Y-17044429D01*
X14957381Y-17034905D01*
D10*
X9980356Y-17472356D02*
X9980356Y-17401644D01*
X9909644Y-17401644D01*
X9909644Y-17472356D01*
X9980356Y-17472356D01*
D11*
X10357381Y-17527476D02*
X10243095Y-17527476D01*
X10300238Y-17527476D02*
X10300238Y-17327476D01*
X10281190Y-17356048D01*
X10262143Y-17375095D01*
X10243095Y-17384619D01*
X10443095Y-17508429D02*
X10452619Y-17517952D01*
X10443095Y-17527476D01*
X10433571Y-17517952D01*
X10443095Y-17508429D01*
X10443095Y-17527476D01*
X10576429Y-17327476D02*
X10595476Y-17327476D01*
X10614524Y-17337000D01*
X10624048Y-17346524D01*
X10633571Y-17365571D01*
X10643095Y-17403667D01*
X10643095Y-17451286D01*
X10633571Y-17489381D01*
X10624048Y-17508429D01*
X10614524Y-17517952D01*
X10595476Y-17527476D01*
X10576429Y-17527476D01*
X10557381Y-17517952D01*
X10547857Y-17508429D01*
X10538333Y-17489381D01*
X10528810Y-17451286D01*
X10528810Y-17403667D01*
X10538333Y-17365571D01*
X10547857Y-17346524D01*
X10557381Y-17337000D01*
X10576429Y-17327476D01*
X10766905Y-17327476D02*
X10785952Y-17327476D01*
X10805000Y-17337000D01*
X10814524Y-17346524D01*
X10824048Y-17365571D01*
X10833571Y-17403667D01*
X10833571Y-17451286D01*
X10824048Y-17489381D01*
X10814524Y-17508429D01*
X10805000Y-17517952D01*
X10785952Y-17527476D01*
X10766905Y-17527476D01*
X10747857Y-17517952D01*
X10738333Y-17508429D01*
X10728810Y-17489381D01*
X10719286Y-17451286D01*
X10719286Y-17403667D01*
X10728810Y-17365571D01*
X10738333Y-17346524D01*
X10747857Y-17337000D01*
X10766905Y-17327476D01*
X10957381Y-17327476D02*
X10976429Y-17327476D01*
X10995476Y-17337000D01*
X11005000Y-17346524D01*
X11014524Y-17365571D01*
X11024048Y-17403667D01*
X11024048Y-17451286D01*
X11014524Y-17489381D01*
X11005000Y-17508429D01*
X10995476Y-17517952D01*
X10976429Y-17527476D01*
X10957381Y-17527476D01*
X10938333Y-17517952D01*
X10928810Y-17508429D01*
X10919286Y-17489381D01*
X10909762Y-17451286D01*
X10909762Y-17403667D01*
X10919286Y-17365571D01*
X10928810Y-17346524D01*
X10938333Y-17337000D01*
X10957381Y-17327476D01*
X11109762Y-17527476D02*
X11109762Y-17394143D01*
X11109762Y-17413190D02*
X11119286Y-17403667D01*
X11138333Y-17394143D01*
X11166905Y-17394143D01*
X11185952Y-17403667D01*
X11195476Y-17422714D01*
X11195476Y-17527476D01*
X11195476Y-17422714D02*
X11205000Y-17403667D01*
X11224048Y-17394143D01*
X11252619Y-17394143D01*
X11271667Y-17403667D01*
X11281190Y-17422714D01*
X11281190Y-17527476D01*
X11376428Y-17527476D02*
X11376428Y-17394143D01*
X11376428Y-17413190D02*
X11385952Y-17403667D01*
X11405000Y-17394143D01*
X11433571Y-17394143D01*
X11452619Y-17403667D01*
X11462143Y-17422714D01*
X11462143Y-17527476D01*
X11462143Y-17422714D02*
X11471667Y-17403667D01*
X11490714Y-17394143D01*
X11519286Y-17394143D01*
X11538333Y-17403667D01*
X11547857Y-17422714D01*
X11547857Y-17527476D01*
X11938333Y-17317952D02*
X11766905Y-17575095D01*
X12195476Y-17327476D02*
X12214524Y-17327476D01*
X12233571Y-17337000D01*
X12243095Y-17346524D01*
X12252619Y-17365571D01*
X12262143Y-17403667D01*
X12262143Y-17451286D01*
X12252619Y-17489381D01*
X12243095Y-17508429D01*
X12233571Y-17517952D01*
X12214524Y-17527476D01*
X12195476Y-17527476D01*
X12176428Y-17517952D01*
X12166905Y-17508429D01*
X12157381Y-17489381D01*
X12147857Y-17451286D01*
X12147857Y-17403667D01*
X12157381Y-17365571D01*
X12166905Y-17346524D01*
X12176428Y-17337000D01*
X12195476Y-17327476D01*
X12347857Y-17508429D02*
X12357381Y-17517952D01*
X12347857Y-17527476D01*
X12338333Y-17517952D01*
X12347857Y-17508429D01*
X12347857Y-17527476D01*
X12481190Y-17327476D02*
X12500238Y-17327476D01*
X12519286Y-17337000D01*
X12528809Y-17346524D01*
X12538333Y-17365571D01*
X12547857Y-17403667D01*
X12547857Y-17451286D01*
X12538333Y-17489381D01*
X12528809Y-17508429D01*
X12519286Y-17517952D01*
X12500238Y-17527476D01*
X12481190Y-17527476D01*
X12462143Y-17517952D01*
X12452619Y-17508429D01*
X12443095Y-17489381D01*
X12433571Y-17451286D01*
X12433571Y-17403667D01*
X12443095Y-17365571D01*
X12452619Y-17346524D01*
X12462143Y-17337000D01*
X12481190Y-17327476D01*
X12614524Y-17327476D02*
X12738333Y-17327476D01*
X12671667Y-17403667D01*
X12700238Y-17403667D01*
X12719286Y-17413190D01*
X12728809Y-17422714D01*
X12738333Y-17441762D01*
X12738333Y-17489381D01*
X12728809Y-17508429D01*
X12719286Y-17517952D01*
X12700238Y-17527476D01*
X12643095Y-17527476D01*
X12624048Y-17517952D01*
X12614524Y-17508429D01*
X12833571Y-17527476D02*
X12871667Y-17527476D01*
X12890714Y-17517952D01*
X12900238Y-17508429D01*
X12919286Y-17479857D01*
X12928809Y-17441762D01*
X12928809Y-17365571D01*
X12919286Y-17346524D01*
X12909762Y-17337000D01*
X12890714Y-17327476D01*
X12852619Y-17327476D01*
X12833571Y-17337000D01*
X12824048Y-17346524D01*
X12814524Y-17365571D01*
X12814524Y-17413190D01*
X12824048Y-17432238D01*
X12833571Y-17441762D01*
X12852619Y-17451286D01*
X12890714Y-17451286D01*
X12909762Y-17441762D01*
X12919286Y-17432238D01*
X12928809Y-17413190D01*
X13100238Y-17394143D02*
X13100238Y-17527476D01*
X13052619Y-17317952D02*
X13005000Y-17460810D01*
X13128809Y-17460810D01*
X13195476Y-17327476D02*
X13195476Y-17365571D01*
X13271667Y-17327476D02*
X13271667Y-17365571D01*
X13566905Y-17603667D02*
X13557381Y-17594143D01*
X13538333Y-17565571D01*
X13528809Y-17546524D01*
X13519286Y-17517952D01*
X13509762Y-17470333D01*
X13509762Y-17432238D01*
X13519286Y-17384619D01*
X13528809Y-17356048D01*
X13538333Y-17337000D01*
X13557381Y-17308429D01*
X13566905Y-17298905D01*
X13633571Y-17346524D02*
X13643095Y-17337000D01*
X13662143Y-17327476D01*
X13709762Y-17327476D01*
X13728809Y-17337000D01*
X13738333Y-17346524D01*
X13747857Y-17365571D01*
X13747857Y-17384619D01*
X13738333Y-17413190D01*
X13624048Y-17527476D01*
X13747857Y-17527476D01*
X13871667Y-17327476D02*
X13890714Y-17327476D01*
X13909762Y-17337000D01*
X13919286Y-17346524D01*
X13928809Y-17365571D01*
X13938333Y-17403667D01*
X13938333Y-17451286D01*
X13928809Y-17489381D01*
X13919286Y-17508429D01*
X13909762Y-17517952D01*
X13890714Y-17527476D01*
X13871667Y-17527476D01*
X13852619Y-17517952D01*
X13843095Y-17508429D01*
X13833571Y-17489381D01*
X13824048Y-17451286D01*
X13824048Y-17403667D01*
X13833571Y-17365571D01*
X13843095Y-17346524D01*
X13852619Y-17337000D01*
X13871667Y-17327476D01*
X14176428Y-17527476D02*
X14176428Y-17327476D01*
X14262143Y-17527476D02*
X14262143Y-17422714D01*
X14252619Y-17403667D01*
X14233571Y-17394143D01*
X14205000Y-17394143D01*
X14185952Y-17403667D01*
X14176428Y-17413190D01*
X14385952Y-17527476D02*
X14366905Y-17517952D01*
X14357381Y-17508429D01*
X14347857Y-17489381D01*
X14347857Y-17432238D01*
X14357381Y-17413190D01*
X14366905Y-17403667D01*
X14385952Y-17394143D01*
X14414524Y-17394143D01*
X14433571Y-17403667D01*
X14443095Y-17413190D01*
X14452619Y-17432238D01*
X14452619Y-17489381D01*
X14443095Y-17508429D01*
X14433571Y-17517952D01*
X14414524Y-17527476D01*
X14385952Y-17527476D01*
X14566905Y-17527476D02*
X14547857Y-17517952D01*
X14538333Y-17498905D01*
X14538333Y-17327476D01*
X14719286Y-17517952D02*
X14700238Y-17527476D01*
X14662143Y-17527476D01*
X14643095Y-17517952D01*
X14633571Y-17498905D01*
X14633571Y-17422714D01*
X14643095Y-17403667D01*
X14662143Y-17394143D01*
X14700238Y-17394143D01*
X14719286Y-17403667D01*
X14728809Y-17422714D01*
X14728809Y-17441762D01*
X14633571Y-17460810D01*
X14805000Y-17517952D02*
X14824048Y-17527476D01*
X14862143Y-17527476D01*
X14881190Y-17517952D01*
X14890714Y-17498905D01*
X14890714Y-17489381D01*
X14881190Y-17470333D01*
X14862143Y-17460810D01*
X14833571Y-17460810D01*
X14814524Y-17451286D01*
X14805000Y-17432238D01*
X14805000Y-17422714D01*
X14814524Y-17403667D01*
X14833571Y-17394143D01*
X14862143Y-17394143D01*
X14881190Y-17403667D01*
X15128809Y-17451286D02*
X15281190Y-17451286D01*
X15205000Y-17527476D02*
X15205000Y-17375095D01*
X15509762Y-17327476D02*
X15633571Y-17327476D01*
X15566905Y-17403667D01*
X15595476Y-17403667D01*
X15614524Y-17413190D01*
X15624048Y-17422714D01*
X15633571Y-17441762D01*
X15633571Y-17489381D01*
X15624048Y-17508429D01*
X15614524Y-17517952D01*
X15595476Y-17527476D01*
X15538333Y-17527476D01*
X15519286Y-17517952D01*
X15509762Y-17508429D01*
X15862143Y-17517952D02*
X15881190Y-17527476D01*
X15919286Y-17527476D01*
X15938333Y-17517952D01*
X15947857Y-17498905D01*
X15947857Y-17489381D01*
X15938333Y-17470333D01*
X15919286Y-17460810D01*
X15890714Y-17460810D01*
X15871667Y-17451286D01*
X15862143Y-17432238D01*
X15862143Y-17422714D01*
X15871667Y-17403667D01*
X15890714Y-17394143D01*
X15919286Y-17394143D01*
X15938333Y-17403667D01*
X16062143Y-17527476D02*
X16043095Y-17517952D01*
X16033571Y-17498905D01*
X16033571Y-17327476D01*
X16166905Y-17527476D02*
X16147857Y-17517952D01*
X16138333Y-17508429D01*
X16128809Y-17489381D01*
X16128809Y-17432238D01*
X16138333Y-17413190D01*
X16147857Y-17403667D01*
X16166905Y-17394143D01*
X16195476Y-17394143D01*
X16214524Y-17403667D01*
X16224048Y-17413190D01*
X16233571Y-17432238D01*
X16233571Y-17489381D01*
X16224048Y-17508429D01*
X16214524Y-17517952D01*
X16195476Y-17527476D01*
X16166905Y-17527476D01*
X16290714Y-17394143D02*
X16366905Y-17394143D01*
X16319286Y-17327476D02*
X16319286Y-17498905D01*
X16328809Y-17517952D01*
X16347857Y-17527476D01*
X16366905Y-17527476D01*
X16424048Y-17517952D02*
X16443095Y-17527476D01*
X16481190Y-17527476D01*
X16500238Y-17517952D01*
X16509762Y-17498905D01*
X16509762Y-17489381D01*
X16500238Y-17470333D01*
X16481190Y-17460810D01*
X16452619Y-17460810D01*
X16433571Y-17451286D01*
X16424048Y-17432238D01*
X16424048Y-17422714D01*
X16433571Y-17403667D01*
X16452619Y-17394143D01*
X16481190Y-17394143D01*
X16500238Y-17403667D01*
X16576428Y-17603667D02*
X16585952Y-17594143D01*
X16605000Y-17565571D01*
X16614524Y-17546524D01*
X16624048Y-17517952D01*
X16633571Y-17470333D01*
X16633571Y-17432238D01*
X16624048Y-17384619D01*
X16614524Y-17356048D01*
X16605000Y-17337000D01*
X16585952Y-17308429D01*
X16576428Y-17298905D01*
D15*
X9940000Y-17756000D02*
X9995000Y-17701000D01*
X9940000Y-17646000D01*
X9885000Y-17701000D01*
X9940000Y-17756000D01*
D11*
X10357381Y-17791476D02*
X10243095Y-17791476D01*
X10300238Y-17791476D02*
X10300238Y-17591476D01*
X10281190Y-17620048D01*
X10262143Y-17639095D01*
X10243095Y-17648619D01*
X10443095Y-17772429D02*
X10452619Y-17781952D01*
X10443095Y-17791476D01*
X10433571Y-17781952D01*
X10443095Y-17772429D01*
X10443095Y-17791476D01*
X10643095Y-17791476D02*
X10528810Y-17791476D01*
X10585952Y-17791476D02*
X10585952Y-17591476D01*
X10566905Y-17620048D01*
X10547857Y-17639095D01*
X10528810Y-17648619D01*
X10766905Y-17591476D02*
X10785952Y-17591476D01*
X10805000Y-17601000D01*
X10814524Y-17610524D01*
X10824048Y-17629571D01*
X10833571Y-17667667D01*
X10833571Y-17715286D01*
X10824048Y-17753381D01*
X10814524Y-17772429D01*
X10805000Y-17781952D01*
X10785952Y-17791476D01*
X10766905Y-17791476D01*
X10747857Y-17781952D01*
X10738333Y-17772429D01*
X10728810Y-17753381D01*
X10719286Y-17715286D01*
X10719286Y-17667667D01*
X10728810Y-17629571D01*
X10738333Y-17610524D01*
X10747857Y-17601000D01*
X10766905Y-17591476D01*
X10957381Y-17591476D02*
X10976429Y-17591476D01*
X10995476Y-17601000D01*
X11005000Y-17610524D01*
X11014524Y-17629571D01*
X11024048Y-17667667D01*
X11024048Y-17715286D01*
X11014524Y-17753381D01*
X11005000Y-17772429D01*
X10995476Y-17781952D01*
X10976429Y-17791476D01*
X10957381Y-17791476D01*
X10938333Y-17781952D01*
X10928810Y-17772429D01*
X10919286Y-17753381D01*
X10909762Y-17715286D01*
X10909762Y-17667667D01*
X10919286Y-17629571D01*
X10928810Y-17610524D01*
X10938333Y-17601000D01*
X10957381Y-17591476D01*
X11109762Y-17791476D02*
X11109762Y-17658143D01*
X11109762Y-17677190D02*
X11119286Y-17667667D01*
X11138333Y-17658143D01*
X11166905Y-17658143D01*
X11185952Y-17667667D01*
X11195476Y-17686714D01*
X11195476Y-17791476D01*
X11195476Y-17686714D02*
X11205000Y-17667667D01*
X11224048Y-17658143D01*
X11252619Y-17658143D01*
X11271667Y-17667667D01*
X11281190Y-17686714D01*
X11281190Y-17791476D01*
X11376428Y-17791476D02*
X11376428Y-17658143D01*
X11376428Y-17677190D02*
X11385952Y-17667667D01*
X11405000Y-17658143D01*
X11433571Y-17658143D01*
X11452619Y-17667667D01*
X11462143Y-17686714D01*
X11462143Y-17791476D01*
X11462143Y-17686714D02*
X11471667Y-17667667D01*
X11490714Y-17658143D01*
X11519286Y-17658143D01*
X11538333Y-17667667D01*
X11547857Y-17686714D01*
X11547857Y-17791476D01*
X11938333Y-17581952D02*
X11766905Y-17839095D01*
X12195476Y-17591476D02*
X12214524Y-17591476D01*
X12233571Y-17601000D01*
X12243095Y-17610524D01*
X12252619Y-17629571D01*
X12262143Y-17667667D01*
X12262143Y-17715286D01*
X12252619Y-17753381D01*
X12243095Y-17772429D01*
X12233571Y-17781952D01*
X12214524Y-17791476D01*
X12195476Y-17791476D01*
X12176428Y-17781952D01*
X12166905Y-17772429D01*
X12157381Y-17753381D01*
X12147857Y-17715286D01*
X12147857Y-17667667D01*
X12157381Y-17629571D01*
X12166905Y-17610524D01*
X12176428Y-17601000D01*
X12195476Y-17591476D01*
X12347857Y-17772429D02*
X12357381Y-17781952D01*
X12347857Y-17791476D01*
X12338333Y-17781952D01*
X12347857Y-17772429D01*
X12347857Y-17791476D01*
X12481190Y-17591476D02*
X12500238Y-17591476D01*
X12519286Y-17601000D01*
X12528809Y-17610524D01*
X12538333Y-17629571D01*
X12547857Y-17667667D01*
X12547857Y-17715286D01*
X12538333Y-17753381D01*
X12528809Y-17772429D01*
X12519286Y-17781952D01*
X12500238Y-17791476D01*
X12481190Y-17791476D01*
X12462143Y-17781952D01*
X12452619Y-17772429D01*
X12443095Y-17753381D01*
X12433571Y-17715286D01*
X12433571Y-17667667D01*
X12443095Y-17629571D01*
X12452619Y-17610524D01*
X12462143Y-17601000D01*
X12481190Y-17591476D01*
X12719286Y-17658143D02*
X12719286Y-17791476D01*
X12671667Y-17581952D02*
X12624048Y-17724810D01*
X12747857Y-17724810D01*
X12805000Y-17591476D02*
X12928809Y-17591476D01*
X12862143Y-17667667D01*
X12890714Y-17667667D01*
X12909762Y-17677190D01*
X12919286Y-17686714D01*
X12928809Y-17705762D01*
X12928809Y-17753381D01*
X12919286Y-17772429D01*
X12909762Y-17781952D01*
X12890714Y-17791476D01*
X12833571Y-17791476D01*
X12814524Y-17781952D01*
X12805000Y-17772429D01*
X12995476Y-17591476D02*
X13119286Y-17591476D01*
X13052619Y-17667667D01*
X13081190Y-17667667D01*
X13100238Y-17677190D01*
X13109762Y-17686714D01*
X13119286Y-17705762D01*
X13119286Y-17753381D01*
X13109762Y-17772429D01*
X13100238Y-17781952D01*
X13081190Y-17791476D01*
X13024048Y-17791476D01*
X13005000Y-17781952D01*
X12995476Y-17772429D01*
X13195476Y-17591476D02*
X13195476Y-17629571D01*
X13271667Y-17591476D02*
X13271667Y-17629571D01*
X13566905Y-17867667D02*
X13557381Y-17858143D01*
X13538333Y-17829571D01*
X13528809Y-17810524D01*
X13519286Y-17781952D01*
X13509762Y-17734333D01*
X13509762Y-17696238D01*
X13519286Y-17648619D01*
X13528809Y-17620048D01*
X13538333Y-17601000D01*
X13557381Y-17572429D01*
X13566905Y-17562905D01*
X13681190Y-17591476D02*
X13700238Y-17591476D01*
X13719286Y-17601000D01*
X13728809Y-17610524D01*
X13738333Y-17629571D01*
X13747857Y-17667667D01*
X13747857Y-17715286D01*
X13738333Y-17753381D01*
X13728809Y-17772429D01*
X13719286Y-17781952D01*
X13700238Y-17791476D01*
X13681190Y-17791476D01*
X13662143Y-17781952D01*
X13652619Y-17772429D01*
X13643095Y-17753381D01*
X13633571Y-17715286D01*
X13633571Y-17667667D01*
X13643095Y-17629571D01*
X13652619Y-17610524D01*
X13662143Y-17601000D01*
X13681190Y-17591476D01*
X13985952Y-17791476D02*
X13985952Y-17591476D01*
X14071667Y-17791476D02*
X14071667Y-17686714D01*
X14062143Y-17667667D01*
X14043095Y-17658143D01*
X14014524Y-17658143D01*
X13995476Y-17667667D01*
X13985952Y-17677190D01*
X14195476Y-17791476D02*
X14176428Y-17781952D01*
X14166905Y-17772429D01*
X14157381Y-17753381D01*
X14157381Y-17696238D01*
X14166905Y-17677190D01*
X14176428Y-17667667D01*
X14195476Y-17658143D01*
X14224048Y-17658143D01*
X14243095Y-17667667D01*
X14252619Y-17677190D01*
X14262143Y-17696238D01*
X14262143Y-17753381D01*
X14252619Y-17772429D01*
X14243095Y-17781952D01*
X14224048Y-17791476D01*
X14195476Y-17791476D01*
X14376428Y-17791476D02*
X14357381Y-17781952D01*
X14347857Y-17762905D01*
X14347857Y-17591476D01*
X14528809Y-17781952D02*
X14509762Y-17791476D01*
X14471667Y-17791476D01*
X14452619Y-17781952D01*
X14443095Y-17762905D01*
X14443095Y-17686714D01*
X14452619Y-17667667D01*
X14471667Y-17658143D01*
X14509762Y-17658143D01*
X14528809Y-17667667D01*
X14538333Y-17686714D01*
X14538333Y-17705762D01*
X14443095Y-17724810D01*
X14614524Y-17781952D02*
X14633571Y-17791476D01*
X14671667Y-17791476D01*
X14690714Y-17781952D01*
X14700238Y-17762905D01*
X14700238Y-17753381D01*
X14690714Y-17734333D01*
X14671667Y-17724810D01*
X14643095Y-17724810D01*
X14624048Y-17715286D01*
X14614524Y-17696238D01*
X14614524Y-17686714D01*
X14624048Y-17667667D01*
X14643095Y-17658143D01*
X14671667Y-17658143D01*
X14690714Y-17667667D01*
X14938333Y-17715286D02*
X15090714Y-17715286D01*
X15014524Y-17791476D02*
X15014524Y-17639095D01*
X15328809Y-17610524D02*
X15338333Y-17601000D01*
X15357381Y-17591476D01*
X15405000Y-17591476D01*
X15424048Y-17601000D01*
X15433571Y-17610524D01*
X15443095Y-17629571D01*
X15443095Y-17648619D01*
X15433571Y-17677190D01*
X15319286Y-17791476D01*
X15443095Y-17791476D01*
X15671667Y-17781952D02*
X15690714Y-17791476D01*
X15728809Y-17791476D01*
X15747857Y-17781952D01*
X15757381Y-17762905D01*
X15757381Y-17753381D01*
X15747857Y-17734333D01*
X15728809Y-17724810D01*
X15700238Y-17724810D01*
X15681190Y-17715286D01*
X15671667Y-17696238D01*
X15671667Y-17686714D01*
X15681190Y-17667667D01*
X15700238Y-17658143D01*
X15728809Y-17658143D01*
X15747857Y-17667667D01*
X15871667Y-17791476D02*
X15852619Y-17781952D01*
X15843095Y-17762905D01*
X15843095Y-17591476D01*
X15976428Y-17791476D02*
X15957381Y-17781952D01*
X15947857Y-17772429D01*
X15938333Y-17753381D01*
X15938333Y-17696238D01*
X15947857Y-17677190D01*
X15957381Y-17667667D01*
X15976428Y-17658143D01*
X16005000Y-17658143D01*
X16024048Y-17667667D01*
X16033571Y-17677190D01*
X16043095Y-17696238D01*
X16043095Y-17753381D01*
X16033571Y-17772429D01*
X16024048Y-17781952D01*
X16005000Y-17791476D01*
X15976428Y-17791476D01*
X16100238Y-17658143D02*
X16176428Y-17658143D01*
X16128809Y-17591476D02*
X16128809Y-17762905D01*
X16138333Y-17781952D01*
X16157381Y-17791476D01*
X16176428Y-17791476D01*
X16233571Y-17781952D02*
X16252619Y-17791476D01*
X16290714Y-17791476D01*
X16309762Y-17781952D01*
X16319286Y-17762905D01*
X16319286Y-17753381D01*
X16309762Y-17734333D01*
X16290714Y-17724810D01*
X16262143Y-17724810D01*
X16243095Y-17715286D01*
X16233571Y-17696238D01*
X16233571Y-17686714D01*
X16243095Y-17667667D01*
X16262143Y-17658143D01*
X16290714Y-17658143D01*
X16309762Y-17667667D01*
X16385952Y-17867667D02*
X16395476Y-17858143D01*
X16414524Y-17829571D01*
X16424048Y-17810524D01*
X16433571Y-17781952D01*
X16443095Y-17734333D01*
X16443095Y-17696238D01*
X16433571Y-17648619D01*
X16424048Y-17620048D01*
X16414524Y-17601000D01*
X16395476Y-17572429D01*
X16385952Y-17562905D01*
D16*
X9865000Y-17900000D02*
X9995000Y-18030000D01*
X9995000Y-17900000D02*
X9865000Y-18030000D01*
X9995000Y-17965000D02*
G75*
G03*
X9995000Y-17965000I-65000J0D01*
G01*
D11*
X10357381Y-18055476D02*
X10243095Y-18055476D01*
X10300238Y-18055476D02*
X10300238Y-17855476D01*
X10281190Y-17884048D01*
X10262143Y-17903095D01*
X10243095Y-17912619D01*
X10443095Y-18036429D02*
X10452619Y-18045952D01*
X10443095Y-18055476D01*
X10433571Y-18045952D01*
X10443095Y-18036429D01*
X10443095Y-18055476D01*
X10519286Y-17855476D02*
X10643095Y-17855476D01*
X10576429Y-17931667D01*
X10605000Y-17931667D01*
X10624048Y-17941190D01*
X10633571Y-17950714D01*
X10643095Y-17969762D01*
X10643095Y-18017381D01*
X10633571Y-18036429D01*
X10624048Y-18045952D01*
X10605000Y-18055476D01*
X10547857Y-18055476D01*
X10528810Y-18045952D01*
X10519286Y-18036429D01*
X10766905Y-17855476D02*
X10785952Y-17855476D01*
X10805000Y-17865000D01*
X10814524Y-17874524D01*
X10824048Y-17893571D01*
X10833571Y-17931667D01*
X10833571Y-17979286D01*
X10824048Y-18017381D01*
X10814524Y-18036429D01*
X10805000Y-18045952D01*
X10785952Y-18055476D01*
X10766905Y-18055476D01*
X10747857Y-18045952D01*
X10738333Y-18036429D01*
X10728810Y-18017381D01*
X10719286Y-17979286D01*
X10719286Y-17931667D01*
X10728810Y-17893571D01*
X10738333Y-17874524D01*
X10747857Y-17865000D01*
X10766905Y-17855476D01*
X10957381Y-17855476D02*
X10976429Y-17855476D01*
X10995476Y-17865000D01*
X11005000Y-17874524D01*
X11014524Y-17893571D01*
X11024048Y-17931667D01*
X11024048Y-17979286D01*
X11014524Y-18017381D01*
X11005000Y-18036429D01*
X10995476Y-18045952D01*
X10976429Y-18055476D01*
X10957381Y-18055476D01*
X10938333Y-18045952D01*
X10928810Y-18036429D01*
X10919286Y-18017381D01*
X10909762Y-17979286D01*
X10909762Y-17931667D01*
X10919286Y-17893571D01*
X10928810Y-17874524D01*
X10938333Y-17865000D01*
X10957381Y-17855476D01*
X11109762Y-18055476D02*
X11109762Y-17922143D01*
X11109762Y-17941190D02*
X11119286Y-17931667D01*
X11138333Y-17922143D01*
X11166905Y-17922143D01*
X11185952Y-17931667D01*
X11195476Y-17950714D01*
X11195476Y-18055476D01*
X11195476Y-17950714D02*
X11205000Y-17931667D01*
X11224048Y-17922143D01*
X11252619Y-17922143D01*
X11271667Y-17931667D01*
X11281190Y-17950714D01*
X11281190Y-18055476D01*
X11376428Y-18055476D02*
X11376428Y-17922143D01*
X11376428Y-17941190D02*
X11385952Y-17931667D01*
X11405000Y-17922143D01*
X11433571Y-17922143D01*
X11452619Y-17931667D01*
X11462143Y-17950714D01*
X11462143Y-18055476D01*
X11462143Y-17950714D02*
X11471667Y-17931667D01*
X11490714Y-17922143D01*
X11519286Y-17922143D01*
X11538333Y-17931667D01*
X11547857Y-17950714D01*
X11547857Y-18055476D01*
X11938333Y-17845952D02*
X11766905Y-18103095D01*
X12195476Y-17855476D02*
X12214524Y-17855476D01*
X12233571Y-17865000D01*
X12243095Y-17874524D01*
X12252619Y-17893571D01*
X12262143Y-17931667D01*
X12262143Y-17979286D01*
X12252619Y-18017381D01*
X12243095Y-18036429D01*
X12233571Y-18045952D01*
X12214524Y-18055476D01*
X12195476Y-18055476D01*
X12176428Y-18045952D01*
X12166905Y-18036429D01*
X12157381Y-18017381D01*
X12147857Y-17979286D01*
X12147857Y-17931667D01*
X12157381Y-17893571D01*
X12166905Y-17874524D01*
X12176428Y-17865000D01*
X12195476Y-17855476D01*
X12347857Y-18036429D02*
X12357381Y-18045952D01*
X12347857Y-18055476D01*
X12338333Y-18045952D01*
X12347857Y-18036429D01*
X12347857Y-18055476D01*
X12481190Y-17855476D02*
X12500238Y-17855476D01*
X12519286Y-17865000D01*
X12528809Y-17874524D01*
X12538333Y-17893571D01*
X12547857Y-17931667D01*
X12547857Y-17979286D01*
X12538333Y-18017381D01*
X12528809Y-18036429D01*
X12519286Y-18045952D01*
X12500238Y-18055476D01*
X12481190Y-18055476D01*
X12462143Y-18045952D01*
X12452619Y-18036429D01*
X12443095Y-18017381D01*
X12433571Y-17979286D01*
X12433571Y-17931667D01*
X12443095Y-17893571D01*
X12452619Y-17874524D01*
X12462143Y-17865000D01*
X12481190Y-17855476D01*
X12728809Y-17855476D02*
X12633571Y-17855476D01*
X12624048Y-17950714D01*
X12633571Y-17941190D01*
X12652619Y-17931667D01*
X12700238Y-17931667D01*
X12719286Y-17941190D01*
X12728809Y-17950714D01*
X12738333Y-17969762D01*
X12738333Y-18017381D01*
X12728809Y-18036429D01*
X12719286Y-18045952D01*
X12700238Y-18055476D01*
X12652619Y-18055476D01*
X12633571Y-18045952D01*
X12624048Y-18036429D01*
X12928809Y-18055476D02*
X12814524Y-18055476D01*
X12871667Y-18055476D02*
X12871667Y-17855476D01*
X12852619Y-17884048D01*
X12833571Y-17903095D01*
X12814524Y-17912619D01*
X13005000Y-17874524D02*
X13014524Y-17865000D01*
X13033571Y-17855476D01*
X13081190Y-17855476D01*
X13100238Y-17865000D01*
X13109762Y-17874524D01*
X13119286Y-17893571D01*
X13119286Y-17912619D01*
X13109762Y-17941190D01*
X12995476Y-18055476D01*
X13119286Y-18055476D01*
X13195476Y-17855476D02*
X13195476Y-17893571D01*
X13271667Y-17855476D02*
X13271667Y-17893571D01*
X13566905Y-18131667D02*
X13557381Y-18122143D01*
X13538333Y-18093571D01*
X13528809Y-18074524D01*
X13519286Y-18045952D01*
X13509762Y-17998333D01*
X13509762Y-17960238D01*
X13519286Y-17912619D01*
X13528809Y-17884048D01*
X13538333Y-17865000D01*
X13557381Y-17836429D01*
X13566905Y-17826905D01*
X13747857Y-18055476D02*
X13633571Y-18055476D01*
X13690714Y-18055476D02*
X13690714Y-17855476D01*
X13671667Y-17884048D01*
X13652619Y-17903095D01*
X13633571Y-17912619D01*
X13938333Y-18055476D02*
X13824048Y-18055476D01*
X13881190Y-18055476D02*
X13881190Y-17855476D01*
X13862143Y-17884048D01*
X13843095Y-17903095D01*
X13824048Y-17912619D01*
X14176428Y-18055476D02*
X14176428Y-17855476D01*
X14262143Y-18055476D02*
X14262143Y-17950714D01*
X14252619Y-17931667D01*
X14233571Y-17922143D01*
X14205000Y-17922143D01*
X14185952Y-17931667D01*
X14176428Y-17941190D01*
X14385952Y-18055476D02*
X14366905Y-18045952D01*
X14357381Y-18036429D01*
X14347857Y-18017381D01*
X14347857Y-17960238D01*
X14357381Y-17941190D01*
X14366905Y-17931667D01*
X14385952Y-17922143D01*
X14414524Y-17922143D01*
X14433571Y-17931667D01*
X14443095Y-17941190D01*
X14452619Y-17960238D01*
X14452619Y-18017381D01*
X14443095Y-18036429D01*
X14433571Y-18045952D01*
X14414524Y-18055476D01*
X14385952Y-18055476D01*
X14566905Y-18055476D02*
X14547857Y-18045952D01*
X14538333Y-18026905D01*
X14538333Y-17855476D01*
X14719286Y-18045952D02*
X14700238Y-18055476D01*
X14662143Y-18055476D01*
X14643095Y-18045952D01*
X14633571Y-18026905D01*
X14633571Y-17950714D01*
X14643095Y-17931667D01*
X14662143Y-17922143D01*
X14700238Y-17922143D01*
X14719286Y-17931667D01*
X14728809Y-17950714D01*
X14728809Y-17969762D01*
X14633571Y-17988810D01*
X14805000Y-18045952D02*
X14824048Y-18055476D01*
X14862143Y-18055476D01*
X14881190Y-18045952D01*
X14890714Y-18026905D01*
X14890714Y-18017381D01*
X14881190Y-17998333D01*
X14862143Y-17988810D01*
X14833571Y-17988810D01*
X14814524Y-17979286D01*
X14805000Y-17960238D01*
X14805000Y-17950714D01*
X14814524Y-17931667D01*
X14833571Y-17922143D01*
X14862143Y-17922143D01*
X14881190Y-17931667D01*
X14957381Y-18131667D02*
X14966905Y-18122143D01*
X14985952Y-18093571D01*
X14995476Y-18074524D01*
X15005000Y-18045952D01*
X15014524Y-17998333D01*
X15014524Y-17960238D01*
X15005000Y-17912619D01*
X14995476Y-17884048D01*
X14985952Y-17865000D01*
X14966905Y-17836429D01*
X14957381Y-17826905D01*
X9795000Y-18129000D02*
X9995000Y-18329000D01*
X9995000Y-18129000D02*
X9795000Y-18329000D01*
X9895000Y-18129000D02*
X9895000Y-18329000D01*
X9795000Y-18229000D02*
X9995000Y-18229000D01*
X10233571Y-18119476D02*
X10357381Y-18119476D01*
X10290714Y-18195667D01*
X10319286Y-18195667D01*
X10338333Y-18205190D01*
X10347857Y-18214714D01*
X10357381Y-18233762D01*
X10357381Y-18281381D01*
X10347857Y-18300429D01*
X10338333Y-18309952D01*
X10319286Y-18319476D01*
X10262143Y-18319476D01*
X10243095Y-18309952D01*
X10233571Y-18300429D01*
X10443095Y-18300429D02*
X10452619Y-18309952D01*
X10443095Y-18319476D01*
X10433571Y-18309952D01*
X10443095Y-18300429D01*
X10443095Y-18319476D01*
X10519286Y-18119476D02*
X10652619Y-18119476D01*
X10566905Y-18319476D01*
X10766905Y-18119476D02*
X10785952Y-18119476D01*
X10805000Y-18129000D01*
X10814524Y-18138524D01*
X10824048Y-18157571D01*
X10833571Y-18195667D01*
X10833571Y-18243286D01*
X10824048Y-18281381D01*
X10814524Y-18300429D01*
X10805000Y-18309952D01*
X10785952Y-18319476D01*
X10766905Y-18319476D01*
X10747857Y-18309952D01*
X10738333Y-18300429D01*
X10728810Y-18281381D01*
X10719286Y-18243286D01*
X10719286Y-18195667D01*
X10728810Y-18157571D01*
X10738333Y-18138524D01*
X10747857Y-18129000D01*
X10766905Y-18119476D01*
X10957381Y-18119476D02*
X10976429Y-18119476D01*
X10995476Y-18129000D01*
X11005000Y-18138524D01*
X11014524Y-18157571D01*
X11024048Y-18195667D01*
X11024048Y-18243286D01*
X11014524Y-18281381D01*
X11005000Y-18300429D01*
X10995476Y-18309952D01*
X10976429Y-18319476D01*
X10957381Y-18319476D01*
X10938333Y-18309952D01*
X10928810Y-18300429D01*
X10919286Y-18281381D01*
X10909762Y-18243286D01*
X10909762Y-18195667D01*
X10919286Y-18157571D01*
X10928810Y-18138524D01*
X10938333Y-18129000D01*
X10957381Y-18119476D01*
X11109762Y-18319476D02*
X11109762Y-18186143D01*
X11109762Y-18205190D02*
X11119286Y-18195667D01*
X11138333Y-18186143D01*
X11166905Y-18186143D01*
X11185952Y-18195667D01*
X11195476Y-18214714D01*
X11195476Y-18319476D01*
X11195476Y-18214714D02*
X11205000Y-18195667D01*
X11224048Y-18186143D01*
X11252619Y-18186143D01*
X11271667Y-18195667D01*
X11281190Y-18214714D01*
X11281190Y-18319476D01*
X11376428Y-18319476D02*
X11376428Y-18186143D01*
X11376428Y-18205190D02*
X11385952Y-18195667D01*
X11405000Y-18186143D01*
X11433571Y-18186143D01*
X11452619Y-18195667D01*
X11462143Y-18214714D01*
X11462143Y-18319476D01*
X11462143Y-18214714D02*
X11471667Y-18195667D01*
X11490714Y-18186143D01*
X11519286Y-18186143D01*
X11538333Y-18195667D01*
X11547857Y-18214714D01*
X11547857Y-18319476D01*
X11938333Y-18109952D02*
X11766905Y-18367095D01*
X12195476Y-18119476D02*
X12214524Y-18119476D01*
X12233571Y-18129000D01*
X12243095Y-18138524D01*
X12252619Y-18157571D01*
X12262143Y-18195667D01*
X12262143Y-18243286D01*
X12252619Y-18281381D01*
X12243095Y-18300429D01*
X12233571Y-18309952D01*
X12214524Y-18319476D01*
X12195476Y-18319476D01*
X12176428Y-18309952D01*
X12166905Y-18300429D01*
X12157381Y-18281381D01*
X12147857Y-18243286D01*
X12147857Y-18195667D01*
X12157381Y-18157571D01*
X12166905Y-18138524D01*
X12176428Y-18129000D01*
X12195476Y-18119476D01*
X12347857Y-18300429D02*
X12357381Y-18309952D01*
X12347857Y-18319476D01*
X12338333Y-18309952D01*
X12347857Y-18300429D01*
X12347857Y-18319476D01*
X12547857Y-18319476D02*
X12433571Y-18319476D01*
X12490714Y-18319476D02*
X12490714Y-18119476D01*
X12471667Y-18148048D01*
X12452619Y-18167095D01*
X12433571Y-18176619D01*
X12719286Y-18186143D02*
X12719286Y-18319476D01*
X12671667Y-18109952D02*
X12624048Y-18252810D01*
X12747857Y-18252810D01*
X12919286Y-18119476D02*
X12824048Y-18119476D01*
X12814524Y-18214714D01*
X12824048Y-18205190D01*
X12843095Y-18195667D01*
X12890714Y-18195667D01*
X12909762Y-18205190D01*
X12919286Y-18214714D01*
X12928809Y-18233762D01*
X12928809Y-18281381D01*
X12919286Y-18300429D01*
X12909762Y-18309952D01*
X12890714Y-18319476D01*
X12843095Y-18319476D01*
X12824048Y-18309952D01*
X12814524Y-18300429D01*
X12995476Y-18119476D02*
X13128809Y-18119476D01*
X13043095Y-18319476D01*
X13195476Y-18119476D02*
X13195476Y-18157571D01*
X13271667Y-18119476D02*
X13271667Y-18157571D01*
X13566905Y-18395667D02*
X13557381Y-18386143D01*
X13538333Y-18357571D01*
X13528809Y-18338524D01*
X13519286Y-18309952D01*
X13509762Y-18262333D01*
X13509762Y-18224238D01*
X13519286Y-18176619D01*
X13528809Y-18148048D01*
X13538333Y-18129000D01*
X13557381Y-18100429D01*
X13566905Y-18090905D01*
X13728809Y-18186143D02*
X13728809Y-18319476D01*
X13681190Y-18109952D02*
X13633571Y-18252810D01*
X13757381Y-18252810D01*
X13985952Y-18319476D02*
X13985952Y-18119476D01*
X14071667Y-18319476D02*
X14071667Y-18214714D01*
X14062143Y-18195667D01*
X14043095Y-18186143D01*
X14014524Y-18186143D01*
X13995476Y-18195667D01*
X13985952Y-18205190D01*
X14195476Y-18319476D02*
X14176428Y-18309952D01*
X14166905Y-18300429D01*
X14157381Y-18281381D01*
X14157381Y-18224238D01*
X14166905Y-18205190D01*
X14176428Y-18195667D01*
X14195476Y-18186143D01*
X14224048Y-18186143D01*
X14243095Y-18195667D01*
X14252619Y-18205190D01*
X14262143Y-18224238D01*
X14262143Y-18281381D01*
X14252619Y-18300429D01*
X14243095Y-18309952D01*
X14224048Y-18319476D01*
X14195476Y-18319476D01*
X14376428Y-18319476D02*
X14357381Y-18309952D01*
X14347857Y-18290905D01*
X14347857Y-18119476D01*
X14528809Y-18309952D02*
X14509762Y-18319476D01*
X14471667Y-18319476D01*
X14452619Y-18309952D01*
X14443095Y-18290905D01*
X14443095Y-18214714D01*
X14452619Y-18195667D01*
X14471667Y-18186143D01*
X14509762Y-18186143D01*
X14528809Y-18195667D01*
X14538333Y-18214714D01*
X14538333Y-18233762D01*
X14443095Y-18252810D01*
X14614524Y-18309952D02*
X14633571Y-18319476D01*
X14671667Y-18319476D01*
X14690714Y-18309952D01*
X14700238Y-18290905D01*
X14700238Y-18281381D01*
X14690714Y-18262333D01*
X14671667Y-18252810D01*
X14643095Y-18252810D01*
X14624048Y-18243286D01*
X14614524Y-18224238D01*
X14614524Y-18214714D01*
X14624048Y-18195667D01*
X14643095Y-18186143D01*
X14671667Y-18186143D01*
X14690714Y-18195667D01*
X14766905Y-18395667D02*
X14776428Y-18386143D01*
X14795476Y-18357571D01*
X14805000Y-18338524D01*
X14814524Y-18309952D01*
X14824048Y-18262333D01*
X14824048Y-18224238D01*
X14814524Y-18176619D01*
X14805000Y-18148048D01*
X14795476Y-18129000D01*
X14776428Y-18100429D01*
X14766905Y-18090905D01*
M02*
