M48
; DRILL file {KiCad 6.0.11-2627ca5db0~126~ubuntu20.04.1} date lun 27 nov 2023, 13:14:52
; FORMAT={-:-/ absolute / metric / decimal}
; #@! TF.CreationDate,2023-11-27T13:14:52+01:00
; #@! TF.GenerationSoftware,Kicad,Pcbnew,6.0.11-2627ca5db0~126~ubuntu20.04.1
; #@! TF.FileFunction,Plated,1,2,PTH
FMAT,2
METRIC
; #@! TA.AperFunction,Plated,PTH,ViaDrill
T1C0.400
; #@! TA.AperFunction,Plated,PTH,ComponentDrill
T2C0.800
; #@! TA.AperFunction,Plated,PTH,ComponentDrill
T3C0.800
; #@! TA.AperFunction,Plated,PTH,ComponentDrill
T4C1.000
; #@! TA.AperFunction,Plated,PTH,ComponentDrill
T5C1.100
; #@! TA.AperFunction,Plated,PTH,ComponentDrill
T6C1.300
; #@! TA.AperFunction,Plated,PTH,ComponentDrill
T7C3.700
%
G90
G05
T1
X152.467Y-106.525
T2
X147.32Y-136.164
X147.32Y-138.664
X156.972Y-135.382
X156.972Y-143.002
T3
X148.59Y-102.616
X148.59Y-110.236
X148.59Y-112.776
X148.59Y-115.316
X148.59Y-117.856
X151.13Y-102.616
X151.13Y-117.856
X153.67Y-102.616
X153.67Y-117.856
X154.94Y-115.316
X156.21Y-102.616
X156.21Y-117.856
X157.48Y-115.316
X158.75Y-102.616
X158.75Y-117.856
X161.29Y-102.616
X161.29Y-117.856
X163.83Y-102.616
X163.83Y-117.856
X165.1Y-115.316
X166.37Y-102.616
X166.37Y-117.856
X167.64Y-115.316
X168.91Y-102.616
X168.91Y-117.856
X171.45Y-102.616
X171.45Y-117.856
X173.99Y-102.616
X173.99Y-117.856
X176.53Y-102.616
X176.53Y-117.856
T4
X129.657Y-150.154
X129.657Y-152.654
X129.657Y-155.154
X132.354Y-114.169
X132.354Y-116.709
X132.354Y-119.249
X132.354Y-121.789
X132.354Y-124.329
X138.102Y-134.222
X138.102Y-136.762
X138.102Y-139.302
X140.213Y-119.888
X142.753Y-119.888
X149.87Y-125.05
X152.41Y-125.05
X154.95Y-125.05
X170.578Y-123.432
X173.118Y-123.432
X175.658Y-123.432
X178.198Y-123.432
T6
X113.364Y-106.172
X114.126Y-155.956
X118.364Y-106.172
X119.126Y-155.956
X124.126Y-155.956
X125.516Y-106.164
X130.516Y-106.164
X145.652Y-150.154
X145.652Y-155.154
X158.152Y-150.154
X158.152Y-155.154
T7
X104.902Y-105.41
X104.902Y-155.194
X185.166Y-104.648
X185.42Y-155.448
T4
G00X136.465Y-110.204
M15
G01X136.465Y-112.204
M16
G05
G00X142.165Y-108.204
M15
G01X140.165Y-108.204
M16
G05
G00X142.165Y-114.204
M15
G01X140.165Y-114.204
M16
G05
T5
G00X136.807Y-147.854
M15
G01X137.507Y-147.854
M16
G05
G00X136.807Y-157.454
M15
G01X137.507Y-157.454
M16
G05
T0
M30
