%TF.GenerationSoftware,KiCad,Pcbnew,6.0.11-2627ca5db0~126~ubuntu20.04.1*%
%TF.CreationDate,2023-11-27T13:14:47+01:00*%
%TF.ProjectId,ironReflow,69726f6e-5265-4666-9c6f-772e6b696361,1.0*%
%TF.SameCoordinates,Original*%
%TF.FileFunction,Drillmap*%
%TF.FilePolarity,Positive*%
%FSLAX45Y45*%
G04 Gerber Fmt 4.5, Leading zero omitted, Abs format (unit mm)*
G04 Created by KiCad (PCBNEW 6.0.11-2627ca5db0~126~ubuntu20.04.1) date 2023-11-27 13:14:47*
%MOMM*%
%LPD*%
G01*
G04 APERTURE LIST*
%ADD10C,0.100000*%
%ADD11C,0.200000*%
G04 APERTURE END LIST*
D10*
X10000000Y-10000000D02*
X19000000Y-10000000D01*
X19000000Y-10000000D02*
X19000000Y-16000000D01*
X19000000Y-16000000D02*
X10000000Y-16000000D01*
X10000000Y-16000000D02*
X10000000Y-10000000D01*
D11*
X10252619Y-16315476D02*
X10252619Y-16115476D01*
X10300238Y-16115476D01*
X10328810Y-16125000D01*
X10347857Y-16144048D01*
X10357381Y-16163095D01*
X10366905Y-16201190D01*
X10366905Y-16229762D01*
X10357381Y-16267857D01*
X10347857Y-16286905D01*
X10328810Y-16305952D01*
X10300238Y-16315476D01*
X10252619Y-16315476D01*
X10452619Y-16315476D02*
X10452619Y-16182143D01*
X10452619Y-16220238D02*
X10462143Y-16201190D01*
X10471667Y-16191667D01*
X10490714Y-16182143D01*
X10509762Y-16182143D01*
X10576429Y-16315476D02*
X10576429Y-16182143D01*
X10576429Y-16115476D02*
X10566905Y-16125000D01*
X10576429Y-16134524D01*
X10585952Y-16125000D01*
X10576429Y-16115476D01*
X10576429Y-16134524D01*
X10700238Y-16315476D02*
X10681190Y-16305952D01*
X10671667Y-16286905D01*
X10671667Y-16115476D01*
X10805000Y-16315476D02*
X10785952Y-16305952D01*
X10776429Y-16286905D01*
X10776429Y-16115476D01*
X11033571Y-16315476D02*
X11033571Y-16115476D01*
X11100238Y-16258333D01*
X11166905Y-16115476D01*
X11166905Y-16315476D01*
X11347857Y-16315476D02*
X11347857Y-16210714D01*
X11338333Y-16191667D01*
X11319286Y-16182143D01*
X11281190Y-16182143D01*
X11262143Y-16191667D01*
X11347857Y-16305952D02*
X11328809Y-16315476D01*
X11281190Y-16315476D01*
X11262143Y-16305952D01*
X11252619Y-16286905D01*
X11252619Y-16267857D01*
X11262143Y-16248809D01*
X11281190Y-16239286D01*
X11328809Y-16239286D01*
X11347857Y-16229762D01*
X11443095Y-16182143D02*
X11443095Y-16382143D01*
X11443095Y-16191667D02*
X11462143Y-16182143D01*
X11500238Y-16182143D01*
X11519286Y-16191667D01*
X11528809Y-16201190D01*
X11538333Y-16220238D01*
X11538333Y-16277381D01*
X11528809Y-16296428D01*
X11519286Y-16305952D01*
X11500238Y-16315476D01*
X11462143Y-16315476D01*
X11443095Y-16305952D01*
X11624048Y-16296428D02*
X11633571Y-16305952D01*
X11624048Y-16315476D01*
X11614524Y-16305952D01*
X11624048Y-16296428D01*
X11624048Y-16315476D01*
X11624048Y-16191667D02*
X11633571Y-16201190D01*
X11624048Y-16210714D01*
X11614524Y-16201190D01*
X11624048Y-16191667D01*
X11624048Y-16210714D01*
M02*
