%TF.GenerationSoftware,KiCad,Pcbnew,6.0.11-2627ca5db0~126~ubuntu20.04.1*%
%TF.CreationDate,2023-11-27T13:15:07+01:00*%
%TF.ProjectId,ironReflow,69726f6e-5265-4666-9c6f-772e6b696361,1.0*%
%TF.SameCoordinates,Original*%
%TF.FileFunction,Copper,L2,Bot*%
%TF.FilePolarity,Positive*%
%FSLAX46Y46*%
G04 Gerber Fmt 4.6, Leading zero omitted, Abs format (unit mm)*
G04 Created by KiCad (PCBNEW 6.0.11-2627ca5db0~126~ubuntu20.04.1) date 2023-11-27 13:15:07*
%MOMM*%
%LPD*%
G01*
G04 APERTURE LIST*
G04 Aperture macros list*
%AMRoundRect*
0 Rectangle with rounded corners*
0 $1 Rounding radius*
0 $2 $3 $4 $5 $6 $7 $8 $9 X,Y pos of 4 corners*
0 Add a 4 corners polygon primitive as box body*
4,1,4,$2,$3,$4,$5,$6,$7,$8,$9,$2,$3,0*
0 Add four circle primitives for the rounded corners*
1,1,$1+$1,$2,$3*
1,1,$1+$1,$4,$5*
1,1,$1+$1,$6,$7*
1,1,$1+$1,$8,$9*
0 Add four rect primitives between the rounded corners*
20,1,$1+$1,$2,$3,$4,$5,0*
20,1,$1+$1,$4,$5,$6,$7,0*
20,1,$1+$1,$6,$7,$8,$9,0*
20,1,$1+$1,$8,$9,$2,$3,0*%
G04 Aperture macros list end*
%TA.AperFunction,ComponentPad*%
%ADD10O,3.048000X1.850000*%
%TD*%
%TA.AperFunction,ComponentPad*%
%ADD11R,2.600000X2.600000*%
%TD*%
%TA.AperFunction,ComponentPad*%
%ADD12C,2.600000*%
%TD*%
%TA.AperFunction,ComponentPad*%
%ADD13C,2.500000*%
%TD*%
%TA.AperFunction,ComponentPad*%
%ADD14R,2.500000X2.500000*%
%TD*%
%TA.AperFunction,ComponentPad*%
%ADD15R,1.700000X1.700000*%
%TD*%
%TA.AperFunction,ComponentPad*%
%ADD16O,1.700000X1.700000*%
%TD*%
%TA.AperFunction,ConnectorPad*%
%ADD17C,7.400000*%
%TD*%
%TA.AperFunction,ComponentPad*%
%ADD18C,4.100000*%
%TD*%
%TA.AperFunction,ComponentPad*%
%ADD19O,1.600000X1.600000*%
%TD*%
%TA.AperFunction,ComponentPad*%
%ADD20C,1.600000*%
%TD*%
%TA.AperFunction,ComponentPad*%
%ADD21O,1.600000X2.000000*%
%TD*%
%TA.AperFunction,ComponentPad*%
%ADD22R,3.500000X3.500000*%
%TD*%
%TA.AperFunction,ComponentPad*%
%ADD23RoundRect,0.750000X-1.000000X0.750000X-1.000000X-0.750000X1.000000X-0.750000X1.000000X0.750000X0*%
%TD*%
%TA.AperFunction,ComponentPad*%
%ADD24RoundRect,0.875000X-0.875000X0.875000X-0.875000X-0.875000X0.875000X-0.875000X0.875000X0.875000X0*%
%TD*%
%TA.AperFunction,ComponentPad*%
%ADD25O,1.501140X2.199640*%
%TD*%
%TA.AperFunction,ComponentPad*%
%ADD26O,2.199640X1.501140*%
%TD*%
%TA.AperFunction,ComponentPad*%
%ADD27O,3.240000X2.720000*%
%TD*%
%TA.AperFunction,ComponentPad*%
%ADD28R,1.800000X1.800000*%
%TD*%
%TA.AperFunction,ComponentPad*%
%ADD29C,1.800000*%
%TD*%
%TA.AperFunction,ComponentPad*%
%ADD30R,2.000000X2.000000*%
%TD*%
%TA.AperFunction,ComponentPad*%
%ADD31C,2.000000*%
%TD*%
%TA.AperFunction,ViaPad*%
%ADD32C,0.800000*%
%TD*%
%TA.AperFunction,Conductor*%
%ADD33C,0.600000*%
%TD*%
%TA.AperFunction,Conductor*%
%ADD34C,2.000000*%
%TD*%
G04 APERTURE END LIST*
D10*
%TO.P,SW1,2,2*%
%TO.N,GND*%
X145652000Y-155154000D03*
X158152000Y-155154000D03*
%TO.P,SW1,1,1*%
%TO.N,Net-(IC1-Pad11)*%
X158152000Y-150154000D03*
X145652000Y-150154000D03*
%TD*%
D11*
%TO.P,J1,1,Pin_1*%
%TO.N,+12V*%
X130516000Y-106164000D03*
D12*
%TO.P,J1,2,Pin_2*%
%TO.N,GND*%
X125516000Y-106164000D03*
%TD*%
D13*
%TO.P,J7,3*%
%TO.N,+5V*%
X114126000Y-155956000D03*
%TO.P,J7,2*%
%TO.N,Net-(IC1-Pad17)*%
X119126000Y-155956000D03*
D14*
%TO.P,J7,1*%
%TO.N,GND*%
X124126000Y-155956000D03*
%TD*%
D15*
%TO.P,J6,1*%
%TO.N,+5V*%
X138102000Y-139302000D03*
D16*
%TO.P,J6,2*%
%TO.N,GND*%
X138102000Y-136762000D03*
%TO.P,J6,3*%
%TO.N,Net-(IC1-Pad10)*%
X138102000Y-134222000D03*
%TD*%
D15*
%TO.P,J5,1*%
%TO.N,GND*%
X132354000Y-124329000D03*
D16*
%TO.P,J5,2*%
%TO.N,+5V*%
X132354000Y-121789000D03*
%TO.P,J5,3*%
%TO.N,Net-(IC1-Pad8)*%
X132354000Y-119249000D03*
%TO.P,J5,4*%
%TO.N,Net-(IC1-Pad7)*%
X132354000Y-116709000D03*
%TO.P,J5,5*%
%TO.N,Net-(IC1-Pad9)*%
X132354000Y-114169000D03*
%TD*%
D12*
%TO.P,J4,2,Pin_2*%
%TO.N,GND*%
X113364000Y-106172000D03*
D11*
%TO.P,J4,1,Pin_1*%
%TO.N,Net-(IC1-Pad6)*%
X118364000Y-106172000D03*
%TD*%
D15*
%TO.P,J3,1,Pin_1*%
%TO.N,+5V*%
X142753000Y-119888000D03*
D16*
%TO.P,J3,2,Pin_2*%
%TO.N,+12V*%
X140213000Y-119888000D03*
%TD*%
D17*
%TO.P,H4,1*%
%TO.N,N/C*%
X104902000Y-155194000D03*
D18*
X104902000Y-155194000D03*
%TD*%
%TO.P,H3,1*%
%TO.N,N/C*%
X185420000Y-155448000D03*
D17*
X185420000Y-155448000D03*
%TD*%
%TO.P,H2,1*%
%TO.N,N/C*%
X185166000Y-104648000D03*
D18*
X185166000Y-104648000D03*
%TD*%
D17*
%TO.P,H1,1*%
%TO.N,N/C*%
X104902000Y-105410000D03*
D18*
X104902000Y-105410000D03*
%TD*%
D19*
%TO.P,R1,2*%
%TO.N,+5V*%
X156972000Y-135382000D03*
D20*
%TO.P,R1,1*%
%TO.N,Net-(IC1-Pad11)*%
X156972000Y-143002000D03*
%TD*%
%TO.P,C1,1*%
%TO.N,+5V*%
X147320000Y-136164000D03*
%TO.P,C1,2*%
%TO.N,GND*%
X147320000Y-138664000D03*
%TD*%
D21*
%TO.P,Oled 128x64 I2C,4,SDA*%
%TO.N,Net-(Brd1-Pad4)*%
X178198000Y-123432000D03*
%TO.P,Oled 128x64 I2C,3,SCL*%
%TO.N,Net-(Brd1-Pad3)*%
X175658000Y-123432000D03*
%TO.P,Oled 128x64 I2C,2,VCC*%
%TO.N,+5V*%
X173118000Y-123432000D03*
%TO.P,Oled 128x64 I2C,1,GND*%
%TO.N,GND*%
X170578000Y-123432000D03*
%TD*%
D22*
%TO.P,J2,1,In*%
%TO.N,+12V*%
X141165500Y-114204000D03*
D23*
%TO.P,J2,2,Ext*%
%TO.N,GND*%
X141165500Y-108204000D03*
D24*
%TO.P,J2,3*%
%TO.N,N/C*%
X136465500Y-111204000D03*
%TD*%
D25*
%TO.P,Arduino ProMini,1,(PCINT17/TXD)PD1/1*%
%TO.N,unconnected-(IC1-Pad1)*%
X176530000Y-102616000D03*
%TO.P,Arduino ProMini,2,(PCINT16/RXD)PD0/0*%
%TO.N,unconnected-(IC1-Pad2)*%
X173990000Y-102616000D03*
%TO.P,Arduino ProMini,3,(PCINT14/~{RESET})PC6*%
%TO.N,unconnected-(IC1-Pad3)*%
X171450000Y-102616000D03*
%TO.P,Arduino ProMini,4,GND*%
%TO.N,GND*%
X168910000Y-102616000D03*
%TO.P,Arduino ProMini,5,(PCINT18/INT0)PD2/2*%
%TO.N,unconnected-(IC1-Pad5)*%
X166370000Y-102616000D03*
%TO.P,Arduino ProMini,6,(PCINT19/OC2B/INT1/PWM)PD3/3*%
%TO.N,Net-(IC1-Pad6)*%
X163830000Y-102616000D03*
%TO.P,Arduino ProMini,7,(PCINT20/XCK/T0)PD4/4*%
%TO.N,Net-(IC1-Pad7)*%
X161290000Y-102616000D03*
%TO.P,Arduino ProMini,8,(PCINT21/OC0B/T1/PWM)PD5/5*%
%TO.N,Net-(IC1-Pad8)*%
X158750000Y-102616000D03*
%TO.P,Arduino ProMini,9,(PCINT22/OC0A/AIN0/PWM)PD6/6*%
%TO.N,Net-(IC1-Pad9)*%
X156210000Y-102616000D03*
%TO.P,Arduino ProMini,10,(PCINT23/AIN1)PD7/7*%
%TO.N,Net-(IC1-Pad10)*%
X153670000Y-102616000D03*
%TO.P,Arduino ProMini,11,(PCINT0/CLKO/ICP1)PB0/8*%
%TO.N,Net-(IC1-Pad11)*%
X151130000Y-102616000D03*
%TO.P,Arduino ProMini,12,(PCINT1/OC1A/PWM)PB1/9*%
%TO.N,unconnected-(IC1-Pad12)*%
X148590000Y-102616000D03*
%TO.P,Arduino ProMini,13,(PCINT2/OC1B/~{SS}/PWM)PB2/10*%
%TO.N,unconnected-(IC1-Pad13)*%
X148590000Y-117856000D03*
%TO.P,Arduino ProMini,14,(PCINT3/OC2A/MOSI/PWM)PB3/11*%
%TO.N,unconnected-(IC1-Pad14)*%
X151130000Y-117856000D03*
%TO.P,Arduino ProMini,15,(PCINT4/MISO)PB4/12*%
%TO.N,unconnected-(IC1-Pad15)*%
X153670000Y-117856000D03*
%TO.P,Arduino ProMini,16,(PCINT5/SCK)PB5/13*%
%TO.N,unconnected-(IC1-Pad16)*%
X156210000Y-117856000D03*
%TO.P,Arduino ProMini,17,(PCINT8/ADC0)PC0/14/A0*%
%TO.N,Net-(IC1-Pad17)*%
X158750000Y-117856000D03*
%TO.P,Arduino ProMini,18,(PCINT9/ADC1)PC1/15/A1*%
%TO.N,unconnected-(IC1-Pad18)*%
X161290000Y-117856000D03*
%TO.P,Arduino ProMini,19,(PCINT10/ADC2)PC2/16/A2*%
%TO.N,unconnected-(IC1-Pad19)*%
X163830000Y-117856000D03*
%TO.P,Arduino ProMini,20,(PCINT11/ADC3)PC3/17/A3*%
%TO.N,unconnected-(IC1-Pad20)*%
X166370000Y-117856000D03*
%TO.P,Arduino ProMini,21,VCC*%
%TO.N,+5V*%
X168910000Y-117856000D03*
%TO.P,Arduino ProMini,22,(PCINT14/~{RESET})PC6*%
%TO.N,unconnected-(IC1-Pad22)*%
X171450000Y-117856000D03*
%TO.P,Arduino ProMini,23,GND*%
%TO.N,GND*%
X173990000Y-117856000D03*
%TO.P,Arduino ProMini,24,RAW*%
%TO.N,unconnected-(IC1-Pad24)*%
X176530000Y-117856000D03*
%TO.P,Arduino ProMini,25,(PCINT12/SDA/ADC4)PC4/18/A4*%
%TO.N,Net-(Brd1-Pad4)*%
X165100000Y-115316000D03*
%TO.P,Arduino ProMini,26,(PCINT13/SCL/ADC5)PC5/19/A5*%
%TO.N,Net-(Brd1-Pad3)*%
X167640000Y-115316000D03*
D26*
%TO.P,Arduino ProMini,27,ADC6/A6*%
%TO.N,unconnected-(IC1-Pad27)*%
X148590000Y-115316000D03*
D25*
X154940000Y-115316000D03*
%TO.P,Arduino ProMini,28,ADC7/A7*%
%TO.N,unconnected-(IC1-Pad28)*%
X157480000Y-115316000D03*
D26*
X148590000Y-112776000D03*
%TO.P,Arduino ProMini,29,GND*%
%TO.N,GND*%
X148590000Y-110236000D03*
%TD*%
D27*
%TO.P,Pot1,*%
%TO.N,*%
X137157000Y-147854000D03*
X137157000Y-157454000D03*
D28*
%TO.P,Pot1,1,1*%
%TO.N,GND*%
X129657000Y-150154000D03*
D29*
%TO.P,Pot1,2,2*%
%TO.N,Net-(IC1-Pad17)*%
X129657000Y-152654000D03*
%TO.P,Pot1,3,3*%
%TO.N,+5V*%
X129657000Y-155154000D03*
%TD*%
D30*
%TO.P,U1,1,Vin+*%
%TO.N,+12V*%
X154950000Y-125050000D03*
D31*
%TO.P,U1,2,GND*%
%TO.N,GND*%
X152410000Y-125050000D03*
%TO.P,U1,3,Vo+*%
%TO.N,+5V*%
X149870000Y-125050000D03*
%TD*%
D32*
%TO.N,Net-(IC1-Pad6)*%
X152467100Y-106525300D03*
%TD*%
D33*
%TO.N,Net-(IC1-Pad6)*%
X122871400Y-103614900D02*
X120314300Y-106172000D01*
X147146800Y-103614900D02*
X122871400Y-103614900D01*
X150057200Y-106525300D02*
X147146800Y-103614900D01*
X152467100Y-106525300D02*
X150057200Y-106525300D01*
X118364000Y-106172000D02*
X120314300Y-106172000D01*
D34*
%TO.N,+12V*%
X154950000Y-125050000D02*
X154950000Y-122699700D01*
X130516000Y-106164000D02*
X133166300Y-106164000D01*
X144265800Y-116915400D02*
X144265800Y-114204000D01*
X150050100Y-122699700D02*
X144265800Y-116915400D01*
X154950000Y-122699700D02*
X150050100Y-122699700D01*
X134022800Y-105307500D02*
X133166300Y-106164000D01*
X143034100Y-105307500D02*
X134022800Y-105307500D01*
X144310500Y-106583900D02*
X143034100Y-105307500D01*
X144310500Y-114159300D02*
X144310500Y-106583900D01*
X144265800Y-114204000D02*
X144310500Y-114159300D01*
X141371700Y-114204000D02*
X144265800Y-114204000D01*
X141371700Y-114204000D02*
X141165500Y-114204000D01*
X140782100Y-117687700D02*
X140213000Y-117687700D01*
X141165500Y-117304300D02*
X140782100Y-117687700D01*
X141165500Y-114204000D02*
X141165500Y-117304300D01*
X140213000Y-119888000D02*
X140213000Y-117687700D01*
D33*
%TO.N,Net-(IC1-Pad17)*%
X158750000Y-129391400D02*
X158750000Y-117856000D01*
X135487400Y-152654000D02*
X158750000Y-129391400D01*
X129657000Y-152654000D02*
X135487400Y-152654000D01*
%TO.N,Net-(IC1-Pad11)*%
X160937600Y-143002000D02*
X156972000Y-143002000D01*
X179884900Y-124054700D02*
X160937600Y-143002000D01*
X179884900Y-116141200D02*
X179884900Y-124054700D01*
X174476700Y-110733000D02*
X179884900Y-116141200D01*
X159247000Y-110733000D02*
X174476700Y-110733000D01*
X151130000Y-102616000D02*
X159247000Y-110733000D01*
%TO.N,Net-(IC1-Pad10)*%
X116401900Y-111021600D02*
X138102000Y-132721700D01*
X116401900Y-104598400D02*
X116401900Y-111021600D01*
X120141100Y-100859200D02*
X116401900Y-104598400D01*
X151913200Y-100859200D02*
X120141100Y-100859200D01*
X153670000Y-102616000D02*
X151913200Y-100859200D01*
X138102000Y-134222000D02*
X138102000Y-132721700D01*
%TO.N,Net-(Brd1-Pad4)*%
X178923400Y-122706600D02*
X178198000Y-123432000D01*
X178923400Y-116531300D02*
X178923400Y-122706600D01*
X175905200Y-113513100D02*
X178923400Y-116531300D01*
X166902900Y-113513100D02*
X175905200Y-113513100D01*
X165100000Y-115316000D02*
X166902900Y-113513100D01*
%TO.N,Net-(Brd1-Pad3)*%
X177939500Y-121150500D02*
X175658000Y-123432000D01*
X177939500Y-116929800D02*
X177939500Y-121150500D01*
X176325700Y-115316000D02*
X177939500Y-116929800D01*
X167640000Y-115316000D02*
X176325700Y-115316000D01*
D34*
%TO.N,+5V*%
X116726400Y-153355600D02*
X114126000Y-155956000D01*
X127165800Y-153355600D02*
X116726400Y-153355600D01*
X128964200Y-155154000D02*
X127165800Y-153355600D01*
X129657000Y-155154000D02*
X128964200Y-155154000D01*
X173118000Y-123432000D02*
X173118000Y-121081700D01*
X168910000Y-117856000D02*
X168910000Y-120306200D01*
X156972000Y-133795200D02*
X169685500Y-121081700D01*
X156972000Y-135382000D02*
X156972000Y-133795200D01*
X173118000Y-121081700D02*
X169685500Y-121081700D01*
X169685500Y-121081700D02*
X168910000Y-120306200D01*
%TD*%
%TA.AperFunction,Conductor*%
%TO.N,GND*%
G36*
X119036840Y-100604002D02*
G01*
X119083333Y-100657658D01*
X119093437Y-100727932D01*
X119063943Y-100792512D01*
X119057815Y-100799094D01*
X117418020Y-102438888D01*
X115836742Y-104020166D01*
X115835805Y-104021094D01*
X115780451Y-104075301D01*
X115771393Y-104084171D01*
X115747902Y-104120621D01*
X115740483Y-104130946D01*
X115713424Y-104164843D01*
X115710359Y-104171184D01*
X115710358Y-104171185D01*
X115698828Y-104195037D01*
X115691299Y-104208454D01*
X115673135Y-104236638D01*
X115670727Y-104243255D01*
X115670724Y-104243260D01*
X115658308Y-104277373D01*
X115653347Y-104289116D01*
X115637546Y-104321803D01*
X115637544Y-104321808D01*
X115634479Y-104328149D01*
X115632896Y-104335007D01*
X115632895Y-104335009D01*
X115626935Y-104360826D01*
X115622568Y-104375569D01*
X115611097Y-104407085D01*
X115610214Y-104414075D01*
X115610212Y-104414083D01*
X115605662Y-104450101D01*
X115603426Y-104462653D01*
X115597222Y-104489528D01*
X115593676Y-104504885D01*
X115593651Y-104511931D01*
X115593651Y-104511934D01*
X115593534Y-104545456D01*
X115593505Y-104546338D01*
X115593400Y-104547169D01*
X115593400Y-104583819D01*
X115593399Y-104584259D01*
X115593177Y-104648000D01*
X115593043Y-104686270D01*
X115593311Y-104687470D01*
X115593400Y-104689107D01*
X115593400Y-111012386D01*
X115593393Y-111013706D01*
X115592449Y-111103821D01*
X115601611Y-111146197D01*
X115603669Y-111158763D01*
X115608503Y-111201855D01*
X115610819Y-111208506D01*
X115610820Y-111208510D01*
X115619533Y-111233530D01*
X115623696Y-111248342D01*
X115630781Y-111281110D01*
X115649108Y-111320413D01*
X115653890Y-111332189D01*
X115668155Y-111373152D01*
X115671889Y-111379127D01*
X115671890Y-111379130D01*
X115685927Y-111401595D01*
X115693266Y-111415112D01*
X115704459Y-111439114D01*
X115707438Y-111445502D01*
X115711755Y-111451067D01*
X115711756Y-111451069D01*
X115734006Y-111479753D01*
X115741302Y-111490212D01*
X115757997Y-111516930D01*
X115764274Y-111526976D01*
X115769234Y-111531971D01*
X115769235Y-111531972D01*
X115792876Y-111555779D01*
X115793461Y-111556404D01*
X115793978Y-111557070D01*
X115819968Y-111583060D01*
X115892085Y-111655682D01*
X115893122Y-111656340D01*
X115894351Y-111657443D01*
X137232843Y-132995934D01*
X137266869Y-133058246D01*
X137261804Y-133129061D01*
X137219400Y-133185790D01*
X137201103Y-133199527D01*
X137201095Y-133199534D01*
X137196965Y-133202635D01*
X137042629Y-133364138D01*
X136916743Y-133548680D01*
X136822688Y-133751305D01*
X136762989Y-133966570D01*
X136739251Y-134188695D01*
X136739548Y-134193848D01*
X136739548Y-134193851D01*
X136751812Y-134406547D01*
X136752110Y-134411715D01*
X136753247Y-134416761D01*
X136753248Y-134416767D01*
X136753986Y-134420041D01*
X136801222Y-134629639D01*
X136885266Y-134836616D01*
X137001987Y-135027088D01*
X137148250Y-135195938D01*
X137320126Y-135338632D01*
X137393955Y-135381774D01*
X137442679Y-135433412D01*
X137455750Y-135503195D01*
X137429019Y-135568967D01*
X137388562Y-135602327D01*
X137380457Y-135606546D01*
X137371738Y-135612036D01*
X137201433Y-135739905D01*
X137193726Y-135746748D01*
X137046590Y-135900717D01*
X137040104Y-135908727D01*
X136920098Y-136084649D01*
X136915000Y-136093623D01*
X136825338Y-136286783D01*
X136821775Y-136296470D01*
X136766389Y-136496183D01*
X136767912Y-136504607D01*
X136780292Y-136508000D01*
X139420344Y-136508000D01*
X139433875Y-136504027D01*
X139435180Y-136494947D01*
X139393214Y-136327875D01*
X139389894Y-136318124D01*
X139322880Y-136164000D01*
X146006502Y-136164000D01*
X146026457Y-136392087D01*
X146027881Y-136397400D01*
X146027881Y-136397402D01*
X146071840Y-136561456D01*
X146085716Y-136613243D01*
X146088039Y-136618224D01*
X146088039Y-136618225D01*
X146180151Y-136815762D01*
X146180154Y-136815767D01*
X146182477Y-136820749D01*
X146313802Y-137008300D01*
X146475700Y-137170198D01*
X146480208Y-137173355D01*
X146480211Y-137173357D01*
X146583876Y-137245944D01*
X146663251Y-137301523D01*
X146668235Y-137303847D01*
X146670528Y-137305171D01*
X146719521Y-137356553D01*
X146732957Y-137426267D01*
X146706571Y-137492178D01*
X146670528Y-137523409D01*
X146658998Y-137530066D01*
X146606952Y-137566509D01*
X146598576Y-137576988D01*
X146605644Y-137590434D01*
X147307188Y-138291978D01*
X147321132Y-138299592D01*
X147322965Y-138299461D01*
X147329580Y-138295210D01*
X148035077Y-137589713D01*
X148041507Y-137577938D01*
X148032211Y-137565923D01*
X147981002Y-137530066D01*
X147969472Y-137523409D01*
X147920479Y-137472027D01*
X147907042Y-137402313D01*
X147933429Y-137336402D01*
X147969472Y-137305171D01*
X147971765Y-137303847D01*
X147976749Y-137301523D01*
X148056124Y-137245944D01*
X148159789Y-137173357D01*
X148159792Y-137173355D01*
X148164300Y-137170198D01*
X148326198Y-137008300D01*
X148457523Y-136820749D01*
X148459846Y-136815767D01*
X148459849Y-136815762D01*
X148551961Y-136618225D01*
X148551961Y-136618224D01*
X148554284Y-136613243D01*
X148568161Y-136561456D01*
X148612119Y-136397402D01*
X148612119Y-136397400D01*
X148613543Y-136392087D01*
X148633498Y-136164000D01*
X148613543Y-135935913D01*
X148611090Y-135926757D01*
X148555707Y-135720067D01*
X148555706Y-135720065D01*
X148554284Y-135714757D01*
X148514865Y-135630222D01*
X148459849Y-135512238D01*
X148459846Y-135512233D01*
X148457523Y-135507251D01*
X148341282Y-135341242D01*
X148329357Y-135324211D01*
X148329355Y-135324208D01*
X148326198Y-135319700D01*
X148164300Y-135157802D01*
X148159792Y-135154645D01*
X148159789Y-135154643D01*
X147983194Y-135030990D01*
X147976749Y-135026477D01*
X147971767Y-135024154D01*
X147971762Y-135024151D01*
X147774225Y-134932039D01*
X147774224Y-134932039D01*
X147769243Y-134929716D01*
X147763935Y-134928294D01*
X147763933Y-134928293D01*
X147553402Y-134871881D01*
X147553400Y-134871881D01*
X147548087Y-134870457D01*
X147320000Y-134850502D01*
X147091913Y-134870457D01*
X147086600Y-134871881D01*
X147086598Y-134871881D01*
X146876067Y-134928293D01*
X146876065Y-134928294D01*
X146870757Y-134929716D01*
X146865776Y-134932039D01*
X146865775Y-134932039D01*
X146668238Y-135024151D01*
X146668233Y-135024154D01*
X146663251Y-135026477D01*
X146656806Y-135030990D01*
X146480211Y-135154643D01*
X146480208Y-135154645D01*
X146475700Y-135157802D01*
X146313802Y-135319700D01*
X146310645Y-135324208D01*
X146310643Y-135324211D01*
X146298718Y-135341242D01*
X146182477Y-135507251D01*
X146180154Y-135512233D01*
X146180151Y-135512238D01*
X146125135Y-135630222D01*
X146085716Y-135714757D01*
X146084294Y-135720065D01*
X146084293Y-135720067D01*
X146028910Y-135926757D01*
X146026457Y-135935913D01*
X146006502Y-136164000D01*
X139322880Y-136164000D01*
X139304972Y-136122814D01*
X139300105Y-136113739D01*
X139184426Y-135934926D01*
X139178136Y-135926757D01*
X139034806Y-135769240D01*
X139027273Y-135762215D01*
X138860139Y-135630222D01*
X138851556Y-135624520D01*
X138814602Y-135604120D01*
X138764631Y-135553687D01*
X138749859Y-135484245D01*
X138774975Y-135417839D01*
X138802327Y-135391232D01*
X138825797Y-135374491D01*
X138981860Y-135263173D01*
X139140096Y-135105489D01*
X139199594Y-135022689D01*
X139267435Y-134928277D01*
X139270453Y-134924077D01*
X139296954Y-134870457D01*
X139367136Y-134728453D01*
X139367137Y-134728451D01*
X139369430Y-134723811D01*
X139434370Y-134510069D01*
X139463529Y-134288590D01*
X139465156Y-134222000D01*
X139446852Y-133999361D01*
X139392431Y-133782702D01*
X139303354Y-133577840D01*
X139182014Y-133390277D01*
X139031670Y-133225051D01*
X139027625Y-133221857D01*
X139027616Y-133221848D01*
X138958408Y-133167191D01*
X138917345Y-133109274D01*
X138910500Y-133068309D01*
X138910500Y-132730914D01*
X138910507Y-132729594D01*
X138911377Y-132646526D01*
X138911451Y-132639479D01*
X138902289Y-132597103D01*
X138900230Y-132584532D01*
X138896182Y-132548444D01*
X138895397Y-132541445D01*
X138884367Y-132509770D01*
X138880204Y-132494958D01*
X138874609Y-132469081D01*
X138873119Y-132462190D01*
X138854792Y-132422887D01*
X138850010Y-132411111D01*
X138835745Y-132370148D01*
X138832010Y-132364170D01*
X138817973Y-132341705D01*
X138810634Y-132328188D01*
X138799441Y-132304186D01*
X138799440Y-132304185D01*
X138796462Y-132297798D01*
X138769894Y-132263547D01*
X138762598Y-132253088D01*
X138743358Y-132222296D01*
X138743356Y-132222293D01*
X138739626Y-132216324D01*
X138711024Y-132187521D01*
X138710439Y-132186896D01*
X138709922Y-132186230D01*
X138683932Y-132160240D01*
X138611815Y-132087618D01*
X138610778Y-132086960D01*
X138609549Y-132085857D01*
X132425787Y-125902095D01*
X132391761Y-125839783D01*
X132396826Y-125768968D01*
X132439373Y-125712132D01*
X132505893Y-125687321D01*
X132514882Y-125687000D01*
X133248669Y-125686999D01*
X133255490Y-125686629D01*
X133306352Y-125681105D01*
X133321604Y-125677479D01*
X133442054Y-125632324D01*
X133457649Y-125623786D01*
X133559724Y-125547285D01*
X133572285Y-125534724D01*
X133648786Y-125432649D01*
X133657324Y-125417054D01*
X133702478Y-125296606D01*
X133706105Y-125281351D01*
X133711631Y-125230486D01*
X133712000Y-125223672D01*
X133712000Y-124601115D01*
X133707525Y-124585876D01*
X133706135Y-124584671D01*
X133698452Y-124583000D01*
X132226000Y-124583000D01*
X132157879Y-124562998D01*
X132111386Y-124509342D01*
X132100000Y-124457000D01*
X132100000Y-124201000D01*
X132120002Y-124132879D01*
X132173658Y-124086386D01*
X132226000Y-124075000D01*
X133693884Y-124075000D01*
X133709123Y-124070525D01*
X133710328Y-124069135D01*
X133711999Y-124061452D01*
X133711999Y-123434331D01*
X133711629Y-123427510D01*
X133706105Y-123376648D01*
X133702479Y-123361396D01*
X133657324Y-123240946D01*
X133648786Y-123225351D01*
X133572285Y-123123276D01*
X133559724Y-123110715D01*
X133457649Y-123034214D01*
X133442054Y-123025676D01*
X133331813Y-122984348D01*
X133275049Y-122941706D01*
X133250349Y-122875145D01*
X133265557Y-122805796D01*
X133287104Y-122777115D01*
X133388430Y-122676144D01*
X133388440Y-122676132D01*
X133392096Y-122672489D01*
X133451594Y-122589689D01*
X133519435Y-122495277D01*
X133522453Y-122491077D01*
X133562143Y-122410771D01*
X133619136Y-122295453D01*
X133619137Y-122295451D01*
X133621430Y-122290811D01*
X133681788Y-122092151D01*
X133684865Y-122082023D01*
X133684865Y-122082021D01*
X133686370Y-122077069D01*
X133715529Y-121855590D01*
X133717156Y-121789000D01*
X133698852Y-121566361D01*
X133644431Y-121349702D01*
X133555354Y-121144840D01*
X133488130Y-121040928D01*
X133436822Y-120961617D01*
X133436820Y-120961614D01*
X133434014Y-120957277D01*
X133283670Y-120792051D01*
X133279619Y-120788852D01*
X133279615Y-120788848D01*
X133112414Y-120656800D01*
X133112410Y-120656798D01*
X133108359Y-120653598D01*
X133067053Y-120630796D01*
X133017084Y-120580364D01*
X133002312Y-120510921D01*
X133027428Y-120444516D01*
X133054780Y-120417909D01*
X133107436Y-120380350D01*
X133233860Y-120290173D01*
X133392096Y-120132489D01*
X133451594Y-120049689D01*
X133519435Y-119955277D01*
X133522453Y-119951077D01*
X133576277Y-119842173D01*
X133619136Y-119755453D01*
X133619137Y-119755451D01*
X133621430Y-119750811D01*
X133686370Y-119537069D01*
X133715529Y-119315590D01*
X133716579Y-119272615D01*
X133717074Y-119252365D01*
X133717074Y-119252361D01*
X133717156Y-119249000D01*
X133698852Y-119026361D01*
X133644431Y-118809702D01*
X133555354Y-118604840D01*
X133506407Y-118529179D01*
X133436822Y-118421617D01*
X133436820Y-118421614D01*
X133434014Y-118417277D01*
X133283670Y-118252051D01*
X133279619Y-118248852D01*
X133279615Y-118248848D01*
X133112414Y-118116800D01*
X133112410Y-118116798D01*
X133108359Y-118113598D01*
X133067053Y-118090796D01*
X133017084Y-118040364D01*
X133002312Y-117970921D01*
X133027428Y-117904516D01*
X133054780Y-117877909D01*
X133122326Y-117829729D01*
X133233860Y-117750173D01*
X133248622Y-117735463D01*
X133381296Y-117603251D01*
X133392096Y-117592489D01*
X133446674Y-117516536D01*
X133519435Y-117415277D01*
X133522453Y-117411077D01*
X133525457Y-117405000D01*
X133619136Y-117215453D01*
X133619137Y-117215451D01*
X133621430Y-117210811D01*
X133686370Y-116997069D01*
X133715529Y-116775590D01*
X133715638Y-116771138D01*
X133717074Y-116712365D01*
X133717074Y-116712361D01*
X133717156Y-116709000D01*
X133698852Y-116486361D01*
X133644431Y-116269702D01*
X133555354Y-116064840D01*
X133462945Y-115921997D01*
X133436822Y-115881617D01*
X133436820Y-115881614D01*
X133434014Y-115877277D01*
X133283670Y-115712051D01*
X133279619Y-115708852D01*
X133279615Y-115708848D01*
X133112414Y-115576800D01*
X133112410Y-115576798D01*
X133108359Y-115573598D01*
X133067053Y-115550796D01*
X133017084Y-115500364D01*
X133002312Y-115430921D01*
X133027428Y-115364516D01*
X133054780Y-115337909D01*
X133098603Y-115306650D01*
X133233860Y-115210173D01*
X133243746Y-115200322D01*
X133388435Y-115056137D01*
X133392096Y-115052489D01*
X133451594Y-114969689D01*
X133519435Y-114875277D01*
X133522453Y-114871077D01*
X133541092Y-114833365D01*
X133619136Y-114675453D01*
X133619137Y-114675451D01*
X133621430Y-114670811D01*
X133667117Y-114520439D01*
X133684865Y-114462023D01*
X133684865Y-114462021D01*
X133686370Y-114457069D01*
X133715529Y-114235590D01*
X133716223Y-114207190D01*
X133717074Y-114172365D01*
X133717074Y-114172361D01*
X133717156Y-114169000D01*
X133698852Y-113946361D01*
X133644431Y-113729702D01*
X133555354Y-113524840D01*
X133464896Y-113385013D01*
X133436822Y-113341617D01*
X133436820Y-113341614D01*
X133434014Y-113337277D01*
X133283670Y-113172051D01*
X133279619Y-113168852D01*
X133279615Y-113168848D01*
X133112414Y-113036800D01*
X133112410Y-113036798D01*
X133108359Y-113033598D01*
X132912789Y-112925638D01*
X132907920Y-112923914D01*
X132907916Y-112923912D01*
X132707087Y-112852795D01*
X132707083Y-112852794D01*
X132702212Y-112851069D01*
X132697119Y-112850162D01*
X132697116Y-112850161D01*
X132487373Y-112812800D01*
X132487367Y-112812799D01*
X132482284Y-112811894D01*
X132408452Y-112810992D01*
X132264081Y-112809228D01*
X132264079Y-112809228D01*
X132258911Y-112809165D01*
X132038091Y-112842955D01*
X131825756Y-112912357D01*
X131627607Y-113015507D01*
X131623474Y-113018610D01*
X131623471Y-113018612D01*
X131453100Y-113146530D01*
X131448965Y-113149635D01*
X131294629Y-113311138D01*
X131168743Y-113495680D01*
X131074688Y-113698305D01*
X131014989Y-113913570D01*
X130991251Y-114135695D01*
X130991548Y-114140848D01*
X130991548Y-114140851D01*
X131001802Y-114318688D01*
X131004110Y-114358715D01*
X131005247Y-114363761D01*
X131005248Y-114363767D01*
X131025084Y-114451782D01*
X131053222Y-114576639D01*
X131137266Y-114783616D01*
X131167752Y-114833365D01*
X131216421Y-114912785D01*
X131253987Y-114974088D01*
X131400250Y-115142938D01*
X131476846Y-115206529D01*
X131567630Y-115281899D01*
X131572126Y-115285632D01*
X131642595Y-115326811D01*
X131645445Y-115328476D01*
X131694169Y-115380114D01*
X131707240Y-115449897D01*
X131680509Y-115515669D01*
X131640055Y-115549027D01*
X131627607Y-115555507D01*
X131623474Y-115558610D01*
X131623471Y-115558612D01*
X131464456Y-115678004D01*
X131448965Y-115689635D01*
X131445393Y-115693373D01*
X131329094Y-115815073D01*
X131294629Y-115851138D01*
X131168743Y-116035680D01*
X131154657Y-116066026D01*
X131081574Y-116223471D01*
X131074688Y-116238305D01*
X131014989Y-116453570D01*
X130991251Y-116675695D01*
X130991548Y-116680848D01*
X130991548Y-116680851D01*
X131001483Y-116853149D01*
X131004110Y-116898715D01*
X131005247Y-116903761D01*
X131005248Y-116903767D01*
X131029304Y-117010508D01*
X131053222Y-117116639D01*
X131109677Y-117255672D01*
X131132278Y-117311331D01*
X131137266Y-117323616D01*
X131179849Y-117393106D01*
X131244141Y-117498020D01*
X131253987Y-117514088D01*
X131400250Y-117682938D01*
X131572126Y-117825632D01*
X131584357Y-117832779D01*
X131645445Y-117868476D01*
X131694169Y-117920114D01*
X131707240Y-117989897D01*
X131680509Y-118055669D01*
X131640055Y-118089027D01*
X131627607Y-118095507D01*
X131623474Y-118098610D01*
X131623471Y-118098612D01*
X131453100Y-118226530D01*
X131448965Y-118229635D01*
X131294629Y-118391138D01*
X131168743Y-118575680D01*
X131153003Y-118609590D01*
X131108403Y-118705673D01*
X131074688Y-118778305D01*
X131014989Y-118993570D01*
X130991251Y-119215695D01*
X130991548Y-119220848D01*
X130991548Y-119220851D01*
X131002073Y-119403380D01*
X131004110Y-119438715D01*
X131005247Y-119443761D01*
X131005248Y-119443767D01*
X131013052Y-119478395D01*
X131053222Y-119656639D01*
X131137266Y-119863616D01*
X131253987Y-120054088D01*
X131400250Y-120222938D01*
X131572126Y-120365632D01*
X131590319Y-120376263D01*
X131645445Y-120408476D01*
X131694169Y-120460114D01*
X131707240Y-120529897D01*
X131680509Y-120595669D01*
X131640055Y-120629027D01*
X131627607Y-120635507D01*
X131623474Y-120638610D01*
X131623471Y-120638612D01*
X131453100Y-120766530D01*
X131448965Y-120769635D01*
X131294629Y-120931138D01*
X131291715Y-120935410D01*
X131291714Y-120935411D01*
X131263824Y-120976297D01*
X131168743Y-121115680D01*
X131131610Y-121195677D01*
X131079534Y-121307866D01*
X131074688Y-121318305D01*
X131014989Y-121533570D01*
X130991251Y-121755695D01*
X130991548Y-121760848D01*
X130991548Y-121760851D01*
X130997011Y-121855590D01*
X131004110Y-121978715D01*
X131005247Y-121983761D01*
X131005248Y-121983767D01*
X131025119Y-122071939D01*
X131053222Y-122196639D01*
X131137266Y-122403616D01*
X131139965Y-122408020D01*
X131227142Y-122550280D01*
X131253987Y-122594088D01*
X131400250Y-122762938D01*
X131404225Y-122766238D01*
X131404231Y-122766244D01*
X131409425Y-122770556D01*
X131449059Y-122829460D01*
X131450555Y-122900441D01*
X131413439Y-122960962D01*
X131373168Y-122985480D01*
X131265946Y-123025676D01*
X131250351Y-123034214D01*
X131148276Y-123110715D01*
X131135715Y-123123276D01*
X131059214Y-123225351D01*
X131050676Y-123240946D01*
X131005522Y-123361394D01*
X131001895Y-123376649D01*
X130996369Y-123427514D01*
X130996000Y-123434328D01*
X130996001Y-124168119D01*
X130975999Y-124236240D01*
X130922343Y-124282733D01*
X130852069Y-124292837D01*
X130787489Y-124263344D01*
X130780906Y-124257214D01*
X117247305Y-110723613D01*
X117213279Y-110661301D01*
X117210400Y-110634518D01*
X117210400Y-108106500D01*
X117230402Y-108038379D01*
X117284058Y-107991886D01*
X117336400Y-107980500D01*
X119712134Y-107980500D01*
X119774316Y-107973745D01*
X119910705Y-107922615D01*
X120027261Y-107835261D01*
X120114615Y-107718705D01*
X120155777Y-107608906D01*
X124435839Y-107608906D01*
X124444553Y-107620427D01*
X124551452Y-107698809D01*
X124559351Y-107703745D01*
X124788905Y-107824519D01*
X124797454Y-107828236D01*
X125042327Y-107913749D01*
X125051336Y-107916163D01*
X125306166Y-107964544D01*
X125315423Y-107965598D01*
X125574607Y-107975783D01*
X125583921Y-107975457D01*
X125841753Y-107947220D01*
X125850930Y-107945519D01*
X126101758Y-107879481D01*
X126110574Y-107876445D01*
X126348880Y-107774062D01*
X126357167Y-107769748D01*
X126577718Y-107633266D01*
X126585268Y-107627780D01*
X126590559Y-107623301D01*
X126598997Y-107610497D01*
X126592935Y-107600145D01*
X125528812Y-106536022D01*
X125514868Y-106528408D01*
X125513035Y-106528539D01*
X125506420Y-106532790D01*
X124442497Y-107596713D01*
X124435839Y-107608906D01*
X120155777Y-107608906D01*
X120165745Y-107582316D01*
X120172500Y-107520134D01*
X120172500Y-107106500D01*
X120192502Y-107038379D01*
X120246158Y-106991886D01*
X120298500Y-106980500D01*
X120305086Y-106980500D01*
X120306406Y-106980507D01*
X120396521Y-106981451D01*
X120438897Y-106972289D01*
X120451463Y-106970231D01*
X120494555Y-106965397D01*
X120501206Y-106963081D01*
X120501210Y-106963080D01*
X120526230Y-106954367D01*
X120541042Y-106950204D01*
X120566919Y-106944609D01*
X120573810Y-106943119D01*
X120613113Y-106924792D01*
X120624889Y-106920010D01*
X120665852Y-106905745D01*
X120671827Y-106902011D01*
X120671830Y-106902010D01*
X120694295Y-106887973D01*
X120707812Y-106880634D01*
X120731814Y-106869441D01*
X120731815Y-106869440D01*
X120738202Y-106866462D01*
X120755680Y-106852905D01*
X120772453Y-106839894D01*
X120782912Y-106832598D01*
X120813704Y-106813358D01*
X120813707Y-106813356D01*
X120819676Y-106809626D01*
X120848479Y-106781024D01*
X120849104Y-106780439D01*
X120849770Y-106779922D01*
X120875759Y-106753933D01*
X120948382Y-106681815D01*
X120949040Y-106680778D01*
X120950143Y-106679549D01*
X121508481Y-106121211D01*
X123703775Y-106121211D01*
X123716220Y-106380288D01*
X123717356Y-106389543D01*
X123767961Y-106643945D01*
X123770449Y-106652917D01*
X123858095Y-106897033D01*
X123861895Y-106905568D01*
X123984658Y-107134042D01*
X123989666Y-107141904D01*
X124059720Y-107235716D01*
X124070979Y-107244165D01*
X124083397Y-107237393D01*
X125143978Y-106176812D01*
X125150356Y-106165132D01*
X125880408Y-106165132D01*
X125880539Y-106166965D01*
X125884790Y-106173580D01*
X126952094Y-107240884D01*
X126964474Y-107247644D01*
X126972815Y-107241400D01*
X127106832Y-107033048D01*
X127111275Y-107024864D01*
X127217807Y-106788370D01*
X127220997Y-106779605D01*
X127291402Y-106529972D01*
X127293262Y-106520830D01*
X127326187Y-106262019D01*
X127326668Y-106255733D01*
X127328987Y-106167160D01*
X127328836Y-106160851D01*
X127309501Y-105900663D01*
X127308125Y-105891457D01*
X127250878Y-105638467D01*
X127248154Y-105629556D01*
X127154143Y-105387806D01*
X127150132Y-105379397D01*
X127021422Y-105154202D01*
X127016211Y-105146476D01*
X126972996Y-105091658D01*
X126961071Y-105083187D01*
X126949537Y-105089673D01*
X125888022Y-106151188D01*
X125880408Y-106165132D01*
X125150356Y-106165132D01*
X125151592Y-106162868D01*
X125151461Y-106161035D01*
X125147210Y-106154420D01*
X124081816Y-105089026D01*
X124068507Y-105081758D01*
X124058472Y-105088878D01*
X124042937Y-105107556D01*
X124037531Y-105115135D01*
X123902965Y-105336891D01*
X123898736Y-105345192D01*
X123798432Y-105584389D01*
X123795471Y-105593239D01*
X123731628Y-105844625D01*
X123730006Y-105853822D01*
X123704020Y-106111885D01*
X123703775Y-106121211D01*
X121508481Y-106121211D01*
X122048181Y-105581511D01*
X123169386Y-104460305D01*
X123231698Y-104426280D01*
X123258481Y-104423400D01*
X124451210Y-104423400D01*
X124519331Y-104443402D01*
X124565824Y-104497058D01*
X124575928Y-104567332D01*
X124546434Y-104631912D01*
X124520295Y-104654772D01*
X124442240Y-104705947D01*
X124433102Y-104716689D01*
X124437675Y-104726465D01*
X125503188Y-105791978D01*
X125517132Y-105799592D01*
X125518965Y-105799461D01*
X125525580Y-105795210D01*
X126590349Y-104730441D01*
X126596733Y-104718751D01*
X126587321Y-104706641D01*
X126509894Y-104652927D01*
X126465324Y-104597664D01*
X126457707Y-104527077D01*
X126489461Y-104463578D01*
X126550505Y-104427326D01*
X126581714Y-104423400D01*
X128660360Y-104423400D01*
X128728481Y-104443402D01*
X128774974Y-104497058D01*
X128785078Y-104567332D01*
X128770879Y-104609911D01*
X128770771Y-104610109D01*
X128765385Y-104617295D01*
X128714255Y-104753684D01*
X128707500Y-104815866D01*
X128707500Y-107512134D01*
X128714255Y-107574316D01*
X128765385Y-107710705D01*
X128852739Y-107827261D01*
X128969295Y-107914615D01*
X129105684Y-107965745D01*
X129167866Y-107972500D01*
X131864134Y-107972500D01*
X131926316Y-107965745D01*
X132062705Y-107914615D01*
X132179261Y-107827261D01*
X132257449Y-107722935D01*
X132314308Y-107680420D01*
X132358275Y-107672500D01*
X133142284Y-107672500D01*
X133145802Y-107672549D01*
X133240450Y-107675193D01*
X133240453Y-107675193D01*
X133245505Y-107675334D01*
X133323398Y-107664941D01*
X133329939Y-107664242D01*
X133358632Y-107661933D01*
X133403223Y-107658346D01*
X133403227Y-107658345D01*
X133408265Y-107657940D01*
X133440178Y-107650101D01*
X133453558Y-107647574D01*
X133486120Y-107643229D01*
X133490961Y-107641768D01*
X133490963Y-107641767D01*
X133561329Y-107620522D01*
X133567692Y-107618781D01*
X133601419Y-107610497D01*
X133644006Y-107600037D01*
X133674252Y-107587199D01*
X133687063Y-107582561D01*
X133718508Y-107573067D01*
X133723056Y-107570849D01*
X133723063Y-107570846D01*
X133789118Y-107538629D01*
X133795120Y-107535893D01*
X133859142Y-107508717D01*
X133867456Y-107505188D01*
X133891768Y-107489877D01*
X133895256Y-107487681D01*
X133907160Y-107481055D01*
X133936688Y-107466654D01*
X134000900Y-107421357D01*
X134006386Y-107417699D01*
X134068586Y-107378529D01*
X134068587Y-107378528D01*
X134072867Y-107375833D01*
X134076656Y-107372492D01*
X134076662Y-107372488D01*
X134097517Y-107354102D01*
X134108212Y-107345656D01*
X134118084Y-107338692D01*
X134135047Y-107326726D01*
X134143395Y-107319103D01*
X134155487Y-107308062D01*
X134155495Y-107308054D01*
X134156550Y-107307091D01*
X134196266Y-107267375D01*
X134202036Y-107261956D01*
X134251158Y-107218650D01*
X134251161Y-107218647D01*
X134254955Y-107215302D01*
X134281479Y-107183011D01*
X134289749Y-107173892D01*
X134610736Y-106852905D01*
X134673048Y-106818879D01*
X134699831Y-106816000D01*
X138877663Y-106816000D01*
X138945784Y-106836002D01*
X138992277Y-106889658D01*
X139002381Y-106959932D01*
X138992226Y-106994453D01*
X138977201Y-107027269D01*
X138973467Y-107037815D01*
X138920353Y-107244679D01*
X138918582Y-107255234D01*
X138907707Y-107388930D01*
X138907500Y-107394036D01*
X138907500Y-107931885D01*
X138911975Y-107947124D01*
X138913365Y-107948329D01*
X138921048Y-107950000D01*
X141293500Y-107950000D01*
X141361621Y-107970002D01*
X141408114Y-108023658D01*
X141419500Y-108076000D01*
X141419500Y-110193884D01*
X141423975Y-110209123D01*
X141425365Y-110210328D01*
X141433048Y-110211999D01*
X142225461Y-110211999D01*
X142230571Y-110211791D01*
X142364267Y-110200918D01*
X142374820Y-110199148D01*
X142581685Y-110146033D01*
X142592235Y-110142297D01*
X142623548Y-110127961D01*
X142693812Y-110117789D01*
X142758421Y-110147221D01*
X142796862Y-110206910D01*
X142802000Y-110242524D01*
X142802000Y-111819500D01*
X142781998Y-111887621D01*
X142728342Y-111934114D01*
X142676000Y-111945500D01*
X139367366Y-111945500D01*
X139305184Y-111952255D01*
X139168795Y-112003385D01*
X139052239Y-112090739D01*
X138964885Y-112207295D01*
X138961736Y-112215696D01*
X138960519Y-112217918D01*
X138910260Y-112268064D01*
X138840869Y-112283077D01*
X138774377Y-112258191D01*
X138731895Y-112201307D01*
X138724000Y-112157408D01*
X138724000Y-110236636D01*
X138722655Y-110211791D01*
X138721117Y-110183401D01*
X138720881Y-110179043D01*
X138679793Y-109968646D01*
X138676902Y-109953840D01*
X138676902Y-109953839D01*
X138675880Y-109948607D01*
X138592696Y-109729048D01*
X138495599Y-109563880D01*
X138476417Y-109531250D01*
X138476415Y-109531248D01*
X138473709Y-109526644D01*
X138322319Y-109347181D01*
X138142856Y-109195791D01*
X137940452Y-109076804D01*
X137774582Y-109013961D01*
X138907501Y-109013961D01*
X138907709Y-109019071D01*
X138918582Y-109152767D01*
X138920352Y-109163320D01*
X138973467Y-109370185D01*
X138977201Y-109380731D01*
X139066010Y-109574705D01*
X139071546Y-109584412D01*
X139193303Y-109759597D01*
X139200476Y-109768176D01*
X139351324Y-109919024D01*
X139359903Y-109926197D01*
X139535088Y-110047954D01*
X139544795Y-110053490D01*
X139738769Y-110142299D01*
X139749315Y-110146033D01*
X139956179Y-110199147D01*
X139966734Y-110200918D01*
X140100430Y-110211793D01*
X140105536Y-110212000D01*
X140893385Y-110212000D01*
X140908624Y-110207525D01*
X140909829Y-110206135D01*
X140911500Y-110198452D01*
X140911500Y-108476115D01*
X140907025Y-108460876D01*
X140905635Y-108459671D01*
X140897952Y-108458000D01*
X138925616Y-108458000D01*
X138910377Y-108462475D01*
X138909172Y-108463865D01*
X138907501Y-108471548D01*
X138907501Y-109013961D01*
X137774582Y-109013961D01*
X137720893Y-108993620D01*
X137587853Y-108967639D01*
X137494743Y-108949456D01*
X137490457Y-108948619D01*
X137484727Y-108948309D01*
X137434552Y-108945591D01*
X137434537Y-108945591D01*
X137432864Y-108945500D01*
X135498136Y-108945500D01*
X135496463Y-108945591D01*
X135496448Y-108945591D01*
X135446273Y-108948309D01*
X135440543Y-108948619D01*
X135436257Y-108949456D01*
X135343148Y-108967639D01*
X135210107Y-108993620D01*
X134990548Y-109076804D01*
X134788144Y-109195791D01*
X134608681Y-109347181D01*
X134457291Y-109526644D01*
X134454585Y-109531248D01*
X134454583Y-109531250D01*
X134435401Y-109563880D01*
X134338304Y-109729048D01*
X134255120Y-109948607D01*
X134254098Y-109953839D01*
X134254098Y-109953840D01*
X134251207Y-109968646D01*
X134210119Y-110179043D01*
X134209883Y-110183401D01*
X134208346Y-110211791D01*
X134207000Y-110236636D01*
X134207000Y-112171364D01*
X134207091Y-112173037D01*
X134207091Y-112173052D01*
X134208946Y-112207295D01*
X134210119Y-112228957D01*
X134255120Y-112459393D01*
X134338304Y-112678952D01*
X134407772Y-112797121D01*
X134451639Y-112871741D01*
X134457291Y-112881356D01*
X134608681Y-113060819D01*
X134788144Y-113212209D01*
X134990548Y-113331196D01*
X135210107Y-113414380D01*
X135440543Y-113459381D01*
X135444901Y-113459617D01*
X135496448Y-113462409D01*
X135496463Y-113462409D01*
X135498136Y-113462500D01*
X137432864Y-113462500D01*
X137434537Y-113462409D01*
X137434552Y-113462409D01*
X137486099Y-113459617D01*
X137490457Y-113459381D01*
X137720893Y-113414380D01*
X137940452Y-113331196D01*
X138142856Y-113212209D01*
X138322319Y-113060819D01*
X138473709Y-112881356D01*
X138479362Y-112871741D01*
X138523228Y-112797121D01*
X138592696Y-112678952D01*
X138663173Y-112492932D01*
X138706012Y-112436317D01*
X138772660Y-112411849D01*
X138841955Y-112427298D01*
X138891898Y-112477759D01*
X138907000Y-112537573D01*
X138907000Y-116002134D01*
X138913755Y-116064316D01*
X138964885Y-116200705D01*
X139052239Y-116317261D01*
X139162919Y-116400211D01*
X139205433Y-116457069D01*
X139210459Y-116527887D01*
X139176399Y-116590181D01*
X139170677Y-116595551D01*
X139128137Y-116633054D01*
X139128131Y-116633060D01*
X139124345Y-116636398D01*
X139121139Y-116640301D01*
X139121137Y-116640303D01*
X139112574Y-116650728D01*
X139101789Y-116662294D01*
X139088319Y-116675032D01*
X139080232Y-116685610D01*
X139031945Y-116748766D01*
X139029214Y-116752213D01*
X138970266Y-116823978D01*
X138960938Y-116840006D01*
X138952146Y-116853139D01*
X138940880Y-116867874D01*
X138903133Y-116938273D01*
X138897011Y-116949690D01*
X138894871Y-116953519D01*
X138848159Y-117033778D01*
X138846345Y-117038503D01*
X138846339Y-117038516D01*
X138841516Y-117051082D01*
X138834929Y-117065471D01*
X138829415Y-117075756D01*
X138826169Y-117081809D01*
X138824524Y-117086587D01*
X138824519Y-117086598D01*
X138795936Y-117169610D01*
X138794432Y-117173743D01*
X138762982Y-117255672D01*
X138762980Y-117255680D01*
X138761167Y-117260402D01*
X138760132Y-117265357D01*
X138757378Y-117278539D01*
X138753177Y-117293792D01*
X138747138Y-117311331D01*
X138731324Y-117402887D01*
X138730514Y-117407128D01*
X138727759Y-117420316D01*
X138712560Y-117493068D01*
X138712559Y-117493074D01*
X138711526Y-117498020D01*
X138711297Y-117503067D01*
X138711296Y-117503073D01*
X138710685Y-117516536D01*
X138708977Y-117532261D01*
X138705821Y-117550536D01*
X138704500Y-117579625D01*
X138704500Y-117649888D01*
X138704370Y-117655603D01*
X138700514Y-117740517D01*
X138701095Y-117745537D01*
X138701095Y-117745541D01*
X138703665Y-117767750D01*
X138704500Y-117782232D01*
X138704500Y-119949001D01*
X138704702Y-119951509D01*
X138704702Y-119951514D01*
X138713911Y-120065965D01*
X138719060Y-120129965D01*
X138720266Y-120134873D01*
X138720266Y-120134876D01*
X138773341Y-120350960D01*
X138776963Y-120365706D01*
X138778938Y-120370358D01*
X138778939Y-120370362D01*
X138821168Y-120469847D01*
X138871812Y-120589156D01*
X138899497Y-120633118D01*
X138997996Y-120789531D01*
X139001167Y-120794567D01*
X139025115Y-120821731D01*
X139158350Y-120972858D01*
X139158353Y-120972861D01*
X139161698Y-120976655D01*
X139165606Y-120979865D01*
X139165607Y-120979866D01*
X139336667Y-121120375D01*
X139349278Y-121130734D01*
X139381676Y-121149590D01*
X139550532Y-121247867D01*
X139559078Y-121252841D01*
X139563801Y-121254654D01*
X139780978Y-121338020D01*
X139780982Y-121338021D01*
X139785702Y-121339833D01*
X139790652Y-121340867D01*
X139790655Y-121340868D01*
X140018369Y-121388440D01*
X140018373Y-121388440D01*
X140023320Y-121389474D01*
X140265817Y-121400486D01*
X140270837Y-121399905D01*
X140270841Y-121399905D01*
X140501929Y-121373167D01*
X140501933Y-121373166D01*
X140506956Y-121372585D01*
X140511820Y-121371209D01*
X140511823Y-121371208D01*
X140735669Y-121307866D01*
X140735668Y-121307866D01*
X140740532Y-121306490D01*
X140745108Y-121304356D01*
X140745114Y-121304354D01*
X140955954Y-121206038D01*
X140955958Y-121206036D01*
X140960536Y-121203901D01*
X140968887Y-121198226D01*
X141083440Y-121120375D01*
X141161307Y-121067456D01*
X141164986Y-121063977D01*
X141164991Y-121063973D01*
X141265289Y-120969126D01*
X141328527Y-120936854D01*
X141399174Y-120943894D01*
X141452687Y-120985109D01*
X141539739Y-121101261D01*
X141656295Y-121188615D01*
X141792684Y-121239745D01*
X141854866Y-121246500D01*
X143651134Y-121246500D01*
X143713316Y-121239745D01*
X143849705Y-121188615D01*
X143966261Y-121101261D01*
X144053615Y-120984705D01*
X144104745Y-120848316D01*
X144111500Y-120786134D01*
X144111500Y-119198631D01*
X144131502Y-119130510D01*
X144185158Y-119084017D01*
X144255432Y-119073913D01*
X144320012Y-119103407D01*
X144326595Y-119109536D01*
X148917802Y-123700743D01*
X148951828Y-123763055D01*
X148946763Y-123833870D01*
X148910538Y-123885649D01*
X148800031Y-123980031D01*
X148645824Y-124160584D01*
X148643245Y-124164792D01*
X148643241Y-124164798D01*
X148539376Y-124334290D01*
X148521760Y-124363037D01*
X148519867Y-124367607D01*
X148519865Y-124367611D01*
X148432789Y-124577833D01*
X148430895Y-124582406D01*
X148418976Y-124632053D01*
X148378979Y-124798654D01*
X148375465Y-124813289D01*
X148356835Y-125050000D01*
X148375465Y-125286711D01*
X148376619Y-125291518D01*
X148376620Y-125291524D01*
X148410502Y-125432649D01*
X148430895Y-125517594D01*
X148432788Y-125522165D01*
X148432789Y-125522167D01*
X148511475Y-125712132D01*
X148521760Y-125736963D01*
X148524346Y-125741183D01*
X148643241Y-125935202D01*
X148643245Y-125935208D01*
X148645824Y-125939416D01*
X148800031Y-126119969D01*
X148980584Y-126274176D01*
X148984792Y-126276755D01*
X148984798Y-126276759D01*
X149178084Y-126395205D01*
X149183037Y-126398240D01*
X149187607Y-126400133D01*
X149187611Y-126400135D01*
X149397833Y-126487211D01*
X149402406Y-126489105D01*
X149450349Y-126500615D01*
X149628476Y-126543380D01*
X149628482Y-126543381D01*
X149633289Y-126544535D01*
X149870000Y-126563165D01*
X150106711Y-126544535D01*
X150111518Y-126543381D01*
X150111524Y-126543380D01*
X150289651Y-126500615D01*
X150337594Y-126489105D01*
X150342167Y-126487211D01*
X150552389Y-126400135D01*
X150552393Y-126400133D01*
X150556963Y-126398240D01*
X150561916Y-126395205D01*
X150755202Y-126276759D01*
X150755208Y-126276755D01*
X150759416Y-126274176D01*
X150939969Y-126119969D01*
X150943177Y-126116213D01*
X150943182Y-126116208D01*
X151073706Y-125963384D01*
X151133156Y-125924574D01*
X151167558Y-125922360D01*
X151186667Y-125914123D01*
X152320905Y-124779885D01*
X152383217Y-124745859D01*
X152454032Y-124750924D01*
X152499095Y-124779885D01*
X152680115Y-124960905D01*
X152714141Y-125023217D01*
X152709076Y-125094032D01*
X152680115Y-125139095D01*
X151548920Y-126270290D01*
X151542160Y-126282670D01*
X151547887Y-126290320D01*
X151719042Y-126395205D01*
X151727837Y-126399687D01*
X151937988Y-126486734D01*
X151947373Y-126489783D01*
X152168554Y-126542885D01*
X152178301Y-126544428D01*
X152405070Y-126562275D01*
X152414930Y-126562275D01*
X152641699Y-126544428D01*
X152651446Y-126542885D01*
X152872627Y-126489783D01*
X152882012Y-126486734D01*
X153092163Y-126399687D01*
X153100958Y-126395205D01*
X153294899Y-126276357D01*
X153302883Y-126270557D01*
X153310114Y-126264381D01*
X153374904Y-126235349D01*
X153445104Y-126245953D01*
X153497688Y-126292177D01*
X153499385Y-126296705D01*
X153504770Y-126303890D01*
X153504771Y-126303891D01*
X153586739Y-126413261D01*
X153703295Y-126500615D01*
X153839684Y-126551745D01*
X153901866Y-126558500D01*
X154912188Y-126558500D01*
X154917903Y-126558630D01*
X155002817Y-126562486D01*
X155007837Y-126561905D01*
X155007841Y-126561905D01*
X155030050Y-126559335D01*
X155044532Y-126558500D01*
X155998134Y-126558500D01*
X156060316Y-126551745D01*
X156196705Y-126500615D01*
X156313261Y-126413261D01*
X156400615Y-126296705D01*
X156451745Y-126160316D01*
X156458500Y-126098134D01*
X156458500Y-122737512D01*
X156458630Y-122731796D01*
X156461323Y-122672489D01*
X156462486Y-122646883D01*
X156451814Y-122554644D01*
X156451386Y-122550280D01*
X156444346Y-122462781D01*
X156443940Y-122457735D01*
X156439518Y-122439729D01*
X156436718Y-122424167D01*
X156435167Y-122410771D01*
X156435166Y-122410768D01*
X156434585Y-122405744D01*
X156429479Y-122387700D01*
X156409307Y-122316410D01*
X156408184Y-122312160D01*
X156390641Y-122240738D01*
X156386037Y-122221994D01*
X156378791Y-122204922D01*
X156373539Y-122190011D01*
X156368490Y-122172168D01*
X156366356Y-122167593D01*
X156366354Y-122167586D01*
X156329256Y-122088031D01*
X156327467Y-122084013D01*
X156326623Y-122082023D01*
X156291188Y-121998544D01*
X156288498Y-121994272D01*
X156288493Y-121994263D01*
X156281308Y-121982854D01*
X156273733Y-121968960D01*
X156268040Y-121956752D01*
X156265901Y-121952164D01*
X156262282Y-121946838D01*
X156213719Y-121875380D01*
X156211311Y-121871701D01*
X156164526Y-121797409D01*
X156164525Y-121797407D01*
X156161833Y-121793133D01*
X156158497Y-121789349D01*
X156158494Y-121789345D01*
X156149568Y-121779221D01*
X156139871Y-121766719D01*
X156135884Y-121760851D01*
X156129456Y-121751393D01*
X156125979Y-121747716D01*
X156125974Y-121747710D01*
X156065692Y-121683965D01*
X156062725Y-121680716D01*
X156004646Y-121614837D01*
X156004640Y-121614831D01*
X156001302Y-121611045D01*
X155986969Y-121599272D01*
X155975406Y-121588489D01*
X155962668Y-121575019D01*
X155888934Y-121518645D01*
X155885487Y-121515914D01*
X155817626Y-121460173D01*
X155813722Y-121456966D01*
X155797694Y-121447638D01*
X155784561Y-121438846D01*
X155769826Y-121427580D01*
X155687999Y-121383705D01*
X155684170Y-121381565D01*
X155608304Y-121337409D01*
X155608300Y-121337407D01*
X155603922Y-121334859D01*
X155599197Y-121333045D01*
X155599184Y-121333039D01*
X155586618Y-121328216D01*
X155572229Y-121321629D01*
X155560349Y-121315259D01*
X155560346Y-121315258D01*
X155555891Y-121312869D01*
X155551113Y-121311224D01*
X155551102Y-121311219D01*
X155468090Y-121282636D01*
X155463957Y-121281132D01*
X155382028Y-121249682D01*
X155382020Y-121249680D01*
X155377298Y-121247867D01*
X155359159Y-121244077D01*
X155343908Y-121239877D01*
X155331152Y-121235485D01*
X155331153Y-121235485D01*
X155326369Y-121233838D01*
X155234813Y-121218024D01*
X155230572Y-121217214D01*
X155197972Y-121210404D01*
X155144632Y-121199260D01*
X155144626Y-121199259D01*
X155139680Y-121198226D01*
X155134633Y-121197997D01*
X155134627Y-121197996D01*
X155124685Y-121197545D01*
X155121161Y-121197385D01*
X155105439Y-121195677D01*
X155087164Y-121192521D01*
X155080356Y-121192212D01*
X155059494Y-121191264D01*
X155059475Y-121191264D01*
X155058075Y-121191200D01*
X154987812Y-121191200D01*
X154982096Y-121191070D01*
X154897183Y-121187214D01*
X154892163Y-121187795D01*
X154892159Y-121187795D01*
X154869950Y-121190365D01*
X154855468Y-121191200D01*
X150727131Y-121191200D01*
X150659010Y-121171198D01*
X150638036Y-121154295D01*
X149052277Y-119568536D01*
X149018251Y-119506224D01*
X149023316Y-119435409D01*
X149065863Y-119378573D01*
X149083579Y-119367477D01*
X149267370Y-119272615D01*
X149445679Y-119135794D01*
X149596940Y-118969559D01*
X149716374Y-118779166D01*
X149743006Y-118712918D01*
X149786970Y-118657176D01*
X149854095Y-118634051D01*
X149923066Y-118650888D01*
X149973637Y-118705673D01*
X150041885Y-118848759D01*
X150173038Y-119031278D01*
X150334439Y-119187686D01*
X150520987Y-119313041D01*
X150526133Y-119315300D01*
X150526135Y-119315301D01*
X150534352Y-119318908D01*
X150726785Y-119403380D01*
X150732233Y-119404688D01*
X150732239Y-119404690D01*
X150939871Y-119454538D01*
X150939872Y-119454538D01*
X150945328Y-119455848D01*
X151029985Y-119460729D01*
X151164101Y-119468462D01*
X151164104Y-119468462D01*
X151169708Y-119468785D01*
X151392833Y-119441784D01*
X151607651Y-119375698D01*
X151612631Y-119373128D01*
X151612635Y-119373126D01*
X151802387Y-119275187D01*
X151802388Y-119275187D01*
X151807370Y-119272615D01*
X151985679Y-119135794D01*
X152136940Y-118969559D01*
X152256374Y-118779166D01*
X152283006Y-118712918D01*
X152326970Y-118657176D01*
X152394095Y-118634051D01*
X152463066Y-118650888D01*
X152513637Y-118705673D01*
X152581885Y-118848759D01*
X152713038Y-119031278D01*
X152874439Y-119187686D01*
X153060987Y-119313041D01*
X153066133Y-119315300D01*
X153066135Y-119315301D01*
X153074352Y-119318908D01*
X153266785Y-119403380D01*
X153272233Y-119404688D01*
X153272239Y-119404690D01*
X153479871Y-119454538D01*
X153479872Y-119454538D01*
X153485328Y-119455848D01*
X153569985Y-119460729D01*
X153704101Y-119468462D01*
X153704104Y-119468462D01*
X153709708Y-119468785D01*
X153932833Y-119441784D01*
X154147651Y-119375698D01*
X154152631Y-119373128D01*
X154152635Y-119373126D01*
X154342387Y-119275187D01*
X154342388Y-119275187D01*
X154347370Y-119272615D01*
X154525679Y-119135794D01*
X154676940Y-118969559D01*
X154796374Y-118779166D01*
X154823006Y-118712918D01*
X154866970Y-118657176D01*
X154934095Y-118634051D01*
X155003066Y-118650888D01*
X155053637Y-118705673D01*
X155121885Y-118848759D01*
X155253038Y-119031278D01*
X155414439Y-119187686D01*
X155600987Y-119313041D01*
X155606133Y-119315300D01*
X155606135Y-119315301D01*
X155614352Y-119318908D01*
X155806785Y-119403380D01*
X155812233Y-119404688D01*
X155812239Y-119404690D01*
X156019871Y-119454538D01*
X156019872Y-119454538D01*
X156025328Y-119455848D01*
X156109985Y-119460729D01*
X156244101Y-119468462D01*
X156244104Y-119468462D01*
X156249708Y-119468785D01*
X156472833Y-119441784D01*
X156687651Y-119375698D01*
X156692631Y-119373128D01*
X156692635Y-119373126D01*
X156882387Y-119275187D01*
X156882388Y-119275187D01*
X156887370Y-119272615D01*
X157065679Y-119135794D01*
X157216940Y-118969559D01*
X157336374Y-118779166D01*
X157363006Y-118712918D01*
X157406970Y-118657176D01*
X157474095Y-118634051D01*
X157543066Y-118650888D01*
X157593637Y-118705673D01*
X157661885Y-118848759D01*
X157793038Y-119031278D01*
X157896613Y-119131648D01*
X157903185Y-119138017D01*
X157938185Y-119199787D01*
X157941500Y-119228501D01*
X157941500Y-129004319D01*
X157921498Y-129072440D01*
X157904595Y-129093414D01*
X148753965Y-138244044D01*
X148691653Y-138278070D01*
X148620838Y-138273005D01*
X148564002Y-138230458D01*
X148550675Y-138208199D01*
X148459414Y-138012489D01*
X148453931Y-138002994D01*
X148417491Y-137950952D01*
X148407012Y-137942576D01*
X148393566Y-137949644D01*
X146604923Y-139738287D01*
X146598493Y-139750062D01*
X146607789Y-139762077D01*
X146658994Y-139797931D01*
X146668489Y-139803414D01*
X146864199Y-139894675D01*
X146917484Y-139941593D01*
X146936945Y-140009870D01*
X146916403Y-140077830D01*
X146900047Y-140097962D01*
X143156219Y-143841789D01*
X139460325Y-147537683D01*
X139398013Y-147571709D01*
X139327198Y-147566644D01*
X139270362Y-147524097D01*
X139248841Y-147478537D01*
X139219745Y-147359634D01*
X139199810Y-147278168D01*
X139129244Y-147103947D01*
X139099725Y-147031069D01*
X139099725Y-147031068D01*
X139098012Y-147026840D01*
X138960999Y-146792839D01*
X138791641Y-146581068D01*
X138652226Y-146450833D01*
X138596824Y-146399079D01*
X138596821Y-146399077D01*
X138593488Y-146395963D01*
X138370688Y-146241402D01*
X138196321Y-146154655D01*
X138131997Y-146122654D01*
X138131994Y-146122653D01*
X138127910Y-146120621D01*
X137870240Y-146036153D01*
X137865748Y-146035373D01*
X137606856Y-145990421D01*
X137606848Y-145990420D01*
X137603075Y-145989765D01*
X137595429Y-145989384D01*
X137518971Y-145985578D01*
X137518963Y-145985578D01*
X137517400Y-145985500D01*
X136828116Y-145985500D01*
X136825848Y-145985665D01*
X136825836Y-145985665D01*
X136694022Y-145995229D01*
X136626549Y-146000125D01*
X136622094Y-146001109D01*
X136622091Y-146001109D01*
X136366223Y-146057600D01*
X136366219Y-146057601D01*
X136361763Y-146058585D01*
X136234977Y-146106620D01*
X136112460Y-146153037D01*
X136112457Y-146153038D01*
X136108190Y-146154655D01*
X135871141Y-146286324D01*
X135655583Y-146450833D01*
X135466030Y-146644736D01*
X135306453Y-146863972D01*
X135180196Y-147103947D01*
X135089904Y-147359634D01*
X135089024Y-147364100D01*
X135049103Y-147566644D01*
X135037467Y-147625678D01*
X135023984Y-147896505D01*
X135049738Y-148166441D01*
X135114190Y-148429832D01*
X135215988Y-148681160D01*
X135353001Y-148915161D01*
X135522359Y-149126932D01*
X135525700Y-149130053D01*
X135603934Y-149203135D01*
X135720512Y-149312037D01*
X135943312Y-149466598D01*
X135947388Y-149468626D01*
X135947390Y-149468627D01*
X136182003Y-149585346D01*
X136182006Y-149585347D01*
X136186090Y-149587379D01*
X136443760Y-149671847D01*
X136448251Y-149672627D01*
X136448252Y-149672627D01*
X136707144Y-149717579D01*
X136707152Y-149717580D01*
X136710925Y-149718235D01*
X136714762Y-149718426D01*
X136795029Y-149722422D01*
X136795037Y-149722422D01*
X136796600Y-149722500D01*
X136971318Y-149722500D01*
X137039439Y-149742502D01*
X137085932Y-149796158D01*
X137096036Y-149866432D01*
X137066542Y-149931012D01*
X137060413Y-149937595D01*
X135189413Y-151808595D01*
X135127101Y-151842621D01*
X135100318Y-151845500D01*
X130879688Y-151845500D01*
X130811567Y-151825498D01*
X130779861Y-151796381D01*
X130779573Y-151796008D01*
X130776764Y-151791665D01*
X130713625Y-151722276D01*
X130682573Y-151658431D01*
X130690969Y-151587932D01*
X130736145Y-151533164D01*
X130762589Y-151519495D01*
X130795054Y-151507324D01*
X130810649Y-151498786D01*
X130912724Y-151422285D01*
X130925285Y-151409724D01*
X131001786Y-151307649D01*
X131010324Y-151292054D01*
X131055478Y-151171606D01*
X131059105Y-151156351D01*
X131064631Y-151105486D01*
X131065000Y-151098672D01*
X131065000Y-150426115D01*
X131060525Y-150410876D01*
X131059135Y-150409671D01*
X131051452Y-150408000D01*
X128267116Y-150408000D01*
X128251877Y-150412475D01*
X128250672Y-150413865D01*
X128249001Y-150421548D01*
X128249001Y-151098669D01*
X128249371Y-151105490D01*
X128254895Y-151156352D01*
X128258521Y-151171604D01*
X128303676Y-151292054D01*
X128312214Y-151307649D01*
X128388715Y-151409724D01*
X128401276Y-151422285D01*
X128503351Y-151498786D01*
X128518946Y-151507324D01*
X128550398Y-151519115D01*
X128607162Y-151561757D01*
X128631862Y-151628318D01*
X128616654Y-151697667D01*
X128597263Y-151724147D01*
X128558639Y-151764564D01*
X128555725Y-151768836D01*
X128555724Y-151768837D01*
X128540152Y-151791665D01*
X128428119Y-151955899D01*
X128425943Y-151960586D01*
X128425940Y-151960592D01*
X128334605Y-152157357D01*
X128287781Y-152210724D01*
X128219537Y-152230305D01*
X128151542Y-152209881D01*
X128143789Y-152204404D01*
X128116044Y-152183192D01*
X128110908Y-152179048D01*
X128054933Y-152131409D01*
X128054932Y-152131408D01*
X128051080Y-152128130D01*
X128046755Y-152125511D01*
X128046750Y-152125507D01*
X128022976Y-152111109D01*
X128011729Y-152103437D01*
X127985626Y-152083480D01*
X127916392Y-152046357D01*
X127910668Y-152043093D01*
X127843442Y-152002379D01*
X127812981Y-151990072D01*
X127800641Y-151984292D01*
X127797150Y-151982420D01*
X127771691Y-151968769D01*
X127766910Y-151967123D01*
X127766906Y-151967121D01*
X127697399Y-151943188D01*
X127691221Y-151940878D01*
X127623066Y-151913342D01*
X127623067Y-151913342D01*
X127618371Y-151911445D01*
X127586339Y-151904168D01*
X127573241Y-151900437D01*
X127542169Y-151889738D01*
X127464700Y-151876357D01*
X127458296Y-151875077D01*
X127381656Y-151857665D01*
X127348847Y-151855601D01*
X127335347Y-151854015D01*
X127302964Y-151848421D01*
X127299007Y-151848241D01*
X127299004Y-151848241D01*
X127275294Y-151847164D01*
X127275275Y-151847164D01*
X127273875Y-151847100D01*
X127217692Y-151847100D01*
X127209780Y-151846851D01*
X127204186Y-151846499D01*
X127139387Y-151842422D01*
X127100345Y-151846250D01*
X127097808Y-151846499D01*
X127085512Y-151847100D01*
X116750416Y-151847100D01*
X116746898Y-151847051D01*
X116652250Y-151844407D01*
X116652247Y-151844407D01*
X116647195Y-151844266D01*
X116569302Y-151854659D01*
X116562761Y-151855358D01*
X116538017Y-151857349D01*
X116489477Y-151861254D01*
X116489473Y-151861255D01*
X116484435Y-151861660D01*
X116452522Y-151869499D01*
X116439142Y-151872026D01*
X116406580Y-151876371D01*
X116401739Y-151877832D01*
X116401737Y-151877833D01*
X116331371Y-151899078D01*
X116325010Y-151900819D01*
X116248694Y-151919563D01*
X116244034Y-151921541D01*
X116218449Y-151932401D01*
X116205639Y-151937038D01*
X116174192Y-151946533D01*
X116169644Y-151948751D01*
X116169637Y-151948754D01*
X116103582Y-151980971D01*
X116097580Y-151983707D01*
X116053592Y-152002379D01*
X116025244Y-152014412D01*
X116000932Y-152029723D01*
X115997444Y-152031919D01*
X115985540Y-152038545D01*
X115956012Y-152052946D01*
X115951875Y-152055865D01*
X115951874Y-152055865D01*
X115891803Y-152098241D01*
X115886314Y-152101901D01*
X115848829Y-152125507D01*
X115819833Y-152143767D01*
X115816044Y-152147108D01*
X115816038Y-152147112D01*
X115795183Y-152165498D01*
X115784488Y-152173944D01*
X115757653Y-152192874D01*
X115754729Y-152195544D01*
X115738105Y-152210724D01*
X115736150Y-152212509D01*
X115696434Y-152252225D01*
X115690664Y-152257644D01*
X115641542Y-152300950D01*
X115641539Y-152300953D01*
X115637745Y-152304298D01*
X115634535Y-152308206D01*
X115634534Y-152308207D01*
X115611221Y-152336589D01*
X115602951Y-152345708D01*
X113723191Y-154225468D01*
X113669354Y-154257339D01*
X113612828Y-154273815D01*
X113508433Y-154304243D01*
X113504180Y-154306203D01*
X113504179Y-154306204D01*
X113453888Y-154329389D01*
X113271072Y-154413668D01*
X113267163Y-154416231D01*
X113056404Y-154554410D01*
X113056399Y-154554414D01*
X113052491Y-154556976D01*
X112857494Y-154731018D01*
X112690363Y-154931970D01*
X112687934Y-154935973D01*
X112590731Y-155096159D01*
X112554771Y-155155419D01*
X112453697Y-155396455D01*
X112389359Y-155649783D01*
X112388891Y-155654434D01*
X112388890Y-155654438D01*
X112382711Y-155715804D01*
X112363173Y-155909839D01*
X112363397Y-155914505D01*
X112363397Y-155914511D01*
X112365390Y-155956000D01*
X112375713Y-156170908D01*
X112426704Y-156427256D01*
X112515026Y-156673252D01*
X112517242Y-156677376D01*
X112625131Y-156878168D01*
X112638737Y-156903491D01*
X112641532Y-156907234D01*
X112641534Y-156907237D01*
X112792330Y-157109177D01*
X112792335Y-157109183D01*
X112795122Y-157112915D01*
X112798431Y-157116195D01*
X112798436Y-157116201D01*
X112940960Y-157257486D01*
X112980743Y-157296923D01*
X112984505Y-157299681D01*
X112984508Y-157299684D01*
X113143231Y-157416064D01*
X113191524Y-157451474D01*
X113195667Y-157453654D01*
X113195669Y-157453655D01*
X113418684Y-157570989D01*
X113418689Y-157570991D01*
X113422834Y-157573172D01*
X113511790Y-157604237D01*
X113645800Y-157651036D01*
X113669590Y-157659344D01*
X113674183Y-157660216D01*
X113921785Y-157707224D01*
X113921788Y-157707224D01*
X113926374Y-157708095D01*
X114056959Y-157713226D01*
X114182875Y-157718174D01*
X114182881Y-157718174D01*
X114187543Y-157718357D01*
X114268186Y-157709525D01*
X114442707Y-157690412D01*
X114442712Y-157690411D01*
X114447360Y-157689902D01*
X114560116Y-157660216D01*
X114695594Y-157624548D01*
X114695596Y-157624547D01*
X114700117Y-157623357D01*
X114940262Y-157520182D01*
X115010807Y-157476528D01*
X115158547Y-157385104D01*
X115158548Y-157385104D01*
X115162519Y-157382646D01*
X115166082Y-157379629D01*
X115166087Y-157379626D01*
X115358439Y-157216787D01*
X115358440Y-157216786D01*
X115362005Y-157213768D01*
X115441877Y-157122692D01*
X115531257Y-157020774D01*
X115531261Y-157020769D01*
X115534339Y-157017259D01*
X115546007Y-156999120D01*
X115673205Y-156801367D01*
X115675733Y-156797437D01*
X115783083Y-156559129D01*
X115795434Y-156515337D01*
X115823996Y-156414064D01*
X115856170Y-156359171D01*
X117314336Y-154901005D01*
X117376648Y-154866979D01*
X117403431Y-154864100D01*
X117507705Y-154864100D01*
X117575826Y-154884102D01*
X117622319Y-154937758D01*
X117632423Y-155008032D01*
X117615424Y-155055465D01*
X117587682Y-155101183D01*
X117554771Y-155155419D01*
X117453697Y-155396455D01*
X117389359Y-155649783D01*
X117388891Y-155654434D01*
X117388890Y-155654438D01*
X117382711Y-155715804D01*
X117363173Y-155909839D01*
X117363397Y-155914505D01*
X117363397Y-155914511D01*
X117365390Y-155956000D01*
X117375713Y-156170908D01*
X117426704Y-156427256D01*
X117515026Y-156673252D01*
X117517242Y-156677376D01*
X117625131Y-156878168D01*
X117638737Y-156903491D01*
X117641532Y-156907234D01*
X117641534Y-156907237D01*
X117792330Y-157109177D01*
X117792335Y-157109183D01*
X117795122Y-157112915D01*
X117798431Y-157116195D01*
X117798436Y-157116201D01*
X117940960Y-157257486D01*
X117980743Y-157296923D01*
X117984505Y-157299681D01*
X117984508Y-157299684D01*
X118143231Y-157416064D01*
X118191524Y-157451474D01*
X118195667Y-157453654D01*
X118195669Y-157453655D01*
X118418684Y-157570989D01*
X118418689Y-157570991D01*
X118422834Y-157573172D01*
X118511790Y-157604237D01*
X118645800Y-157651036D01*
X118669590Y-157659344D01*
X118674183Y-157660216D01*
X118921785Y-157707224D01*
X118921788Y-157707224D01*
X118926374Y-157708095D01*
X119056959Y-157713226D01*
X119182875Y-157718174D01*
X119182881Y-157718174D01*
X119187543Y-157718357D01*
X119268186Y-157709525D01*
X119442707Y-157690412D01*
X119442712Y-157690411D01*
X119447360Y-157689902D01*
X119560116Y-157660216D01*
X119695594Y-157624548D01*
X119695596Y-157624547D01*
X119700117Y-157623357D01*
X119940262Y-157520182D01*
X120010807Y-157476528D01*
X120158547Y-157385104D01*
X120158548Y-157385104D01*
X120162519Y-157382646D01*
X120166082Y-157379629D01*
X120166087Y-157379626D01*
X120318416Y-157250669D01*
X122368001Y-157250669D01*
X122368371Y-157257490D01*
X122373895Y-157308352D01*
X122377521Y-157323604D01*
X122422676Y-157444054D01*
X122431214Y-157459649D01*
X122507715Y-157561724D01*
X122520276Y-157574285D01*
X122622351Y-157650786D01*
X122637946Y-157659324D01*
X122758394Y-157704478D01*
X122773649Y-157708105D01*
X122824514Y-157713631D01*
X122831328Y-157714000D01*
X123853885Y-157714000D01*
X123869124Y-157709525D01*
X123870329Y-157708135D01*
X123872000Y-157700452D01*
X123872000Y-157695884D01*
X124380000Y-157695884D01*
X124384475Y-157711123D01*
X124385865Y-157712328D01*
X124393548Y-157713999D01*
X125420669Y-157713999D01*
X125427490Y-157713629D01*
X125478352Y-157708105D01*
X125493604Y-157704479D01*
X125614054Y-157659324D01*
X125629649Y-157650786D01*
X125731724Y-157574285D01*
X125744285Y-157561724D01*
X125820786Y-157459649D01*
X125829324Y-157444054D01*
X125874478Y-157323606D01*
X125878105Y-157308351D01*
X125883631Y-157257486D01*
X125884000Y-157250672D01*
X125884000Y-156228115D01*
X125879525Y-156212876D01*
X125878135Y-156211671D01*
X125870452Y-156210000D01*
X124398115Y-156210000D01*
X124382876Y-156214475D01*
X124381671Y-156215865D01*
X124380000Y-156223548D01*
X124380000Y-157695884D01*
X123872000Y-157695884D01*
X123872000Y-156228115D01*
X123867525Y-156212876D01*
X123866135Y-156211671D01*
X123858452Y-156210000D01*
X122386116Y-156210000D01*
X122370877Y-156214475D01*
X122369672Y-156215865D01*
X122368001Y-156223548D01*
X122368001Y-157250669D01*
X120318416Y-157250669D01*
X120358439Y-157216787D01*
X120358440Y-157216786D01*
X120362005Y-157213768D01*
X120441877Y-157122692D01*
X120531257Y-157020774D01*
X120531261Y-157020769D01*
X120534339Y-157017259D01*
X120546007Y-156999120D01*
X120673205Y-156801367D01*
X120675733Y-156797437D01*
X120783083Y-156559129D01*
X120792176Y-156526887D01*
X120852760Y-156312076D01*
X120852761Y-156312073D01*
X120854030Y-156307572D01*
X120866236Y-156211621D01*
X120886616Y-156051421D01*
X120886616Y-156051417D01*
X120887014Y-156048291D01*
X120889431Y-155956000D01*
X120880764Y-155839373D01*
X120870407Y-155700000D01*
X120870406Y-155699996D01*
X120870061Y-155695348D01*
X120867468Y-155683885D01*
X120813408Y-155444980D01*
X120812377Y-155440423D01*
X120800418Y-155409671D01*
X120719340Y-155201176D01*
X120719339Y-155201173D01*
X120717647Y-155196823D01*
X120635230Y-155052623D01*
X120618793Y-154983556D01*
X120642306Y-154916566D01*
X120698304Y-154872922D01*
X120744623Y-154864100D01*
X122242000Y-154864100D01*
X122310121Y-154884102D01*
X122356614Y-154937758D01*
X122368000Y-154990100D01*
X122368000Y-155683885D01*
X122372475Y-155699124D01*
X122373865Y-155700329D01*
X122381548Y-155702000D01*
X125865884Y-155702000D01*
X125881123Y-155697525D01*
X125882328Y-155696135D01*
X125883999Y-155688452D01*
X125883999Y-154990100D01*
X125904001Y-154921979D01*
X125957657Y-154875486D01*
X126009999Y-154864100D01*
X126488769Y-154864100D01*
X126556890Y-154884102D01*
X126577864Y-154901005D01*
X127880525Y-156203666D01*
X127882979Y-156206188D01*
X127947572Y-156274493D01*
X127951532Y-156278681D01*
X127983254Y-156302934D01*
X128013957Y-156326408D01*
X128019092Y-156330552D01*
X128078920Y-156381470D01*
X128083245Y-156384089D01*
X128083250Y-156384093D01*
X128107024Y-156398491D01*
X128118271Y-156406163D01*
X128144374Y-156426120D01*
X128208081Y-156460279D01*
X128213601Y-156463239D01*
X128219326Y-156466504D01*
X128286558Y-156507221D01*
X128291247Y-156509116D01*
X128291254Y-156509119D01*
X128317028Y-156519533D01*
X128329364Y-156525312D01*
X128353849Y-156538440D01*
X128353853Y-156538442D01*
X128358309Y-156540831D01*
X128363091Y-156542478D01*
X128363092Y-156542478D01*
X128432581Y-156566405D01*
X128438751Y-156568711D01*
X128449433Y-156573027D01*
X128506943Y-156596263D01*
X128506946Y-156596264D01*
X128511629Y-156598156D01*
X128538391Y-156604236D01*
X128543671Y-156605436D01*
X128556775Y-156609169D01*
X128587831Y-156619862D01*
X128592811Y-156620722D01*
X128592822Y-156620725D01*
X128665265Y-156633238D01*
X128671733Y-156634530D01*
X128743412Y-156650815D01*
X128743421Y-156650816D01*
X128748345Y-156651935D01*
X128781151Y-156653999D01*
X128794655Y-156655586D01*
X128816883Y-156659425D01*
X128823133Y-156660505D01*
X128823136Y-156660505D01*
X128827036Y-156661179D01*
X128830993Y-156661359D01*
X128830996Y-156661359D01*
X128854706Y-156662436D01*
X128854725Y-156662436D01*
X128856125Y-156662500D01*
X128912308Y-156662500D01*
X128920219Y-156662749D01*
X128990613Y-156667178D01*
X129032193Y-156663101D01*
X129044489Y-156662500D01*
X129718001Y-156662500D01*
X129720509Y-156662298D01*
X129720514Y-156662298D01*
X129893924Y-156648346D01*
X129893929Y-156648345D01*
X129898965Y-156647940D01*
X129903873Y-156646734D01*
X129903876Y-156646734D01*
X130129792Y-156591244D01*
X130134706Y-156590037D01*
X130139358Y-156588062D01*
X130139362Y-156588061D01*
X130315873Y-156513136D01*
X130358156Y-156495188D01*
X130434646Y-156447019D01*
X130559288Y-156368528D01*
X130559291Y-156368526D01*
X130563567Y-156365833D01*
X130634537Y-156303265D01*
X130741858Y-156208650D01*
X130741861Y-156208647D01*
X130745655Y-156205302D01*
X130770138Y-156175496D01*
X130896526Y-156021628D01*
X130896528Y-156021625D01*
X130899734Y-156017722D01*
X131021841Y-155807922D01*
X131054784Y-155722101D01*
X131107020Y-155586022D01*
X131107021Y-155586018D01*
X131108833Y-155581298D01*
X131109868Y-155576345D01*
X131141236Y-155426194D01*
X143644895Y-155426194D01*
X143653453Y-155482121D01*
X143655841Y-155492146D01*
X143725836Y-155706295D01*
X143729833Y-155715804D01*
X143833861Y-155915640D01*
X143839355Y-155924365D01*
X143974628Y-156104532D01*
X143981471Y-156112239D01*
X144144356Y-156267896D01*
X144152362Y-156274379D01*
X144338485Y-156401343D01*
X144347444Y-156406432D01*
X144551807Y-156501294D01*
X144561475Y-156504851D01*
X144778580Y-156565060D01*
X144788699Y-156566991D01*
X144972595Y-156586644D01*
X144979287Y-156587000D01*
X145379885Y-156587000D01*
X145395124Y-156582525D01*
X145396329Y-156581135D01*
X145398000Y-156573452D01*
X145398000Y-156568885D01*
X145906000Y-156568885D01*
X145910475Y-156584124D01*
X145911865Y-156585329D01*
X145919548Y-156587000D01*
X146308145Y-156587000D01*
X146313318Y-156586788D01*
X146480687Y-156573027D01*
X146490867Y-156571342D01*
X146709377Y-156516456D01*
X146719128Y-156513136D01*
X146925749Y-156423296D01*
X146934824Y-156418430D01*
X147123990Y-156296052D01*
X147132161Y-156289760D01*
X147298800Y-156138131D01*
X147305825Y-156130598D01*
X147445466Y-155953782D01*
X147451162Y-155945209D01*
X147560052Y-155747955D01*
X147564273Y-155738560D01*
X147639481Y-155526180D01*
X147642113Y-155516217D01*
X147658148Y-155426194D01*
X156144895Y-155426194D01*
X156153453Y-155482121D01*
X156155841Y-155492146D01*
X156225836Y-155706295D01*
X156229833Y-155715804D01*
X156333861Y-155915640D01*
X156339355Y-155924365D01*
X156474628Y-156104532D01*
X156481471Y-156112239D01*
X156644356Y-156267896D01*
X156652362Y-156274379D01*
X156838485Y-156401343D01*
X156847444Y-156406432D01*
X157051807Y-156501294D01*
X157061475Y-156504851D01*
X157278580Y-156565060D01*
X157288699Y-156566991D01*
X157472595Y-156586644D01*
X157479287Y-156587000D01*
X157879885Y-156587000D01*
X157895124Y-156582525D01*
X157896329Y-156581135D01*
X157898000Y-156573452D01*
X157898000Y-156568885D01*
X158406000Y-156568885D01*
X158410475Y-156584124D01*
X158411865Y-156585329D01*
X158419548Y-156587000D01*
X158808145Y-156587000D01*
X158813318Y-156586788D01*
X158980687Y-156573027D01*
X158990867Y-156571342D01*
X159209377Y-156516456D01*
X159219128Y-156513136D01*
X159425749Y-156423296D01*
X159434824Y-156418430D01*
X159623990Y-156296052D01*
X159632161Y-156289760D01*
X159798800Y-156138131D01*
X159805825Y-156130598D01*
X159945466Y-155953782D01*
X159951162Y-155945209D01*
X160060052Y-155747955D01*
X160064273Y-155738560D01*
X160139481Y-155526180D01*
X160142113Y-155516217D01*
X160158212Y-155425837D01*
X160156752Y-155412540D01*
X160142197Y-155408000D01*
X158424115Y-155408000D01*
X158408876Y-155412475D01*
X158407671Y-155413865D01*
X158406000Y-155421548D01*
X158406000Y-156568885D01*
X157898000Y-156568885D01*
X157898000Y-155426115D01*
X157893525Y-155410876D01*
X157892135Y-155409671D01*
X157884452Y-155408000D01*
X156160226Y-155408000D01*
X156146882Y-155411918D01*
X156144895Y-155426194D01*
X147658148Y-155426194D01*
X147658212Y-155425837D01*
X147656752Y-155412540D01*
X147642197Y-155408000D01*
X145924115Y-155408000D01*
X145908876Y-155412475D01*
X145907671Y-155413865D01*
X145906000Y-155421548D01*
X145906000Y-156568885D01*
X145398000Y-156568885D01*
X145398000Y-155426115D01*
X145393525Y-155410876D01*
X145392135Y-155409671D01*
X145384452Y-155408000D01*
X143660226Y-155408000D01*
X143646882Y-155411918D01*
X143644895Y-155426194D01*
X131141236Y-155426194D01*
X131157440Y-155348631D01*
X131157440Y-155348627D01*
X131158474Y-155343680D01*
X131169486Y-155101183D01*
X131168905Y-155096159D01*
X131144145Y-154882163D01*
X143645788Y-154882163D01*
X143647248Y-154895460D01*
X143661803Y-154900000D01*
X145379885Y-154900000D01*
X145395124Y-154895525D01*
X145396329Y-154894135D01*
X145398000Y-154886452D01*
X145398000Y-154881885D01*
X145906000Y-154881885D01*
X145910475Y-154897124D01*
X145911865Y-154898329D01*
X145919548Y-154900000D01*
X147643774Y-154900000D01*
X147657118Y-154896082D01*
X147659055Y-154882163D01*
X156145788Y-154882163D01*
X156147248Y-154895460D01*
X156161803Y-154900000D01*
X157879885Y-154900000D01*
X157895124Y-154895525D01*
X157896329Y-154894135D01*
X157898000Y-154886452D01*
X157898000Y-154881885D01*
X158406000Y-154881885D01*
X158410475Y-154897124D01*
X158411865Y-154898329D01*
X158419548Y-154900000D01*
X160143774Y-154900000D01*
X160157118Y-154896082D01*
X160159105Y-154881806D01*
X160150547Y-154825879D01*
X160148159Y-154815854D01*
X160078164Y-154601705D01*
X160074167Y-154592196D01*
X159970139Y-154392360D01*
X159964645Y-154383635D01*
X159829372Y-154203468D01*
X159822529Y-154195761D01*
X159659644Y-154040104D01*
X159651638Y-154033621D01*
X159465515Y-153906657D01*
X159456556Y-153901568D01*
X159252193Y-153806706D01*
X159242525Y-153803149D01*
X159025420Y-153742940D01*
X159015301Y-153741009D01*
X158831405Y-153721356D01*
X158824713Y-153721000D01*
X158424115Y-153721000D01*
X158408876Y-153725475D01*
X158407671Y-153726865D01*
X158406000Y-153734548D01*
X158406000Y-154881885D01*
X157898000Y-154881885D01*
X157898000Y-153739115D01*
X157893525Y-153723876D01*
X157892135Y-153722671D01*
X157884452Y-153721000D01*
X157495855Y-153721000D01*
X157490682Y-153721212D01*
X157323313Y-153734973D01*
X157313133Y-153736658D01*
X157094623Y-153791544D01*
X157084872Y-153794864D01*
X156878251Y-153884704D01*
X156869176Y-153889570D01*
X156680010Y-154011948D01*
X156671839Y-154018240D01*
X156505200Y-154169869D01*
X156498175Y-154177402D01*
X156358534Y-154354218D01*
X156352838Y-154362791D01*
X156243948Y-154560045D01*
X156239727Y-154569440D01*
X156164519Y-154781820D01*
X156161887Y-154791783D01*
X156145788Y-154882163D01*
X147659055Y-154882163D01*
X147659105Y-154881806D01*
X147650547Y-154825879D01*
X147648159Y-154815854D01*
X147578164Y-154601705D01*
X147574167Y-154592196D01*
X147470139Y-154392360D01*
X147464645Y-154383635D01*
X147329372Y-154203468D01*
X147322529Y-154195761D01*
X147159644Y-154040104D01*
X147151638Y-154033621D01*
X146965515Y-153906657D01*
X146956556Y-153901568D01*
X146752193Y-153806706D01*
X146742525Y-153803149D01*
X146525420Y-153742940D01*
X146515301Y-153741009D01*
X146331405Y-153721356D01*
X146324713Y-153721000D01*
X145924115Y-153721000D01*
X145908876Y-153725475D01*
X145907671Y-153726865D01*
X145906000Y-153734548D01*
X145906000Y-154881885D01*
X145398000Y-154881885D01*
X145398000Y-153739115D01*
X145393525Y-153723876D01*
X145392135Y-153722671D01*
X145384452Y-153721000D01*
X144995855Y-153721000D01*
X144990682Y-153721212D01*
X144823313Y-153734973D01*
X144813133Y-153736658D01*
X144594623Y-153791544D01*
X144584872Y-153794864D01*
X144378251Y-153884704D01*
X144369176Y-153889570D01*
X144180010Y-154011948D01*
X144171839Y-154018240D01*
X144005200Y-154169869D01*
X143998175Y-154177402D01*
X143858534Y-154354218D01*
X143852838Y-154362791D01*
X143743948Y-154560045D01*
X143739727Y-154569440D01*
X143664519Y-154781820D01*
X143661887Y-154791783D01*
X143645788Y-154882163D01*
X131144145Y-154882163D01*
X131142167Y-154865071D01*
X131142166Y-154865067D01*
X131141585Y-154860044D01*
X131131918Y-154825879D01*
X131076866Y-154631331D01*
X131075490Y-154626468D01*
X131073356Y-154621892D01*
X131073354Y-154621886D01*
X130975038Y-154411046D01*
X130975036Y-154411042D01*
X130972901Y-154406464D01*
X130836456Y-154205693D01*
X130669668Y-154029319D01*
X130556544Y-153942829D01*
X130514576Y-153885564D01*
X130510231Y-153814701D01*
X130544887Y-153752737D01*
X130559910Y-153740151D01*
X130561363Y-153739115D01*
X130569243Y-153733494D01*
X130733303Y-153570005D01*
X130736317Y-153565811D01*
X130736326Y-153565800D01*
X130772848Y-153514974D01*
X130828842Y-153471326D01*
X130875170Y-153462500D01*
X135478186Y-153462500D01*
X135479506Y-153462507D01*
X135569621Y-153463451D01*
X135611997Y-153454289D01*
X135624563Y-153452231D01*
X135667655Y-153447397D01*
X135674306Y-153445081D01*
X135674310Y-153445080D01*
X135699330Y-153436367D01*
X135714142Y-153432204D01*
X135740019Y-153426609D01*
X135746910Y-153425119D01*
X135786213Y-153406792D01*
X135797989Y-153402010D01*
X135838952Y-153387745D01*
X135844927Y-153384011D01*
X135844930Y-153384010D01*
X135867395Y-153369973D01*
X135880912Y-153362634D01*
X135904914Y-153351441D01*
X135904915Y-153351440D01*
X135911302Y-153348462D01*
X135929164Y-153334607D01*
X135945553Y-153321894D01*
X135956012Y-153314598D01*
X135986804Y-153295358D01*
X135986807Y-153295356D01*
X135992776Y-153291626D01*
X136005951Y-153278543D01*
X136021579Y-153263024D01*
X136022204Y-153262439D01*
X136022870Y-153261922D01*
X136048860Y-153235932D01*
X136121482Y-153163815D01*
X136122140Y-153162778D01*
X136123243Y-153161549D01*
X139030453Y-150254339D01*
X143618091Y-150254339D01*
X143653747Y-150487349D01*
X143726980Y-150711407D01*
X143835825Y-150920496D01*
X143838928Y-150924629D01*
X143838930Y-150924632D01*
X143974253Y-151104865D01*
X143977358Y-151109000D01*
X143981096Y-151112572D01*
X144133255Y-151257979D01*
X144147777Y-151271857D01*
X144342508Y-151404693D01*
X144347192Y-151406867D01*
X144347195Y-151406869D01*
X144551628Y-151501764D01*
X144551633Y-151501766D01*
X144556319Y-151503941D01*
X144783468Y-151566935D01*
X144788605Y-151567484D01*
X144972563Y-151587144D01*
X144972571Y-151587144D01*
X144975898Y-151587500D01*
X146310757Y-151587500D01*
X146313330Y-151587288D01*
X146313341Y-151587288D01*
X146480779Y-151573522D01*
X146480785Y-151573521D01*
X146485930Y-151573098D01*
X146714551Y-151515673D01*
X146930723Y-151421678D01*
X147128641Y-151293640D01*
X147134253Y-151288534D01*
X147299167Y-151138473D01*
X147299168Y-151138471D01*
X147302989Y-151134995D01*
X147306188Y-151130944D01*
X147306192Y-151130940D01*
X147445883Y-150954061D01*
X147445885Y-150954057D01*
X147449085Y-150950006D01*
X147563005Y-150743639D01*
X147572794Y-150715998D01*
X147639965Y-150526311D01*
X147639966Y-150526307D01*
X147641691Y-150521436D01*
X147642599Y-150516340D01*
X147682123Y-150294456D01*
X147682124Y-150294450D01*
X147683029Y-150289367D01*
X147683457Y-150254339D01*
X156118091Y-150254339D01*
X156153747Y-150487349D01*
X156226980Y-150711407D01*
X156335825Y-150920496D01*
X156338928Y-150924629D01*
X156338930Y-150924632D01*
X156474253Y-151104865D01*
X156477358Y-151109000D01*
X156481096Y-151112572D01*
X156633255Y-151257979D01*
X156647777Y-151271857D01*
X156842508Y-151404693D01*
X156847192Y-151406867D01*
X156847195Y-151406869D01*
X157051628Y-151501764D01*
X157051633Y-151501766D01*
X157056319Y-151503941D01*
X157283468Y-151566935D01*
X157288605Y-151567484D01*
X157472563Y-151587144D01*
X157472571Y-151587144D01*
X157475898Y-151587500D01*
X158810757Y-151587500D01*
X158813330Y-151587288D01*
X158813341Y-151587288D01*
X158980779Y-151573522D01*
X158980785Y-151573521D01*
X158985930Y-151573098D01*
X159214551Y-151515673D01*
X159430723Y-151421678D01*
X159628641Y-151293640D01*
X159634253Y-151288534D01*
X159799167Y-151138473D01*
X159799168Y-151138471D01*
X159802989Y-151134995D01*
X159806188Y-151130944D01*
X159806192Y-151130940D01*
X159945883Y-150954061D01*
X159945885Y-150954057D01*
X159949085Y-150950006D01*
X160063005Y-150743639D01*
X160072794Y-150715998D01*
X160139965Y-150526311D01*
X160139966Y-150526307D01*
X160141691Y-150521436D01*
X160142599Y-150516340D01*
X160182123Y-150294456D01*
X160182124Y-150294450D01*
X160183029Y-150289367D01*
X160185909Y-150053661D01*
X160150253Y-149820651D01*
X160077020Y-149596593D01*
X159968175Y-149387504D01*
X159949415Y-149362517D01*
X159829747Y-149203135D01*
X159829745Y-149203132D01*
X159826642Y-149199000D01*
X159656223Y-149036143D01*
X159461492Y-148903307D01*
X159456808Y-148901133D01*
X159456805Y-148901131D01*
X159252372Y-148806236D01*
X159252367Y-148806234D01*
X159247681Y-148804059D01*
X159020532Y-148741065D01*
X159015395Y-148740516D01*
X158831437Y-148720856D01*
X158831429Y-148720856D01*
X158828102Y-148720500D01*
X157493243Y-148720500D01*
X157490670Y-148720712D01*
X157490659Y-148720712D01*
X157323221Y-148734478D01*
X157323215Y-148734479D01*
X157318070Y-148734902D01*
X157089449Y-148792327D01*
X156873277Y-148886322D01*
X156675359Y-149014360D01*
X156671536Y-149017839D01*
X156671533Y-149017841D01*
X156524482Y-149151648D01*
X156501011Y-149173005D01*
X156497812Y-149177056D01*
X156497808Y-149177060D01*
X156389156Y-149314637D01*
X156354915Y-149357994D01*
X156240995Y-149564361D01*
X156239271Y-149569230D01*
X156239269Y-149569234D01*
X156184995Y-149722500D01*
X156162309Y-149786564D01*
X156161402Y-149791657D01*
X156161401Y-149791660D01*
X156136579Y-149931012D01*
X156120971Y-150018633D01*
X156118091Y-150254339D01*
X147683457Y-150254339D01*
X147685909Y-150053661D01*
X147650253Y-149820651D01*
X147577020Y-149596593D01*
X147468175Y-149387504D01*
X147449415Y-149362517D01*
X147329747Y-149203135D01*
X147329745Y-149203132D01*
X147326642Y-149199000D01*
X147156223Y-149036143D01*
X146961492Y-148903307D01*
X146956808Y-148901133D01*
X146956805Y-148901131D01*
X146752372Y-148806236D01*
X146752367Y-148806234D01*
X146747681Y-148804059D01*
X146520532Y-148741065D01*
X146515395Y-148740516D01*
X146331437Y-148720856D01*
X146331429Y-148720856D01*
X146328102Y-148720500D01*
X144993243Y-148720500D01*
X144990670Y-148720712D01*
X144990659Y-148720712D01*
X144823221Y-148734478D01*
X144823215Y-148734479D01*
X144818070Y-148734902D01*
X144589449Y-148792327D01*
X144373277Y-148886322D01*
X144175359Y-149014360D01*
X144171536Y-149017839D01*
X144171533Y-149017841D01*
X144024482Y-149151648D01*
X144001011Y-149173005D01*
X143997812Y-149177056D01*
X143997808Y-149177060D01*
X143889156Y-149314637D01*
X143854915Y-149357994D01*
X143740995Y-149564361D01*
X143739271Y-149569230D01*
X143739269Y-149569234D01*
X143684995Y-149722500D01*
X143662309Y-149786564D01*
X143661402Y-149791657D01*
X143661401Y-149791660D01*
X143636579Y-149931012D01*
X143620971Y-150018633D01*
X143618091Y-150254339D01*
X139030453Y-150254339D01*
X155248405Y-134036387D01*
X155310717Y-134002361D01*
X155381532Y-134007426D01*
X155438368Y-134049973D01*
X155463179Y-134116493D01*
X155463500Y-134125482D01*
X155463500Y-135443001D01*
X155463702Y-135445509D01*
X155463702Y-135445514D01*
X155476659Y-135606546D01*
X155478060Y-135623965D01*
X155535963Y-135859706D01*
X155630812Y-136083156D01*
X155760167Y-136288567D01*
X155786225Y-136318124D01*
X155917350Y-136466858D01*
X155917353Y-136466861D01*
X155920698Y-136470655D01*
X155924606Y-136473865D01*
X155924607Y-136473866D01*
X156100354Y-136618225D01*
X156108278Y-136624734D01*
X156318078Y-136746841D01*
X156322801Y-136748654D01*
X156539978Y-136832020D01*
X156539982Y-136832021D01*
X156544702Y-136833833D01*
X156549652Y-136834867D01*
X156549655Y-136834868D01*
X156777369Y-136882440D01*
X156777373Y-136882440D01*
X156782320Y-136883474D01*
X157024817Y-136894486D01*
X157029837Y-136893905D01*
X157029841Y-136893905D01*
X157260929Y-136867167D01*
X157260933Y-136867166D01*
X157265956Y-136866585D01*
X157270820Y-136865209D01*
X157270823Y-136865208D01*
X157494669Y-136801866D01*
X157494668Y-136801866D01*
X157499532Y-136800490D01*
X157504108Y-136798356D01*
X157504114Y-136798354D01*
X157714954Y-136700038D01*
X157714958Y-136700036D01*
X157719536Y-136697901D01*
X157920307Y-136561456D01*
X158096681Y-136394668D01*
X158147748Y-136327875D01*
X158241047Y-136205846D01*
X158241050Y-136205842D01*
X158244120Y-136201826D01*
X158261467Y-136169475D01*
X158356439Y-135992352D01*
X158358831Y-135987891D01*
X158437862Y-135758369D01*
X158473216Y-135553687D01*
X158478504Y-135523074D01*
X158478505Y-135523068D01*
X158479179Y-135519164D01*
X158480500Y-135490075D01*
X158480500Y-134472231D01*
X158500502Y-134404110D01*
X158517405Y-134383136D01*
X169078983Y-123821558D01*
X169141295Y-123787532D01*
X169212110Y-123792597D01*
X169268946Y-123835144D01*
X169289785Y-123878041D01*
X169342765Y-124075764D01*
X169346510Y-124086053D01*
X169438586Y-124283511D01*
X169444069Y-124293007D01*
X169569028Y-124471467D01*
X169576084Y-124479875D01*
X169730125Y-124633916D01*
X169738533Y-124640972D01*
X169916993Y-124765931D01*
X169926489Y-124771414D01*
X170123947Y-124863490D01*
X170134239Y-124867236D01*
X170306503Y-124913394D01*
X170320599Y-124913058D01*
X170324000Y-124905116D01*
X170324000Y-123304000D01*
X170344002Y-123235879D01*
X170397658Y-123189386D01*
X170450000Y-123178000D01*
X170706000Y-123178000D01*
X170774121Y-123198002D01*
X170820614Y-123251658D01*
X170832000Y-123304000D01*
X170832000Y-124899967D01*
X170835973Y-124913498D01*
X170844522Y-124914727D01*
X171021761Y-124867236D01*
X171032053Y-124863490D01*
X171229511Y-124771414D01*
X171239007Y-124765931D01*
X171417467Y-124640972D01*
X171425875Y-124633916D01*
X171579916Y-124479875D01*
X171586972Y-124471467D01*
X171690314Y-124323879D01*
X171745771Y-124279551D01*
X171816390Y-124272242D01*
X171879751Y-124304273D01*
X171900147Y-124329008D01*
X171906167Y-124338567D01*
X171909512Y-124342361D01*
X172063350Y-124516858D01*
X172063353Y-124516861D01*
X172066698Y-124520655D01*
X172070606Y-124523865D01*
X172070607Y-124523866D01*
X172205054Y-124634301D01*
X172254278Y-124674734D01*
X172258646Y-124677276D01*
X172434945Y-124779885D01*
X172464078Y-124796841D01*
X172468801Y-124798654D01*
X172685978Y-124882020D01*
X172685982Y-124882021D01*
X172690702Y-124883833D01*
X172695652Y-124884867D01*
X172695655Y-124884868D01*
X172883585Y-124924129D01*
X172883586Y-124924129D01*
X172887877Y-124925025D01*
X172887878Y-124925026D01*
X172888344Y-124925123D01*
X172888319Y-124925244D01*
X172890524Y-124926337D01*
X172890676Y-124925610D01*
X172928320Y-124933474D01*
X172933370Y-124933703D01*
X172933375Y-124933704D01*
X173034296Y-124938287D01*
X173039560Y-124938636D01*
X173112525Y-124945019D01*
X173118000Y-124945498D01*
X173123475Y-124945019D01*
X173123477Y-124945019D01*
X173135332Y-124943982D01*
X173152026Y-124943633D01*
X173165762Y-124944257D01*
X173165769Y-124944257D01*
X173170817Y-124944486D01*
X173175838Y-124943905D01*
X173175840Y-124943905D01*
X173221375Y-124938636D01*
X173296996Y-124929886D01*
X173300438Y-124929536D01*
X173346087Y-124925543D01*
X173351396Y-124924121D01*
X173356425Y-124923234D01*
X173363820Y-124922155D01*
X173406927Y-124917167D01*
X173406928Y-124917167D01*
X173411956Y-124916585D01*
X173645532Y-124850490D01*
X173650108Y-124848356D01*
X173650114Y-124848354D01*
X173860954Y-124750038D01*
X173860958Y-124750036D01*
X173865536Y-124747901D01*
X174066307Y-124611456D01*
X174242681Y-124444668D01*
X174340104Y-124317244D01*
X174397367Y-124275277D01*
X174468231Y-124270932D01*
X174530194Y-124305588D01*
X174543410Y-124321500D01*
X174555360Y-124338567D01*
X174632090Y-124448148D01*
X174651802Y-124476300D01*
X174813700Y-124638198D01*
X174818208Y-124641355D01*
X174818211Y-124641357D01*
X174869509Y-124677276D01*
X175001251Y-124769523D01*
X175006233Y-124771846D01*
X175006238Y-124771849D01*
X175174886Y-124850490D01*
X175208757Y-124866284D01*
X175214065Y-124867706D01*
X175214067Y-124867707D01*
X175424598Y-124924119D01*
X175424600Y-124924119D01*
X175429913Y-124925543D01*
X175658000Y-124945498D01*
X175886087Y-124925543D01*
X175891400Y-124924119D01*
X175891402Y-124924119D01*
X176101933Y-124867707D01*
X176101935Y-124867706D01*
X176107243Y-124866284D01*
X176141114Y-124850490D01*
X176309762Y-124771849D01*
X176309767Y-124771846D01*
X176314749Y-124769523D01*
X176446491Y-124677276D01*
X176497789Y-124641357D01*
X176497792Y-124641355D01*
X176502300Y-124638198D01*
X176664198Y-124476300D01*
X176683911Y-124448148D01*
X176760640Y-124338567D01*
X176795523Y-124288749D01*
X176797846Y-124283767D01*
X176797849Y-124283762D01*
X176813805Y-124249543D01*
X176860722Y-124196258D01*
X176928999Y-124176797D01*
X176996959Y-124197339D01*
X177042195Y-124249543D01*
X177058151Y-124283762D01*
X177058154Y-124283767D01*
X177060477Y-124288749D01*
X177095360Y-124338567D01*
X177172090Y-124448148D01*
X177191802Y-124476300D01*
X177353700Y-124638198D01*
X177358208Y-124641355D01*
X177358211Y-124641357D01*
X177409509Y-124677276D01*
X177541251Y-124769523D01*
X177546236Y-124771847D01*
X177546242Y-124771851D01*
X177709223Y-124847849D01*
X177762509Y-124894766D01*
X177781970Y-124963043D01*
X177761429Y-125031003D01*
X177745069Y-125051139D01*
X160639613Y-142156595D01*
X160577301Y-142190621D01*
X160550518Y-142193500D01*
X158066188Y-142193500D01*
X157998067Y-142173498D01*
X157977093Y-142156595D01*
X157816300Y-141995802D01*
X157811792Y-141992645D01*
X157811789Y-141992643D01*
X157733611Y-141937902D01*
X157628749Y-141864477D01*
X157623767Y-141862154D01*
X157623762Y-141862151D01*
X157426225Y-141770039D01*
X157426224Y-141770039D01*
X157421243Y-141767716D01*
X157415935Y-141766294D01*
X157415933Y-141766293D01*
X157205402Y-141709881D01*
X157205400Y-141709881D01*
X157200087Y-141708457D01*
X156972000Y-141688502D01*
X156743913Y-141708457D01*
X156738600Y-141709881D01*
X156738598Y-141709881D01*
X156528067Y-141766293D01*
X156528065Y-141766294D01*
X156522757Y-141767716D01*
X156517776Y-141770039D01*
X156517775Y-141770039D01*
X156320238Y-141862151D01*
X156320233Y-141862154D01*
X156315251Y-141864477D01*
X156210389Y-141937902D01*
X156132211Y-141992643D01*
X156132208Y-141992645D01*
X156127700Y-141995802D01*
X155965802Y-142157700D01*
X155834477Y-142345251D01*
X155832154Y-142350233D01*
X155832151Y-142350238D01*
X155740039Y-142547775D01*
X155737716Y-142552757D01*
X155678457Y-142773913D01*
X155658502Y-143002000D01*
X155678457Y-143230087D01*
X155737716Y-143451243D01*
X155740039Y-143456224D01*
X155740039Y-143456225D01*
X155832151Y-143653762D01*
X155832154Y-143653767D01*
X155834477Y-143658749D01*
X155873087Y-143713890D01*
X155941349Y-143811377D01*
X155965802Y-143846300D01*
X156127700Y-144008198D01*
X156132208Y-144011355D01*
X156132211Y-144011357D01*
X156210389Y-144066098D01*
X156315251Y-144139523D01*
X156320233Y-144141846D01*
X156320238Y-144141849D01*
X156517775Y-144233961D01*
X156522757Y-144236284D01*
X156528065Y-144237706D01*
X156528067Y-144237707D01*
X156738598Y-144294119D01*
X156738600Y-144294119D01*
X156743913Y-144295543D01*
X156972000Y-144315498D01*
X157200087Y-144295543D01*
X157205400Y-144294119D01*
X157205402Y-144294119D01*
X157415933Y-144237707D01*
X157415935Y-144237706D01*
X157421243Y-144236284D01*
X157426225Y-144233961D01*
X157623762Y-144141849D01*
X157623767Y-144141846D01*
X157628749Y-144139523D01*
X157733611Y-144066098D01*
X157811789Y-144011357D01*
X157811792Y-144011355D01*
X157816300Y-144008198D01*
X157977093Y-143847405D01*
X158039405Y-143813379D01*
X158066188Y-143810500D01*
X160928386Y-143810500D01*
X160929706Y-143810507D01*
X161019821Y-143811451D01*
X161062197Y-143802289D01*
X161074763Y-143800231D01*
X161117855Y-143795397D01*
X161124506Y-143793081D01*
X161124510Y-143793080D01*
X161149530Y-143784367D01*
X161164342Y-143780204D01*
X161190219Y-143774609D01*
X161197110Y-143773119D01*
X161236413Y-143754792D01*
X161248189Y-143750010D01*
X161289152Y-143735745D01*
X161295127Y-143732011D01*
X161295130Y-143732010D01*
X161317595Y-143717973D01*
X161331112Y-143710634D01*
X161355114Y-143699441D01*
X161355115Y-143699440D01*
X161361502Y-143696462D01*
X161395753Y-143669894D01*
X161406212Y-143662598D01*
X161437004Y-143643358D01*
X161437007Y-143643356D01*
X161442976Y-143639626D01*
X161471779Y-143611024D01*
X161472404Y-143610439D01*
X161473070Y-143609922D01*
X161499060Y-143583932D01*
X161571682Y-143511815D01*
X161572340Y-143510778D01*
X161573443Y-143509549D01*
X180450010Y-124632981D01*
X180450947Y-124632053D01*
X180510374Y-124573858D01*
X180510375Y-124573856D01*
X180515407Y-124568929D01*
X180519222Y-124563009D01*
X180519227Y-124563003D01*
X180538894Y-124532486D01*
X180546327Y-124522141D01*
X180573376Y-124488257D01*
X180581493Y-124471467D01*
X180587972Y-124458063D01*
X180595502Y-124444645D01*
X180613665Y-124416462D01*
X180616073Y-124409845D01*
X180616076Y-124409840D01*
X180628492Y-124375727D01*
X180633453Y-124363984D01*
X180649253Y-124331300D01*
X180649256Y-124331291D01*
X180652321Y-124324951D01*
X180659866Y-124292272D01*
X180664234Y-124277525D01*
X180675703Y-124246015D01*
X180676585Y-124239030D01*
X180676587Y-124239023D01*
X180681137Y-124203008D01*
X180683372Y-124190457D01*
X180691540Y-124155078D01*
X180693125Y-124148215D01*
X180693158Y-124138969D01*
X180693267Y-124107626D01*
X180693296Y-124106757D01*
X180693400Y-124105931D01*
X180693400Y-124069414D01*
X180693758Y-123966830D01*
X180693489Y-123965627D01*
X180693400Y-123963983D01*
X180693400Y-116150414D01*
X180693407Y-116149094D01*
X180694084Y-116084484D01*
X180694351Y-116058979D01*
X180685189Y-116016603D01*
X180683130Y-116004032D01*
X180679082Y-115967944D01*
X180678297Y-115960945D01*
X180667408Y-115929674D01*
X180667267Y-115929270D01*
X180663104Y-115914458D01*
X180657509Y-115888581D01*
X180656019Y-115881690D01*
X180637692Y-115842387D01*
X180632910Y-115830611D01*
X180618645Y-115789648D01*
X180614910Y-115783670D01*
X180600873Y-115761205D01*
X180593534Y-115747688D01*
X180582341Y-115723686D01*
X180582340Y-115723685D01*
X180579362Y-115717298D01*
X180572808Y-115708848D01*
X180552794Y-115683047D01*
X180545498Y-115672588D01*
X180526258Y-115641796D01*
X180526256Y-115641793D01*
X180522526Y-115635824D01*
X180493924Y-115607021D01*
X180493339Y-115606396D01*
X180492822Y-115605730D01*
X180466832Y-115579740D01*
X180394715Y-115507118D01*
X180393678Y-115506460D01*
X180392449Y-115505357D01*
X175054934Y-110167842D01*
X175054006Y-110166905D01*
X174995857Y-110107525D01*
X174995856Y-110107524D01*
X174990929Y-110102493D01*
X174954479Y-110079002D01*
X174944154Y-110071583D01*
X174910257Y-110044524D01*
X174880062Y-110029927D01*
X174866645Y-110022398D01*
X174838462Y-110004235D01*
X174831845Y-110001827D01*
X174831840Y-110001824D01*
X174797727Y-109989408D01*
X174785984Y-109984447D01*
X174753297Y-109968646D01*
X174753292Y-109968644D01*
X174746951Y-109965579D01*
X174740093Y-109963996D01*
X174740091Y-109963995D01*
X174714274Y-109958035D01*
X174699531Y-109953668D01*
X174668015Y-109942197D01*
X174661025Y-109941314D01*
X174661017Y-109941312D01*
X174624999Y-109936762D01*
X174612447Y-109934526D01*
X174577086Y-109926362D01*
X174577083Y-109926362D01*
X174570215Y-109924776D01*
X174563169Y-109924751D01*
X174563166Y-109924751D01*
X174529644Y-109924634D01*
X174528762Y-109924605D01*
X174527931Y-109924500D01*
X174491281Y-109924500D01*
X174490841Y-109924499D01*
X174392357Y-109924155D01*
X174392352Y-109924155D01*
X174388830Y-109924143D01*
X174387630Y-109924411D01*
X174385993Y-109924500D01*
X159634081Y-109924500D01*
X159565960Y-109904498D01*
X159544986Y-109887595D01*
X154024492Y-104367100D01*
X153990466Y-104304788D01*
X153995531Y-104233973D01*
X154038078Y-104177137D01*
X154076538Y-104157575D01*
X154088689Y-104153837D01*
X154147651Y-104135698D01*
X154152631Y-104133128D01*
X154152635Y-104133126D01*
X154342387Y-104035187D01*
X154342388Y-104035187D01*
X154347370Y-104032615D01*
X154362385Y-104021094D01*
X154364729Y-104019295D01*
X154525679Y-103895794D01*
X154676940Y-103729559D01*
X154796374Y-103539166D01*
X154823006Y-103472918D01*
X154866970Y-103417176D01*
X154934095Y-103394051D01*
X155003066Y-103410888D01*
X155053637Y-103465673D01*
X155121885Y-103608759D01*
X155253038Y-103791278D01*
X155414439Y-103947686D01*
X155600987Y-104073041D01*
X155606133Y-104075300D01*
X155606135Y-104075301D01*
X155626342Y-104084171D01*
X155806785Y-104163380D01*
X155812233Y-104164688D01*
X155812239Y-104164690D01*
X156019871Y-104214538D01*
X156019872Y-104214538D01*
X156025328Y-104215848D01*
X156109985Y-104220729D01*
X156244101Y-104228462D01*
X156244104Y-104228462D01*
X156249708Y-104228785D01*
X156472833Y-104201784D01*
X156687651Y-104135698D01*
X156692631Y-104133128D01*
X156692635Y-104133126D01*
X156882387Y-104035187D01*
X156882388Y-104035187D01*
X156887370Y-104032615D01*
X156902385Y-104021094D01*
X156904729Y-104019295D01*
X157065679Y-103895794D01*
X157216940Y-103729559D01*
X157336374Y-103539166D01*
X157363006Y-103472918D01*
X157406970Y-103417176D01*
X157474095Y-103394051D01*
X157543066Y-103410888D01*
X157593637Y-103465673D01*
X157661885Y-103608759D01*
X157793038Y-103791278D01*
X157954439Y-103947686D01*
X158140987Y-104073041D01*
X158146133Y-104075300D01*
X158146135Y-104075301D01*
X158166342Y-104084171D01*
X158346785Y-104163380D01*
X158352233Y-104164688D01*
X158352239Y-104164690D01*
X158559871Y-104214538D01*
X158559872Y-104214538D01*
X158565328Y-104215848D01*
X158649985Y-104220729D01*
X158784101Y-104228462D01*
X158784104Y-104228462D01*
X158789708Y-104228785D01*
X159012833Y-104201784D01*
X159227651Y-104135698D01*
X159232631Y-104133128D01*
X159232635Y-104133126D01*
X159422387Y-104035187D01*
X159422388Y-104035187D01*
X159427370Y-104032615D01*
X159442385Y-104021094D01*
X159444729Y-104019295D01*
X159605679Y-103895794D01*
X159756940Y-103729559D01*
X159876374Y-103539166D01*
X159903006Y-103472918D01*
X159946970Y-103417176D01*
X160014095Y-103394051D01*
X160083066Y-103410888D01*
X160133637Y-103465673D01*
X160201885Y-103608759D01*
X160333038Y-103791278D01*
X160494439Y-103947686D01*
X160680987Y-104073041D01*
X160686133Y-104075300D01*
X160686135Y-104075301D01*
X160706342Y-104084171D01*
X160886785Y-104163380D01*
X160892233Y-104164688D01*
X160892239Y-104164690D01*
X161099871Y-104214538D01*
X161099872Y-104214538D01*
X161105328Y-104215848D01*
X161189985Y-104220729D01*
X161324101Y-104228462D01*
X161324104Y-104228462D01*
X161329708Y-104228785D01*
X161552833Y-104201784D01*
X161767651Y-104135698D01*
X161772631Y-104133128D01*
X161772635Y-104133126D01*
X161962387Y-104035187D01*
X161962388Y-104035187D01*
X161967370Y-104032615D01*
X161982385Y-104021094D01*
X161984729Y-104019295D01*
X162145679Y-103895794D01*
X162296940Y-103729559D01*
X162416374Y-103539166D01*
X162443006Y-103472918D01*
X162486970Y-103417176D01*
X162554095Y-103394051D01*
X162623066Y-103410888D01*
X162673637Y-103465673D01*
X162741885Y-103608759D01*
X162873038Y-103791278D01*
X163034439Y-103947686D01*
X163220987Y-104073041D01*
X163226133Y-104075300D01*
X163226135Y-104075301D01*
X163246342Y-104084171D01*
X163426785Y-104163380D01*
X163432233Y-104164688D01*
X163432239Y-104164690D01*
X163639871Y-104214538D01*
X163639872Y-104214538D01*
X163645328Y-104215848D01*
X163729985Y-104220729D01*
X163864101Y-104228462D01*
X163864104Y-104228462D01*
X163869708Y-104228785D01*
X164092833Y-104201784D01*
X164307651Y-104135698D01*
X164312631Y-104133128D01*
X164312635Y-104133126D01*
X164502387Y-104035187D01*
X164502388Y-104035187D01*
X164507370Y-104032615D01*
X164522385Y-104021094D01*
X164524729Y-104019295D01*
X164685679Y-103895794D01*
X164836940Y-103729559D01*
X164956374Y-103539166D01*
X164983006Y-103472918D01*
X165026970Y-103417176D01*
X165094095Y-103394051D01*
X165163066Y-103410888D01*
X165213637Y-103465673D01*
X165281885Y-103608759D01*
X165413038Y-103791278D01*
X165574439Y-103947686D01*
X165760987Y-104073041D01*
X165766133Y-104075300D01*
X165766135Y-104075301D01*
X165786342Y-104084171D01*
X165966785Y-104163380D01*
X165972233Y-104164688D01*
X165972239Y-104164690D01*
X166179871Y-104214538D01*
X166179872Y-104214538D01*
X166185328Y-104215848D01*
X166269985Y-104220729D01*
X166404101Y-104228462D01*
X166404104Y-104228462D01*
X166409708Y-104228785D01*
X166632833Y-104201784D01*
X166847651Y-104135698D01*
X166852631Y-104133128D01*
X166852635Y-104133126D01*
X167042387Y-104035187D01*
X167042388Y-104035187D01*
X167047370Y-104032615D01*
X167062385Y-104021094D01*
X167064729Y-104019295D01*
X167225679Y-103895794D01*
X167376940Y-103729559D01*
X167496374Y-103539166D01*
X167498561Y-103533727D01*
X167523257Y-103472292D01*
X167567223Y-103416547D01*
X167634348Y-103393422D01*
X167703320Y-103410259D01*
X167753890Y-103465044D01*
X167819900Y-103603437D01*
X167825595Y-103613066D01*
X167950141Y-103786390D01*
X167957448Y-103794855D01*
X168110727Y-103943392D01*
X168119409Y-103950423D01*
X168296568Y-104069469D01*
X168306377Y-104074861D01*
X168501804Y-104160647D01*
X168512399Y-104164213D01*
X168638385Y-104194460D01*
X168652470Y-104193755D01*
X168656000Y-104184876D01*
X168656000Y-104184234D01*
X169164000Y-104184234D01*
X169168106Y-104198216D01*
X169177757Y-104199714D01*
X169178093Y-104199643D01*
X169382100Y-104136882D01*
X169392445Y-104132661D01*
X169582120Y-104034762D01*
X169591551Y-104028776D01*
X169760888Y-103898839D01*
X169769114Y-103891276D01*
X169912762Y-103733409D01*
X169919525Y-103724498D01*
X170032942Y-103543697D01*
X170038022Y-103533727D01*
X170062711Y-103472310D01*
X170106678Y-103416565D01*
X170173802Y-103393439D01*
X170242774Y-103410275D01*
X170293345Y-103465061D01*
X170361885Y-103608759D01*
X170493038Y-103791278D01*
X170654439Y-103947686D01*
X170840987Y-104073041D01*
X170846133Y-104075300D01*
X170846135Y-104075301D01*
X170866342Y-104084171D01*
X171046785Y-104163380D01*
X171052233Y-104164688D01*
X171052239Y-104164690D01*
X171259871Y-104214538D01*
X171259872Y-104214538D01*
X171265328Y-104215848D01*
X171349985Y-104220729D01*
X171484101Y-104228462D01*
X171484104Y-104228462D01*
X171489708Y-104228785D01*
X171712833Y-104201784D01*
X171927651Y-104135698D01*
X171932631Y-104133128D01*
X171932635Y-104133126D01*
X172122387Y-104035187D01*
X172122388Y-104035187D01*
X172127370Y-104032615D01*
X172142385Y-104021094D01*
X172144729Y-104019295D01*
X172305679Y-103895794D01*
X172456940Y-103729559D01*
X172576374Y-103539166D01*
X172603006Y-103472918D01*
X172646970Y-103417176D01*
X172714095Y-103394051D01*
X172783066Y-103410888D01*
X172833637Y-103465673D01*
X172901885Y-103608759D01*
X173033038Y-103791278D01*
X173194439Y-103947686D01*
X173380987Y-104073041D01*
X173386133Y-104075300D01*
X173386135Y-104075301D01*
X173406342Y-104084171D01*
X173586785Y-104163380D01*
X173592233Y-104164688D01*
X173592239Y-104164690D01*
X173799871Y-104214538D01*
X173799872Y-104214538D01*
X173805328Y-104215848D01*
X173889985Y-104220729D01*
X174024101Y-104228462D01*
X174024104Y-104228462D01*
X174029708Y-104228785D01*
X174252833Y-104201784D01*
X174467651Y-104135698D01*
X174472631Y-104133128D01*
X174472635Y-104133126D01*
X174662387Y-104035187D01*
X174662388Y-104035187D01*
X174667370Y-104032615D01*
X174682385Y-104021094D01*
X174684729Y-104019295D01*
X174845679Y-103895794D01*
X174996940Y-103729559D01*
X175116374Y-103539166D01*
X175143006Y-103472918D01*
X175186970Y-103417176D01*
X175254095Y-103394051D01*
X175323066Y-103410888D01*
X175373637Y-103465673D01*
X175441885Y-103608759D01*
X175573038Y-103791278D01*
X175734439Y-103947686D01*
X175920987Y-104073041D01*
X175926133Y-104075300D01*
X175926135Y-104075301D01*
X175946342Y-104084171D01*
X176126785Y-104163380D01*
X176132233Y-104164688D01*
X176132239Y-104164690D01*
X176339871Y-104214538D01*
X176339872Y-104214538D01*
X176345328Y-104215848D01*
X176429985Y-104220729D01*
X176564101Y-104228462D01*
X176564104Y-104228462D01*
X176569708Y-104228785D01*
X176792833Y-104201784D01*
X177007651Y-104135698D01*
X177012631Y-104133128D01*
X177012635Y-104133126D01*
X177202387Y-104035187D01*
X177202388Y-104035187D01*
X177207370Y-104032615D01*
X177222385Y-104021094D01*
X177224729Y-104019295D01*
X177385679Y-103895794D01*
X177536940Y-103729559D01*
X177656374Y-103539166D01*
X177658561Y-103533727D01*
X177738108Y-103335846D01*
X177740204Y-103330632D01*
X177785781Y-103110549D01*
X177789070Y-103053508D01*
X177789070Y-102209728D01*
X177785120Y-102165462D01*
X177774679Y-102048482D01*
X177774180Y-102042887D01*
X177757689Y-101982605D01*
X177718866Y-101840696D01*
X177714873Y-101826100D01*
X177709787Y-101815435D01*
X177656413Y-101703535D01*
X177618115Y-101623241D01*
X177486962Y-101440722D01*
X177325561Y-101284314D01*
X177139013Y-101158959D01*
X177129512Y-101154788D01*
X177003195Y-101099339D01*
X176933215Y-101068620D01*
X176927767Y-101067312D01*
X176927761Y-101067310D01*
X176720129Y-101017462D01*
X176720128Y-101017462D01*
X176714672Y-101016152D01*
X176630015Y-101011271D01*
X176495899Y-101003538D01*
X176495896Y-101003538D01*
X176490292Y-101003215D01*
X176267167Y-101030216D01*
X176052349Y-101096302D01*
X176047369Y-101098872D01*
X176047365Y-101098874D01*
X175924033Y-101162531D01*
X175852630Y-101199385D01*
X175674321Y-101336206D01*
X175523060Y-101502441D01*
X175403626Y-101692834D01*
X175376994Y-101759082D01*
X175333030Y-101814824D01*
X175265905Y-101837949D01*
X175196934Y-101821112D01*
X175146363Y-101766327D01*
X175116413Y-101703535D01*
X175078115Y-101623241D01*
X174946962Y-101440722D01*
X174785561Y-101284314D01*
X174599013Y-101158959D01*
X174589512Y-101154788D01*
X174463195Y-101099339D01*
X174393215Y-101068620D01*
X174387767Y-101067312D01*
X174387761Y-101067310D01*
X174180129Y-101017462D01*
X174180128Y-101017462D01*
X174174672Y-101016152D01*
X174090015Y-101011271D01*
X173955899Y-101003538D01*
X173955896Y-101003538D01*
X173950292Y-101003215D01*
X173727167Y-101030216D01*
X173512349Y-101096302D01*
X173507369Y-101098872D01*
X173507365Y-101098874D01*
X173384033Y-101162531D01*
X173312630Y-101199385D01*
X173134321Y-101336206D01*
X172983060Y-101502441D01*
X172863626Y-101692834D01*
X172836994Y-101759082D01*
X172793030Y-101814824D01*
X172725905Y-101837949D01*
X172656934Y-101821112D01*
X172606363Y-101766327D01*
X172576413Y-101703535D01*
X172538115Y-101623241D01*
X172406962Y-101440722D01*
X172245561Y-101284314D01*
X172059013Y-101158959D01*
X172049512Y-101154788D01*
X171923195Y-101099339D01*
X171853215Y-101068620D01*
X171847767Y-101067312D01*
X171847761Y-101067310D01*
X171640129Y-101017462D01*
X171640128Y-101017462D01*
X171634672Y-101016152D01*
X171550015Y-101011271D01*
X171415899Y-101003538D01*
X171415896Y-101003538D01*
X171410292Y-101003215D01*
X171187167Y-101030216D01*
X170972349Y-101096302D01*
X170967369Y-101098872D01*
X170967365Y-101098874D01*
X170844033Y-101162531D01*
X170772630Y-101199385D01*
X170594321Y-101336206D01*
X170443060Y-101502441D01*
X170323626Y-101692834D01*
X170321534Y-101698038D01*
X170321532Y-101698042D01*
X170296743Y-101759708D01*
X170252777Y-101815453D01*
X170185652Y-101838578D01*
X170116680Y-101821741D01*
X170066110Y-101766956D01*
X170000100Y-101628563D01*
X169994405Y-101618934D01*
X169869859Y-101445610D01*
X169862552Y-101437145D01*
X169709273Y-101288608D01*
X169700591Y-101281577D01*
X169523432Y-101162531D01*
X169513623Y-101157139D01*
X169318196Y-101071353D01*
X169307601Y-101067787D01*
X169181615Y-101037540D01*
X169167530Y-101038245D01*
X169164000Y-101047124D01*
X169164000Y-104184234D01*
X168656000Y-104184234D01*
X168656000Y-101047766D01*
X168651894Y-101033784D01*
X168642243Y-101032286D01*
X168641907Y-101032357D01*
X168437900Y-101095118D01*
X168427555Y-101099339D01*
X168237880Y-101197238D01*
X168228449Y-101203224D01*
X168059112Y-101333161D01*
X168050886Y-101340724D01*
X167907238Y-101498591D01*
X167900475Y-101507502D01*
X167787058Y-101688303D01*
X167781978Y-101698273D01*
X167757289Y-101759690D01*
X167713322Y-101815435D01*
X167646198Y-101838561D01*
X167577226Y-101821725D01*
X167526655Y-101766939D01*
X167496413Y-101703535D01*
X167458115Y-101623241D01*
X167326962Y-101440722D01*
X167165561Y-101284314D01*
X166979013Y-101158959D01*
X166969512Y-101154788D01*
X166843195Y-101099339D01*
X166773215Y-101068620D01*
X166767767Y-101067312D01*
X166767761Y-101067310D01*
X166560129Y-101017462D01*
X166560128Y-101017462D01*
X166554672Y-101016152D01*
X166470015Y-101011271D01*
X166335899Y-101003538D01*
X166335896Y-101003538D01*
X166330292Y-101003215D01*
X166107167Y-101030216D01*
X165892349Y-101096302D01*
X165887369Y-101098872D01*
X165887365Y-101098874D01*
X165764033Y-101162531D01*
X165692630Y-101199385D01*
X165514321Y-101336206D01*
X165363060Y-101502441D01*
X165243626Y-101692834D01*
X165216994Y-101759082D01*
X165173030Y-101814824D01*
X165105905Y-101837949D01*
X165036934Y-101821112D01*
X164986363Y-101766327D01*
X164956413Y-101703535D01*
X164918115Y-101623241D01*
X164786962Y-101440722D01*
X164625561Y-101284314D01*
X164439013Y-101158959D01*
X164429512Y-101154788D01*
X164303195Y-101099339D01*
X164233215Y-101068620D01*
X164227767Y-101067312D01*
X164227761Y-101067310D01*
X164020129Y-101017462D01*
X164020128Y-101017462D01*
X164014672Y-101016152D01*
X163930015Y-101011271D01*
X163795899Y-101003538D01*
X163795896Y-101003538D01*
X163790292Y-101003215D01*
X163567167Y-101030216D01*
X163352349Y-101096302D01*
X163347369Y-101098872D01*
X163347365Y-101098874D01*
X163224033Y-101162531D01*
X163152630Y-101199385D01*
X162974321Y-101336206D01*
X162823060Y-101502441D01*
X162703626Y-101692834D01*
X162676994Y-101759082D01*
X162633030Y-101814824D01*
X162565905Y-101837949D01*
X162496934Y-101821112D01*
X162446363Y-101766327D01*
X162416413Y-101703535D01*
X162378115Y-101623241D01*
X162246962Y-101440722D01*
X162085561Y-101284314D01*
X161899013Y-101158959D01*
X161889512Y-101154788D01*
X161763195Y-101099339D01*
X161693215Y-101068620D01*
X161687767Y-101067312D01*
X161687761Y-101067310D01*
X161480129Y-101017462D01*
X161480128Y-101017462D01*
X161474672Y-101016152D01*
X161390015Y-101011271D01*
X161255899Y-101003538D01*
X161255896Y-101003538D01*
X161250292Y-101003215D01*
X161027167Y-101030216D01*
X160812349Y-101096302D01*
X160807369Y-101098872D01*
X160807365Y-101098874D01*
X160684033Y-101162531D01*
X160612630Y-101199385D01*
X160434321Y-101336206D01*
X160283060Y-101502441D01*
X160163626Y-101692834D01*
X160136994Y-101759082D01*
X160093030Y-101814824D01*
X160025905Y-101837949D01*
X159956934Y-101821112D01*
X159906363Y-101766327D01*
X159876413Y-101703535D01*
X159838115Y-101623241D01*
X159706962Y-101440722D01*
X159545561Y-101284314D01*
X159359013Y-101158959D01*
X159349512Y-101154788D01*
X159223195Y-101099339D01*
X159153215Y-101068620D01*
X159147767Y-101067312D01*
X159147761Y-101067310D01*
X158940129Y-101017462D01*
X158940128Y-101017462D01*
X158934672Y-101016152D01*
X158850015Y-101011271D01*
X158715899Y-101003538D01*
X158715896Y-101003538D01*
X158710292Y-101003215D01*
X158487167Y-101030216D01*
X158272349Y-101096302D01*
X158267369Y-101098872D01*
X158267365Y-101098874D01*
X158144033Y-101162531D01*
X158072630Y-101199385D01*
X157894321Y-101336206D01*
X157743060Y-101502441D01*
X157623626Y-101692834D01*
X157596994Y-101759082D01*
X157553030Y-101814824D01*
X157485905Y-101837949D01*
X157416934Y-101821112D01*
X157366363Y-101766327D01*
X157336413Y-101703535D01*
X157298115Y-101623241D01*
X157166962Y-101440722D01*
X157005561Y-101284314D01*
X156819013Y-101158959D01*
X156809512Y-101154788D01*
X156683195Y-101099339D01*
X156613215Y-101068620D01*
X156607767Y-101067312D01*
X156607761Y-101067310D01*
X156400129Y-101017462D01*
X156400128Y-101017462D01*
X156394672Y-101016152D01*
X156310015Y-101011271D01*
X156175899Y-101003538D01*
X156175896Y-101003538D01*
X156170292Y-101003215D01*
X155947167Y-101030216D01*
X155732349Y-101096302D01*
X155727369Y-101098872D01*
X155727365Y-101098874D01*
X155604033Y-101162531D01*
X155532630Y-101199385D01*
X155354321Y-101336206D01*
X155203060Y-101502441D01*
X155083626Y-101692834D01*
X155056994Y-101759082D01*
X155013030Y-101814824D01*
X154945905Y-101837949D01*
X154876934Y-101821112D01*
X154826363Y-101766327D01*
X154796413Y-101703535D01*
X154758115Y-101623241D01*
X154626962Y-101440722D01*
X154465561Y-101284314D01*
X154279013Y-101158959D01*
X154269512Y-101154788D01*
X154143195Y-101099339D01*
X154073215Y-101068620D01*
X154067767Y-101067312D01*
X154067761Y-101067310D01*
X153860129Y-101017462D01*
X153860128Y-101017462D01*
X153854672Y-101016152D01*
X153770015Y-101011271D01*
X153635899Y-101003538D01*
X153635896Y-101003538D01*
X153630292Y-101003215D01*
X153573976Y-101010030D01*
X153412742Y-101029541D01*
X153412738Y-101029542D01*
X153407167Y-101030216D01*
X153401797Y-101031868D01*
X153342353Y-101050154D01*
X153271362Y-101051066D01*
X153216211Y-101018819D01*
X152996487Y-100799095D01*
X152962461Y-100736783D01*
X152967526Y-100665968D01*
X153010073Y-100609132D01*
X153076593Y-100584321D01*
X153085582Y-100584000D01*
X183354787Y-100584000D01*
X183422908Y-100604002D01*
X183469401Y-100657658D01*
X183479505Y-100727932D01*
X183450011Y-100792512D01*
X183407638Y-100824380D01*
X183216664Y-100912622D01*
X183216654Y-100912627D01*
X183213867Y-100913915D01*
X182858801Y-101122231D01*
X182690815Y-101244280D01*
X182528239Y-101362398D01*
X182528233Y-101362403D01*
X182525758Y-101364201D01*
X182523472Y-101366230D01*
X182523469Y-101366233D01*
X182485952Y-101399542D01*
X182217916Y-101637516D01*
X182215837Y-101639761D01*
X182215830Y-101639768D01*
X181957596Y-101918635D01*
X181938214Y-101939566D01*
X181936359Y-101942010D01*
X181766750Y-102165462D01*
X181689322Y-102267469D01*
X181473616Y-102618095D01*
X181293154Y-102988096D01*
X181292083Y-102990977D01*
X181292080Y-102990983D01*
X181249132Y-103106467D01*
X181149660Y-103373942D01*
X181044502Y-103771948D01*
X180978684Y-104178317D01*
X180978491Y-104181390D01*
X180978490Y-104181396D01*
X180953030Y-104586082D01*
X180952836Y-104589169D01*
X180955127Y-104654772D01*
X180965148Y-104941727D01*
X180967203Y-105000583D01*
X180967609Y-105003627D01*
X180967610Y-105003637D01*
X180988767Y-105162202D01*
X181021648Y-105408631D01*
X181022348Y-105411615D01*
X181022349Y-105411621D01*
X181098005Y-105734182D01*
X181115652Y-105809419D01*
X181248317Y-106199120D01*
X181418377Y-106574016D01*
X181624210Y-106930528D01*
X181625999Y-106933026D01*
X181626001Y-106933030D01*
X181861489Y-107261956D01*
X181863849Y-107265253D01*
X181865876Y-107267568D01*
X181865878Y-107267571D01*
X182100777Y-107535893D01*
X182135008Y-107574995D01*
X182435098Y-107856799D01*
X182761256Y-108107974D01*
X182763859Y-108109601D01*
X182763864Y-108109604D01*
X182845814Y-108160812D01*
X183110367Y-108326123D01*
X183479099Y-108509163D01*
X183863934Y-108655348D01*
X184261197Y-108763282D01*
X184264240Y-108763797D01*
X184264246Y-108763798D01*
X184664055Y-108831421D01*
X184664062Y-108831422D01*
X184667096Y-108831935D01*
X184670167Y-108832150D01*
X184670169Y-108832150D01*
X185074692Y-108860437D01*
X185074700Y-108860437D01*
X185077758Y-108860651D01*
X185341974Y-108853271D01*
X185486187Y-108849243D01*
X185486190Y-108849243D01*
X185489261Y-108849157D01*
X185492314Y-108848771D01*
X185492318Y-108848771D01*
X185640984Y-108829990D01*
X185897680Y-108797561D01*
X185900684Y-108796879D01*
X185900687Y-108796878D01*
X186296118Y-108707039D01*
X186296124Y-108707037D01*
X186299114Y-108706358D01*
X186455756Y-108654250D01*
X186686808Y-108577389D01*
X186686814Y-108577387D01*
X186689732Y-108576416D01*
X186692542Y-108575165D01*
X187063006Y-108410224D01*
X187063012Y-108410221D01*
X187065806Y-108408977D01*
X187068475Y-108407461D01*
X187421073Y-108207158D01*
X187421081Y-108207153D01*
X187423746Y-108205639D01*
X187480704Y-108165460D01*
X187680174Y-108024749D01*
X187760136Y-107968342D01*
X187766359Y-107962971D01*
X188050286Y-107717891D01*
X188071764Y-107699352D01*
X188073885Y-107697125D01*
X188073891Y-107697119D01*
X188353538Y-107403460D01*
X188355655Y-107401237D01*
X188363334Y-107391409D01*
X188607191Y-107079286D01*
X188607193Y-107079283D01*
X188609101Y-107076841D01*
X188610757Y-107074231D01*
X188610763Y-107074223D01*
X188828029Y-106731866D01*
X188828031Y-106731863D01*
X188829682Y-106729261D01*
X188833600Y-106721506D01*
X188970169Y-106451144D01*
X189015292Y-106361815D01*
X189016402Y-106358954D01*
X189163045Y-105980887D01*
X189163048Y-105980877D01*
X189164160Y-105978011D01*
X189210089Y-105813512D01*
X189214113Y-105799100D01*
X189251697Y-105738868D01*
X189315879Y-105708517D01*
X189386281Y-105717683D01*
X189440552Y-105763457D01*
X189461470Y-105833525D01*
X189380155Y-124779885D01*
X189258135Y-153210509D01*
X189237841Y-153278543D01*
X189183986Y-153324805D01*
X189113669Y-153334607D01*
X189049216Y-153304837D01*
X189023907Y-153274485D01*
X189017075Y-153263024D01*
X188929576Y-153116243D01*
X188685287Y-152784897D01*
X188683231Y-152782614D01*
X188683224Y-152782605D01*
X188411899Y-152481268D01*
X188411891Y-152481260D01*
X188409830Y-152478971D01*
X188105834Y-152201385D01*
X187776201Y-151954788D01*
X187716045Y-151918356D01*
X187426706Y-151743126D01*
X187426697Y-151743121D01*
X187424078Y-151741535D01*
X187122656Y-151597117D01*
X187055598Y-151564988D01*
X187055596Y-151564987D01*
X187052826Y-151563660D01*
X187049937Y-151562608D01*
X187049931Y-151562606D01*
X186668887Y-151423918D01*
X186668884Y-151423917D01*
X186665988Y-151422863D01*
X186375250Y-151348214D01*
X186270241Y-151321252D01*
X186270238Y-151321251D01*
X186267257Y-151320486D01*
X185860439Y-151257507D01*
X185449416Y-151234528D01*
X185446337Y-151234657D01*
X185446334Y-151234657D01*
X185176857Y-151245951D01*
X185038113Y-151251766D01*
X185035069Y-151252194D01*
X185035067Y-151252194D01*
X184920568Y-151268286D01*
X184630455Y-151309059D01*
X184230333Y-151405859D01*
X183841567Y-151541241D01*
X183795329Y-151562606D01*
X183470664Y-151712622D01*
X183470654Y-151712627D01*
X183467867Y-151713915D01*
X183112801Y-151922231D01*
X182956825Y-152035554D01*
X182782239Y-152162398D01*
X182782233Y-152162403D01*
X182779758Y-152164201D01*
X182777472Y-152166230D01*
X182777469Y-152166233D01*
X182739952Y-152199542D01*
X182471916Y-152437516D01*
X182469837Y-152439761D01*
X182469830Y-152439768D01*
X182387566Y-152528605D01*
X182192214Y-152739566D01*
X181943322Y-153067469D01*
X181882522Y-153166299D01*
X181736225Y-153404102D01*
X181727616Y-153418095D01*
X181547154Y-153788096D01*
X181546083Y-153790977D01*
X181546080Y-153790983D01*
X181526984Y-153842331D01*
X181403660Y-154173942D01*
X181298502Y-154571948D01*
X181232684Y-154978317D01*
X181232491Y-154981390D01*
X181232490Y-154981396D01*
X181218937Y-155196823D01*
X181206836Y-155389169D01*
X181208126Y-155426115D01*
X181219677Y-155756872D01*
X181221203Y-155800583D01*
X181221609Y-155803627D01*
X181221610Y-155803637D01*
X181246925Y-155993363D01*
X181275648Y-156208631D01*
X181276348Y-156211615D01*
X181276349Y-156211621D01*
X181365106Y-156590037D01*
X181369652Y-156609419D01*
X181502317Y-156999120D01*
X181672377Y-157374016D01*
X181878210Y-157730528D01*
X181879999Y-157733026D01*
X181880001Y-157733030D01*
X182095524Y-158034069D01*
X182117849Y-158065253D01*
X182119876Y-158067568D01*
X182119878Y-158067571D01*
X182310310Y-158285099D01*
X182389008Y-158374995D01*
X182689098Y-158656799D01*
X183015256Y-158907974D01*
X183017859Y-158909601D01*
X183017864Y-158909604D01*
X183021758Y-158912037D01*
X183364367Y-159126123D01*
X183533788Y-159210224D01*
X183619234Y-159252640D01*
X183671357Y-159300845D01*
X183689144Y-159369578D01*
X183666948Y-159437015D01*
X183611816Y-159481748D01*
X183563210Y-159491500D01*
X138001476Y-159491500D01*
X137933355Y-159471498D01*
X137886862Y-159417842D01*
X137876758Y-159347568D01*
X137906252Y-159282988D01*
X137956835Y-159247673D01*
X138201540Y-159154963D01*
X138201543Y-159154962D01*
X138205810Y-159153345D01*
X138442859Y-159021676D01*
X138594301Y-158906099D01*
X138654785Y-158859939D01*
X138654786Y-158859938D01*
X138658417Y-158857167D01*
X138847970Y-158663264D01*
X138851305Y-158658683D01*
X139004859Y-158447721D01*
X139007547Y-158444028D01*
X139133804Y-158204053D01*
X139224096Y-157948366D01*
X139269531Y-157717848D01*
X139275652Y-157686794D01*
X139275653Y-157686788D01*
X139276533Y-157682322D01*
X139279469Y-157623357D01*
X139289789Y-157416064D01*
X139289789Y-157416058D01*
X139290016Y-157411495D01*
X139264262Y-157141559D01*
X139259646Y-157122692D01*
X139228693Y-156996203D01*
X139199810Y-156878168D01*
X139168703Y-156801367D01*
X139099725Y-156631069D01*
X139099725Y-156631068D01*
X139098012Y-156626840D01*
X138960999Y-156392839D01*
X138811248Y-156205585D01*
X138794493Y-156184634D01*
X138794492Y-156184632D01*
X138791641Y-156181068D01*
X138780765Y-156170908D01*
X138596824Y-155999079D01*
X138596821Y-155999077D01*
X138593488Y-155995963D01*
X138370688Y-155841402D01*
X138294778Y-155803637D01*
X138131997Y-155722654D01*
X138131994Y-155722653D01*
X138127910Y-155720621D01*
X137870240Y-155636153D01*
X137865748Y-155635373D01*
X137606856Y-155590421D01*
X137606848Y-155590420D01*
X137603075Y-155589765D01*
X137595429Y-155589384D01*
X137518971Y-155585578D01*
X137518963Y-155585578D01*
X137517400Y-155585500D01*
X136828116Y-155585500D01*
X136825848Y-155585665D01*
X136825836Y-155585665D01*
X136694022Y-155595229D01*
X136626549Y-155600125D01*
X136622094Y-155601109D01*
X136622091Y-155601109D01*
X136366223Y-155657600D01*
X136366219Y-155657601D01*
X136361763Y-155658585D01*
X136254762Y-155699124D01*
X136112460Y-155753037D01*
X136112457Y-155753038D01*
X136108190Y-155754655D01*
X135871141Y-155886324D01*
X135655583Y-156050833D01*
X135652390Y-156054099D01*
X135652388Y-156054101D01*
X135583583Y-156124485D01*
X135466030Y-156244736D01*
X135463343Y-156248428D01*
X135463341Y-156248430D01*
X135368891Y-156378191D01*
X135306453Y-156463972D01*
X135180196Y-156703947D01*
X135178677Y-156708248D01*
X135178675Y-156708253D01*
X135131767Y-156841087D01*
X135089904Y-156959634D01*
X135081568Y-157001928D01*
X135058848Y-157117202D01*
X135037467Y-157225678D01*
X135037240Y-157230232D01*
X135037240Y-157230234D01*
X135024979Y-157476528D01*
X135023984Y-157496505D01*
X135049738Y-157766441D01*
X135050822Y-157770870D01*
X135050823Y-157770877D01*
X135076112Y-157874223D01*
X135114190Y-158029832D01*
X135115905Y-158034067D01*
X135115906Y-158034069D01*
X135186396Y-158208101D01*
X135215988Y-158281160D01*
X135353001Y-158515161D01*
X135522359Y-158726932D01*
X135525700Y-158730053D01*
X135716163Y-158907974D01*
X135720512Y-158912037D01*
X135943312Y-159066598D01*
X135947388Y-159068626D01*
X135947390Y-159068627D01*
X136182003Y-159185346D01*
X136182006Y-159185347D01*
X136186090Y-159187379D01*
X136247350Y-159207461D01*
X136364209Y-159245769D01*
X136422709Y-159285996D01*
X136450175Y-159351465D01*
X136437885Y-159421389D01*
X136389743Y-159473570D01*
X136324959Y-159491500D01*
X106094173Y-159491500D01*
X106026052Y-159471498D01*
X105979559Y-159417842D01*
X105969455Y-159347568D01*
X105998949Y-159282988D01*
X106054401Y-159245942D01*
X106060516Y-159243908D01*
X106161773Y-159210224D01*
X106422808Y-159123389D01*
X106422814Y-159123387D01*
X106425732Y-159122416D01*
X106546544Y-159068627D01*
X106799006Y-158956224D01*
X106799012Y-158956221D01*
X106801806Y-158954977D01*
X106804475Y-158953461D01*
X107157073Y-158753158D01*
X107157081Y-158753153D01*
X107159746Y-158751639D01*
X107194771Y-158726932D01*
X107493604Y-158516128D01*
X107496136Y-158514342D01*
X107511165Y-158501370D01*
X107805426Y-158247370D01*
X107807764Y-158245352D01*
X107809885Y-158243125D01*
X107809891Y-158243119D01*
X108089538Y-157949460D01*
X108091655Y-157947237D01*
X108094263Y-157943900D01*
X108343191Y-157625286D01*
X108343193Y-157625283D01*
X108345101Y-157622841D01*
X108346757Y-157620231D01*
X108346763Y-157620223D01*
X108564029Y-157277866D01*
X108564031Y-157277863D01*
X108565682Y-157275261D01*
X108578105Y-157250669D01*
X108696008Y-157017259D01*
X108751292Y-156907815D01*
X108752969Y-156903491D01*
X108899045Y-156526887D01*
X108899048Y-156526877D01*
X108900160Y-156524011D01*
X108995912Y-156181068D01*
X109010037Y-156130477D01*
X109010038Y-156130475D01*
X109010865Y-156127511D01*
X109082350Y-155722101D01*
X109104359Y-155436069D01*
X109113782Y-155313603D01*
X109113782Y-155313594D01*
X109113932Y-155311650D01*
X109115575Y-155194000D01*
X109111036Y-155101183D01*
X109099440Y-154864100D01*
X109095465Y-154782827D01*
X109035328Y-154375579D01*
X108935738Y-153976143D01*
X108923876Y-153942829D01*
X108846479Y-153725475D01*
X108797644Y-153588331D01*
X108622366Y-153215846D01*
X108593168Y-153166865D01*
X108413156Y-152864894D01*
X108411576Y-152862243D01*
X108167287Y-152530897D01*
X108165231Y-152528614D01*
X108165224Y-152528605D01*
X107893899Y-152227268D01*
X107893891Y-152227260D01*
X107891830Y-152224971D01*
X107587834Y-151947385D01*
X107258201Y-151700788D01*
X107087020Y-151597117D01*
X106908706Y-151489126D01*
X106908697Y-151489121D01*
X106906078Y-151487535D01*
X106559020Y-151321252D01*
X106537598Y-151310988D01*
X106537596Y-151310987D01*
X106534826Y-151309660D01*
X106531937Y-151308608D01*
X106531931Y-151308606D01*
X106150887Y-151169918D01*
X106150884Y-151169917D01*
X106147988Y-151168863D01*
X105857250Y-151094214D01*
X105752241Y-151067252D01*
X105752238Y-151067251D01*
X105749257Y-151066486D01*
X105342439Y-151003507D01*
X104931416Y-150980528D01*
X104928337Y-150980657D01*
X104928334Y-150980657D01*
X104658857Y-150991951D01*
X104520113Y-150997766D01*
X104517069Y-150998194D01*
X104517067Y-150998194D01*
X104296518Y-151029190D01*
X104112455Y-151055059D01*
X103712333Y-151151859D01*
X103323567Y-151287241D01*
X103272174Y-151310988D01*
X102952664Y-151458622D01*
X102952654Y-151458627D01*
X102949867Y-151459915D01*
X102594801Y-151668231D01*
X102517837Y-151724149D01*
X102264239Y-151908398D01*
X102264233Y-151908403D01*
X102261758Y-151910201D01*
X102259472Y-151912230D01*
X102259469Y-151912233D01*
X102225812Y-151942115D01*
X101953916Y-152183516D01*
X101951837Y-152185761D01*
X101951830Y-152185768D01*
X101682250Y-152476888D01*
X101674214Y-152485566D01*
X101672359Y-152488010D01*
X101483128Y-152737313D01*
X101425322Y-152813469D01*
X101423708Y-152816093D01*
X101239055Y-153116243D01*
X101209616Y-153164095D01*
X101029154Y-153534096D01*
X101028083Y-153536977D01*
X101028080Y-153536983D01*
X101014443Y-153573653D01*
X100885660Y-153919942D01*
X100859689Y-154018240D01*
X100831820Y-154123718D01*
X100795080Y-154184469D01*
X100731328Y-154215714D01*
X100660805Y-154207531D01*
X100605900Y-154162520D01*
X100584000Y-154091532D01*
X100584000Y-149881885D01*
X128249000Y-149881885D01*
X128253475Y-149897124D01*
X128254865Y-149898329D01*
X128262548Y-149900000D01*
X129384885Y-149900000D01*
X129400124Y-149895525D01*
X129401329Y-149894135D01*
X129403000Y-149886452D01*
X129403000Y-149881885D01*
X129911000Y-149881885D01*
X129915475Y-149897124D01*
X129916865Y-149898329D01*
X129924548Y-149900000D01*
X131046884Y-149900000D01*
X131062123Y-149895525D01*
X131063328Y-149894135D01*
X131064999Y-149886452D01*
X131064999Y-149209331D01*
X131064629Y-149202510D01*
X131059105Y-149151648D01*
X131055479Y-149136396D01*
X131010324Y-149015946D01*
X131001786Y-149000351D01*
X130925285Y-148898276D01*
X130912724Y-148885715D01*
X130810649Y-148809214D01*
X130795054Y-148800676D01*
X130674606Y-148755522D01*
X130659351Y-148751895D01*
X130608486Y-148746369D01*
X130601672Y-148746000D01*
X129929115Y-148746000D01*
X129913876Y-148750475D01*
X129912671Y-148751865D01*
X129911000Y-148759548D01*
X129911000Y-149881885D01*
X129403000Y-149881885D01*
X129403000Y-148764116D01*
X129398525Y-148748877D01*
X129397135Y-148747672D01*
X129389452Y-148746001D01*
X128712331Y-148746001D01*
X128705510Y-148746371D01*
X128654648Y-148751895D01*
X128639396Y-148755521D01*
X128518946Y-148800676D01*
X128503351Y-148809214D01*
X128401276Y-148885715D01*
X128388715Y-148898276D01*
X128312214Y-149000351D01*
X128303676Y-149015946D01*
X128258522Y-149136394D01*
X128254895Y-149151649D01*
X128249369Y-149202514D01*
X128249000Y-149209328D01*
X128249000Y-149881885D01*
X100584000Y-149881885D01*
X100584000Y-140200134D01*
X136743500Y-140200134D01*
X136750255Y-140262316D01*
X136801385Y-140398705D01*
X136888739Y-140515261D01*
X137005295Y-140602615D01*
X137141684Y-140653745D01*
X137203866Y-140660500D01*
X139000134Y-140660500D01*
X139062316Y-140653745D01*
X139198705Y-140602615D01*
X139315261Y-140515261D01*
X139402615Y-140398705D01*
X139453745Y-140262316D01*
X139460500Y-140200134D01*
X139460500Y-138669475D01*
X146007483Y-138669475D01*
X146026472Y-138886519D01*
X146028375Y-138897312D01*
X146084764Y-139107761D01*
X146088510Y-139118053D01*
X146180586Y-139315511D01*
X146186069Y-139325006D01*
X146222509Y-139377048D01*
X146232988Y-139385424D01*
X146246434Y-139378356D01*
X146947978Y-138676812D01*
X146955592Y-138662868D01*
X146955461Y-138661035D01*
X146951210Y-138654420D01*
X146245713Y-137948923D01*
X146233938Y-137942493D01*
X146221923Y-137951789D01*
X146186069Y-138002994D01*
X146180586Y-138012489D01*
X146088510Y-138209947D01*
X146084764Y-138220239D01*
X146028375Y-138430688D01*
X146026472Y-138441481D01*
X146007483Y-138658525D01*
X146007483Y-138669475D01*
X139460500Y-138669475D01*
X139460500Y-138403866D01*
X139453745Y-138341684D01*
X139402615Y-138205295D01*
X139315261Y-138088739D01*
X139198705Y-138001385D01*
X139079687Y-137956767D01*
X139022923Y-137914125D01*
X138998223Y-137847564D01*
X139013430Y-137778215D01*
X139034977Y-137749535D01*
X139136052Y-137648812D01*
X139142730Y-137640965D01*
X139267003Y-137468020D01*
X139272313Y-137459183D01*
X139366670Y-137268267D01*
X139370469Y-137258672D01*
X139432377Y-137054910D01*
X139434555Y-137044837D01*
X139435986Y-137033962D01*
X139433775Y-137019778D01*
X139420617Y-137016000D01*
X136785225Y-137016000D01*
X136771694Y-137019973D01*
X136770257Y-137029966D01*
X136800565Y-137164446D01*
X136803645Y-137174275D01*
X136883770Y-137371603D01*
X136888413Y-137380794D01*
X136999694Y-137562388D01*
X137005777Y-137570699D01*
X137145213Y-137731667D01*
X137152577Y-137738879D01*
X137157522Y-137742985D01*
X137197156Y-137801889D01*
X137198653Y-137872870D01*
X137161537Y-137933392D01*
X137121264Y-137957910D01*
X137013705Y-137998232D01*
X137013704Y-137998233D01*
X137005295Y-138001385D01*
X136888739Y-138088739D01*
X136801385Y-138205295D01*
X136750255Y-138341684D01*
X136743500Y-138403866D01*
X136743500Y-140200134D01*
X100584000Y-140200134D01*
X100584000Y-106519265D01*
X100604002Y-106451144D01*
X100657658Y-106404651D01*
X100727932Y-106394547D01*
X100792512Y-106424041D01*
X100832671Y-106490493D01*
X100851652Y-106571419D01*
X100984317Y-106961120D01*
X101154377Y-107336016D01*
X101360210Y-107692528D01*
X101361999Y-107695026D01*
X101362001Y-107695030D01*
X101574529Y-107991886D01*
X101599849Y-108027253D01*
X101601876Y-108029568D01*
X101601878Y-108029571D01*
X101670515Y-108107974D01*
X101871008Y-108336995D01*
X102171098Y-108618799D01*
X102218558Y-108655348D01*
X102470225Y-108849157D01*
X102497256Y-108869974D01*
X102499859Y-108871601D01*
X102499864Y-108871604D01*
X102618123Y-108945500D01*
X102846367Y-109088123D01*
X103215099Y-109271163D01*
X103599934Y-109417348D01*
X103997197Y-109525282D01*
X104000240Y-109525797D01*
X104000246Y-109525798D01*
X104400055Y-109593421D01*
X104400062Y-109593422D01*
X104403096Y-109593935D01*
X104406167Y-109594150D01*
X104406169Y-109594150D01*
X104810692Y-109622437D01*
X104810700Y-109622437D01*
X104813758Y-109622651D01*
X105077974Y-109615271D01*
X105222187Y-109611243D01*
X105222190Y-109611243D01*
X105225261Y-109611157D01*
X105228314Y-109610771D01*
X105228318Y-109610771D01*
X105376984Y-109591990D01*
X105633680Y-109559561D01*
X105636684Y-109558879D01*
X105636687Y-109558878D01*
X106032118Y-109469039D01*
X106032124Y-109469037D01*
X106035114Y-109468358D01*
X106191756Y-109416250D01*
X106422808Y-109339389D01*
X106422814Y-109339387D01*
X106425732Y-109338416D01*
X106428542Y-109337165D01*
X106799006Y-109172224D01*
X106799012Y-109172221D01*
X106801806Y-109170977D01*
X106815285Y-109163320D01*
X107157073Y-108969158D01*
X107157081Y-108969153D01*
X107159746Y-108967639D01*
X107496136Y-108730342D01*
X107583018Y-108655348D01*
X107805426Y-108463370D01*
X107807764Y-108461352D01*
X107809885Y-108459125D01*
X107809891Y-108459119D01*
X108089538Y-108165460D01*
X108091655Y-108163237D01*
X108134832Y-108107974D01*
X108343191Y-107841286D01*
X108343193Y-107841283D01*
X108345101Y-107838841D01*
X108346757Y-107836231D01*
X108346763Y-107836223D01*
X108485946Y-107616906D01*
X112283839Y-107616906D01*
X112292553Y-107628427D01*
X112399452Y-107706809D01*
X112407351Y-107711745D01*
X112636905Y-107832519D01*
X112645454Y-107836236D01*
X112890327Y-107921749D01*
X112899336Y-107924163D01*
X113154166Y-107972544D01*
X113163423Y-107973598D01*
X113422607Y-107983783D01*
X113431921Y-107983457D01*
X113689753Y-107955220D01*
X113698930Y-107953519D01*
X113949758Y-107887481D01*
X113958574Y-107884445D01*
X114196880Y-107782062D01*
X114205167Y-107777748D01*
X114425718Y-107641266D01*
X114433268Y-107635780D01*
X114438559Y-107631301D01*
X114446997Y-107618497D01*
X114440935Y-107608145D01*
X113376812Y-106544022D01*
X113362868Y-106536408D01*
X113361035Y-106536539D01*
X113354420Y-106540790D01*
X112290497Y-107604713D01*
X112283839Y-107616906D01*
X108485946Y-107616906D01*
X108564029Y-107493866D01*
X108564031Y-107493863D01*
X108565682Y-107491261D01*
X108567491Y-107487681D01*
X108680192Y-107264570D01*
X108751292Y-107123815D01*
X108763867Y-107091395D01*
X108899045Y-106742887D01*
X108899048Y-106742877D01*
X108900160Y-106740011D01*
X108995779Y-106397543D01*
X109010037Y-106346477D01*
X109010038Y-106346475D01*
X109010865Y-106343511D01*
X109048652Y-106129211D01*
X111551775Y-106129211D01*
X111564220Y-106388288D01*
X111565356Y-106397543D01*
X111615961Y-106651945D01*
X111618449Y-106660917D01*
X111706095Y-106905033D01*
X111709895Y-106913568D01*
X111832658Y-107142042D01*
X111837666Y-107149904D01*
X111907720Y-107243716D01*
X111918979Y-107252165D01*
X111931397Y-107245393D01*
X112991978Y-106184812D01*
X112998356Y-106173132D01*
X113728408Y-106173132D01*
X113728539Y-106174965D01*
X113732790Y-106181580D01*
X114800094Y-107248884D01*
X114812474Y-107255644D01*
X114820815Y-107249400D01*
X114954832Y-107041048D01*
X114959275Y-107032864D01*
X115065807Y-106796370D01*
X115068997Y-106787605D01*
X115139402Y-106537972D01*
X115141262Y-106528830D01*
X115174187Y-106270019D01*
X115174668Y-106263733D01*
X115176987Y-106175160D01*
X115176836Y-106168851D01*
X115157501Y-105908663D01*
X115156125Y-105899457D01*
X115098878Y-105646467D01*
X115096154Y-105637556D01*
X115002143Y-105395806D01*
X114998132Y-105387397D01*
X114869422Y-105162202D01*
X114864211Y-105154476D01*
X114820996Y-105099658D01*
X114809071Y-105091187D01*
X114797537Y-105097673D01*
X113736022Y-106159188D01*
X113728408Y-106173132D01*
X112998356Y-106173132D01*
X112999592Y-106170868D01*
X112999461Y-106169035D01*
X112995210Y-106162420D01*
X111929816Y-105097026D01*
X111916507Y-105089758D01*
X111906472Y-105096878D01*
X111890937Y-105115556D01*
X111885531Y-105123135D01*
X111750965Y-105344891D01*
X111746736Y-105353192D01*
X111646432Y-105592389D01*
X111643471Y-105601239D01*
X111579628Y-105852625D01*
X111578006Y-105861822D01*
X111552020Y-106119885D01*
X111551775Y-106129211D01*
X109048652Y-106129211D01*
X109082350Y-105938101D01*
X109097680Y-105738868D01*
X109113782Y-105529603D01*
X109113782Y-105529594D01*
X109113932Y-105527650D01*
X109115575Y-105410000D01*
X109114079Y-105379397D01*
X109100783Y-105107556D01*
X109095465Y-104998827D01*
X109054984Y-104724689D01*
X112281102Y-104724689D01*
X112285675Y-104734465D01*
X113351188Y-105799978D01*
X113365132Y-105807592D01*
X113366965Y-105807461D01*
X113373580Y-105803210D01*
X114438349Y-104738441D01*
X114444733Y-104726751D01*
X114435321Y-104714641D01*
X114288045Y-104612471D01*
X114280010Y-104607738D01*
X114047376Y-104493016D01*
X114038743Y-104489528D01*
X113791703Y-104410450D01*
X113782643Y-104408274D01*
X113526630Y-104366580D01*
X113517343Y-104365768D01*
X113257992Y-104362373D01*
X113248681Y-104362943D01*
X112991682Y-104397919D01*
X112982546Y-104399860D01*
X112733543Y-104472439D01*
X112724800Y-104475707D01*
X112489252Y-104584296D01*
X112481097Y-104588816D01*
X112290240Y-104713947D01*
X112281102Y-104724689D01*
X109054984Y-104724689D01*
X109035328Y-104591579D01*
X109033958Y-104586082D01*
X108994115Y-104426280D01*
X108935738Y-104192143D01*
X108933151Y-104184876D01*
X108849665Y-103950423D01*
X108797644Y-103804331D01*
X108622366Y-103431846D01*
X108619615Y-103427230D01*
X108413156Y-103080894D01*
X108411576Y-103078243D01*
X108167287Y-102746897D01*
X108165231Y-102744614D01*
X108165224Y-102744605D01*
X107893899Y-102443268D01*
X107893891Y-102443260D01*
X107891830Y-102440971D01*
X107587834Y-102163385D01*
X107258201Y-101916788D01*
X107117392Y-101831511D01*
X106908706Y-101705126D01*
X106908697Y-101705121D01*
X106906078Y-101703535D01*
X106534826Y-101525660D01*
X106531937Y-101524608D01*
X106531931Y-101524606D01*
X106150887Y-101385918D01*
X106150884Y-101385917D01*
X106147988Y-101384863D01*
X105756377Y-101284314D01*
X105752241Y-101283252D01*
X105752238Y-101283251D01*
X105749257Y-101282486D01*
X105342439Y-101219507D01*
X104931416Y-101196528D01*
X104928337Y-101196657D01*
X104928334Y-101196657D01*
X104658857Y-101207951D01*
X104520113Y-101213766D01*
X104517069Y-101214194D01*
X104517067Y-101214194D01*
X104296518Y-101245190D01*
X104112455Y-101271059D01*
X103712333Y-101367859D01*
X103323567Y-101503241D01*
X103277329Y-101524606D01*
X102952664Y-101674622D01*
X102952654Y-101674627D01*
X102949867Y-101675915D01*
X102594801Y-101884231D01*
X102547448Y-101918635D01*
X102264239Y-102124398D01*
X102264233Y-102124403D01*
X102261758Y-102126201D01*
X102259472Y-102128230D01*
X102259469Y-102128233D01*
X102202861Y-102178492D01*
X101953916Y-102399516D01*
X101951837Y-102401761D01*
X101951830Y-102401768D01*
X101860568Y-102500322D01*
X101674214Y-102701566D01*
X101595306Y-102805523D01*
X101441128Y-103008646D01*
X101425322Y-103029469D01*
X101209616Y-103380095D01*
X101029154Y-103750096D01*
X101028083Y-103752977D01*
X101028080Y-103752983D01*
X100957268Y-103943392D01*
X100885660Y-104135942D01*
X100846708Y-104283371D01*
X100831820Y-104339718D01*
X100795080Y-104400469D01*
X100731328Y-104431714D01*
X100660805Y-104423531D01*
X100605900Y-104378520D01*
X100584000Y-104307532D01*
X100584000Y-100710000D01*
X100604002Y-100641879D01*
X100657658Y-100595386D01*
X100710000Y-100584000D01*
X118968719Y-100584000D01*
X119036840Y-100604002D01*
G37*
%TD.AperFunction*%
%TA.AperFunction,Conductor*%
G36*
X174186121Y-117622002D02*
G01*
X174232614Y-117675658D01*
X174244000Y-117728000D01*
X174244000Y-119424234D01*
X174248106Y-119438216D01*
X174257757Y-119439714D01*
X174258093Y-119439643D01*
X174462100Y-119376882D01*
X174472445Y-119372661D01*
X174662120Y-119274762D01*
X174671551Y-119268776D01*
X174840888Y-119138839D01*
X174849114Y-119131276D01*
X174992762Y-118973409D01*
X174999525Y-118964498D01*
X175112942Y-118783697D01*
X175118022Y-118773727D01*
X175142711Y-118712310D01*
X175186678Y-118656565D01*
X175253802Y-118633439D01*
X175322774Y-118650275D01*
X175373345Y-118705061D01*
X175441885Y-118848759D01*
X175573038Y-119031278D01*
X175734439Y-119187686D01*
X175920987Y-119313041D01*
X175926133Y-119315300D01*
X175926135Y-119315301D01*
X175934352Y-119318908D01*
X176126785Y-119403380D01*
X176132233Y-119404688D01*
X176132239Y-119404690D01*
X176339871Y-119454538D01*
X176339872Y-119454538D01*
X176345328Y-119455848D01*
X176429985Y-119460729D01*
X176564101Y-119468462D01*
X176564104Y-119468462D01*
X176569708Y-119468785D01*
X176792833Y-119441784D01*
X176967952Y-119387911D01*
X177038942Y-119386999D01*
X177099156Y-119424612D01*
X177129477Y-119488808D01*
X177131000Y-119508341D01*
X177131000Y-120763419D01*
X177110998Y-120831540D01*
X177094095Y-120852514D01*
X176033796Y-121912812D01*
X175971484Y-121946838D01*
X175912092Y-121945424D01*
X175891409Y-121939882D01*
X175891398Y-121939880D01*
X175886087Y-121938457D01*
X175658000Y-121918502D01*
X175429913Y-121938457D01*
X175424600Y-121939881D01*
X175424598Y-121939881D01*
X175214067Y-121996293D01*
X175214065Y-121996294D01*
X175208757Y-121997716D01*
X175203776Y-122000039D01*
X175203775Y-122000039D01*
X175006238Y-122092151D01*
X175006233Y-122092154D01*
X175001251Y-122094477D01*
X174864832Y-122189999D01*
X174824771Y-122218050D01*
X174757497Y-122240738D01*
X174688636Y-122223453D01*
X174640052Y-122171683D01*
X174626500Y-122114837D01*
X174626500Y-121119512D01*
X174626630Y-121113796D01*
X174628734Y-121067456D01*
X174630486Y-121028883D01*
X174625375Y-120984705D01*
X174621759Y-120953457D01*
X174619814Y-120936644D01*
X174619386Y-120932280D01*
X174619363Y-120931987D01*
X174611940Y-120839735D01*
X174607518Y-120821729D01*
X174604718Y-120806167D01*
X174603167Y-120792771D01*
X174603166Y-120792768D01*
X174602585Y-120787744D01*
X174600108Y-120778991D01*
X174577307Y-120698410D01*
X174576184Y-120694160D01*
X174561777Y-120635507D01*
X174554037Y-120603994D01*
X174546791Y-120586922D01*
X174541539Y-120572011D01*
X174536490Y-120554168D01*
X174534356Y-120549593D01*
X174534354Y-120549586D01*
X174497256Y-120470031D01*
X174495467Y-120466013D01*
X174494310Y-120463286D01*
X174459188Y-120380544D01*
X174456498Y-120376272D01*
X174456493Y-120376263D01*
X174449308Y-120364854D01*
X174441733Y-120350960D01*
X174436040Y-120338752D01*
X174433901Y-120334164D01*
X174401529Y-120286529D01*
X174381719Y-120257380D01*
X174379311Y-120253701D01*
X174332526Y-120179409D01*
X174332525Y-120179407D01*
X174329833Y-120175133D01*
X174326497Y-120171349D01*
X174326494Y-120171345D01*
X174317568Y-120161221D01*
X174307871Y-120148719D01*
X174300301Y-120137580D01*
X174297456Y-120133393D01*
X174293979Y-120129716D01*
X174293974Y-120129710D01*
X174233692Y-120065965D01*
X174230725Y-120062716D01*
X174172646Y-119996837D01*
X174172640Y-119996831D01*
X174169302Y-119993045D01*
X174154969Y-119981272D01*
X174143406Y-119970489D01*
X174130668Y-119957019D01*
X174056934Y-119900645D01*
X174053487Y-119897914D01*
X174017093Y-119868020D01*
X173981722Y-119838966D01*
X173965694Y-119829638D01*
X173952561Y-119820846D01*
X173937826Y-119809580D01*
X173855999Y-119765705D01*
X173852170Y-119763565D01*
X173838233Y-119755453D01*
X173821745Y-119745857D01*
X173776304Y-119719409D01*
X173776300Y-119719407D01*
X173771922Y-119716859D01*
X173767197Y-119715045D01*
X173767184Y-119715039D01*
X173754618Y-119710216D01*
X173740229Y-119703629D01*
X173728349Y-119697259D01*
X173728346Y-119697258D01*
X173723891Y-119694869D01*
X173679659Y-119679639D01*
X173621761Y-119638549D01*
X173595270Y-119572680D01*
X173608595Y-119502945D01*
X173657506Y-119451484D01*
X173714385Y-119434660D01*
X173732470Y-119433755D01*
X173736000Y-119424876D01*
X173736000Y-117728000D01*
X173756002Y-117659879D01*
X173809658Y-117613386D01*
X173862000Y-117602000D01*
X174118000Y-117602000D01*
X174186121Y-117622002D01*
G37*
%TD.AperFunction*%
%TA.AperFunction,Conductor*%
G36*
X146827839Y-104443402D02*
G01*
X146848813Y-104460305D01*
X149478966Y-107090458D01*
X149479894Y-107091395D01*
X149542971Y-107155807D01*
X149579421Y-107179298D01*
X149589746Y-107186717D01*
X149623643Y-107213776D01*
X149629984Y-107216841D01*
X149629985Y-107216842D01*
X149653837Y-107228372D01*
X149667254Y-107235901D01*
X149695438Y-107254065D01*
X149702055Y-107256473D01*
X149702060Y-107256476D01*
X149736173Y-107268892D01*
X149747916Y-107273853D01*
X149780603Y-107289654D01*
X149780608Y-107289656D01*
X149786949Y-107292721D01*
X149793807Y-107294304D01*
X149793809Y-107294305D01*
X149819626Y-107300265D01*
X149834369Y-107304632D01*
X149865885Y-107316103D01*
X149872875Y-107316986D01*
X149872883Y-107316988D01*
X149908901Y-107321538D01*
X149921453Y-107323774D01*
X149956814Y-107331938D01*
X149956817Y-107331938D01*
X149963685Y-107333524D01*
X149970731Y-107333549D01*
X149970734Y-107333549D01*
X150004256Y-107333666D01*
X150005138Y-107333695D01*
X150005969Y-107333800D01*
X150042619Y-107333800D01*
X150043059Y-107333801D01*
X150141543Y-107334145D01*
X150141548Y-107334145D01*
X150145070Y-107334157D01*
X150146270Y-107333889D01*
X150147907Y-107333800D01*
X152022606Y-107333800D01*
X152073855Y-107344693D01*
X152184812Y-107394094D01*
X152278213Y-107413947D01*
X152365156Y-107432428D01*
X152365161Y-107432428D01*
X152371613Y-107433800D01*
X152562587Y-107433800D01*
X152569039Y-107432428D01*
X152569044Y-107432428D01*
X152655987Y-107413947D01*
X152749388Y-107394094D01*
X152790403Y-107375833D01*
X152917822Y-107319103D01*
X152917824Y-107319102D01*
X152923852Y-107316418D01*
X152936690Y-107307091D01*
X153045036Y-107228372D01*
X153078353Y-107204166D01*
X153121896Y-107155807D01*
X153201721Y-107067152D01*
X153201722Y-107067151D01*
X153206140Y-107062244D01*
X153280742Y-106933030D01*
X153298323Y-106902579D01*
X153298324Y-106902578D01*
X153301627Y-106896856D01*
X153360642Y-106715228D01*
X153380604Y-106525300D01*
X153370253Y-106426814D01*
X153361332Y-106341934D01*
X153361331Y-106341931D01*
X153360642Y-106335372D01*
X153356609Y-106322960D01*
X153354581Y-106251993D01*
X153391243Y-106191195D01*
X153454955Y-106159870D01*
X153525489Y-106167962D01*
X153565537Y-106194929D01*
X158668766Y-111298158D01*
X158669694Y-111299095D01*
X158696220Y-111326182D01*
X158732771Y-111363507D01*
X158769221Y-111386998D01*
X158779546Y-111394417D01*
X158813443Y-111421476D01*
X158819782Y-111424540D01*
X158819786Y-111424543D01*
X158843638Y-111436074D01*
X158857051Y-111443601D01*
X158879313Y-111457947D01*
X158879316Y-111457948D01*
X158885238Y-111461765D01*
X158891857Y-111464174D01*
X158891861Y-111464176D01*
X158925973Y-111476592D01*
X158937717Y-111481553D01*
X158970399Y-111497352D01*
X158970401Y-111497353D01*
X158976748Y-111500421D01*
X158993683Y-111504331D01*
X159009427Y-111507966D01*
X159024168Y-111512332D01*
X159055685Y-111523803D01*
X159062671Y-111524685D01*
X159062677Y-111524687D01*
X159098701Y-111529238D01*
X159111253Y-111531474D01*
X159146614Y-111539638D01*
X159146617Y-111539638D01*
X159153485Y-111541224D01*
X159160531Y-111541249D01*
X159160534Y-111541249D01*
X159194056Y-111541366D01*
X159194938Y-111541395D01*
X159195769Y-111541500D01*
X159232419Y-111541500D01*
X159232859Y-111541501D01*
X159331343Y-111541845D01*
X159331348Y-111541845D01*
X159334870Y-111541857D01*
X159336070Y-111541589D01*
X159337707Y-111541500D01*
X174089618Y-111541500D01*
X174157739Y-111561502D01*
X174178713Y-111578405D01*
X175089813Y-112489505D01*
X175123839Y-112551817D01*
X175118774Y-112622632D01*
X175076227Y-112679468D01*
X175009707Y-112704279D01*
X175000718Y-112704600D01*
X166912160Y-112704600D01*
X166910841Y-112704593D01*
X166820679Y-112703649D01*
X166813793Y-112705138D01*
X166813791Y-112705138D01*
X166804463Y-112707155D01*
X166778303Y-112712811D01*
X166765737Y-112714869D01*
X166722645Y-112719703D01*
X166715994Y-112722019D01*
X166715990Y-112722020D01*
X166690970Y-112730733D01*
X166676158Y-112734896D01*
X166669702Y-112736292D01*
X166643390Y-112741981D01*
X166604089Y-112760307D01*
X166592306Y-112765092D01*
X166551348Y-112779355D01*
X166545371Y-112783090D01*
X166522916Y-112797121D01*
X166509399Y-112804460D01*
X166485381Y-112815660D01*
X166485377Y-112815662D01*
X166478998Y-112818637D01*
X166473434Y-112822953D01*
X166473432Y-112822954D01*
X166444740Y-112845209D01*
X166434285Y-112852503D01*
X166397524Y-112875474D01*
X166392527Y-112880436D01*
X166392526Y-112880437D01*
X166368721Y-112904076D01*
X166368096Y-112904661D01*
X166367430Y-112905178D01*
X166341440Y-112931168D01*
X166268818Y-113003285D01*
X166268160Y-113004322D01*
X166267057Y-113005551D01*
X165553735Y-113718873D01*
X165491423Y-113752899D01*
X165435226Y-113752297D01*
X165290129Y-113717462D01*
X165290128Y-113717462D01*
X165284672Y-113716152D01*
X165200015Y-113711271D01*
X165065899Y-113703538D01*
X165065896Y-113703538D01*
X165060292Y-113703215D01*
X164837167Y-113730216D01*
X164622349Y-113796302D01*
X164617369Y-113798872D01*
X164617365Y-113798874D01*
X164490964Y-113864115D01*
X164422630Y-113899385D01*
X164244321Y-114036206D01*
X164093060Y-114202441D01*
X163973626Y-114392834D01*
X163971534Y-114398038D01*
X163971532Y-114398042D01*
X163920458Y-114525093D01*
X163889796Y-114601368D01*
X163844219Y-114821451D01*
X163843953Y-114826062D01*
X163843953Y-114826063D01*
X163841358Y-114871077D01*
X163840930Y-114878492D01*
X163840930Y-115722272D01*
X163841179Y-115725059D01*
X163841179Y-115725065D01*
X163843880Y-115755331D01*
X163855820Y-115889113D01*
X163857301Y-115894527D01*
X163857302Y-115894532D01*
X163909268Y-116084484D01*
X163907950Y-116155468D01*
X163868465Y-116214471D01*
X163803348Y-116242761D01*
X163794454Y-116243455D01*
X163790292Y-116243215D01*
X163567167Y-116270216D01*
X163352349Y-116336302D01*
X163347369Y-116338872D01*
X163347365Y-116338874D01*
X163224033Y-116402531D01*
X163152630Y-116439385D01*
X162974321Y-116576206D01*
X162823060Y-116742441D01*
X162703626Y-116932834D01*
X162676994Y-116999082D01*
X162633030Y-117054824D01*
X162565905Y-117077949D01*
X162496934Y-117061112D01*
X162446363Y-117006327D01*
X162431571Y-116975315D01*
X162378115Y-116863241D01*
X162246962Y-116680722D01*
X162085561Y-116524314D01*
X161899013Y-116398959D01*
X161693215Y-116308620D01*
X161687767Y-116307312D01*
X161687761Y-116307310D01*
X161480129Y-116257462D01*
X161480128Y-116257462D01*
X161474672Y-116256152D01*
X161390015Y-116251271D01*
X161255899Y-116243538D01*
X161255896Y-116243538D01*
X161250292Y-116243215D01*
X161027167Y-116270216D01*
X160812349Y-116336302D01*
X160807369Y-116338872D01*
X160807365Y-116338874D01*
X160684033Y-116402531D01*
X160612630Y-116439385D01*
X160434321Y-116576206D01*
X160283060Y-116742441D01*
X160163626Y-116932834D01*
X160136994Y-116999082D01*
X160093030Y-117054824D01*
X160025905Y-117077949D01*
X159956934Y-117061112D01*
X159906363Y-117006327D01*
X159891571Y-116975315D01*
X159838115Y-116863241D01*
X159706962Y-116680722D01*
X159545561Y-116524314D01*
X159359013Y-116398959D01*
X159153215Y-116308620D01*
X159147767Y-116307312D01*
X159147761Y-116307310D01*
X158940129Y-116257462D01*
X158940128Y-116257462D01*
X158934672Y-116256152D01*
X158782194Y-116247361D01*
X158715338Y-116223471D01*
X158672011Y-116167229D01*
X158665968Y-116096489D01*
X158672539Y-116074575D01*
X158688110Y-116035841D01*
X158690204Y-116030632D01*
X158735781Y-115810549D01*
X158736986Y-115789648D01*
X158738965Y-115755331D01*
X158738965Y-115755327D01*
X158739070Y-115753508D01*
X158739070Y-114909728D01*
X158735996Y-114875277D01*
X158727815Y-114783616D01*
X158724180Y-114742887D01*
X158664873Y-114526100D01*
X158656002Y-114507500D01*
X158590474Y-114370119D01*
X158568115Y-114323241D01*
X158436962Y-114140722D01*
X158275561Y-113984314D01*
X158089013Y-113858959D01*
X157883215Y-113768620D01*
X157877767Y-113767312D01*
X157877761Y-113767310D01*
X157670129Y-113717462D01*
X157670128Y-113717462D01*
X157664672Y-113716152D01*
X157580015Y-113711271D01*
X157445899Y-113703538D01*
X157445896Y-113703538D01*
X157440292Y-113703215D01*
X157217167Y-113730216D01*
X157002349Y-113796302D01*
X156997369Y-113798872D01*
X156997365Y-113798874D01*
X156870964Y-113864115D01*
X156802630Y-113899385D01*
X156624321Y-114036206D01*
X156473060Y-114202441D01*
X156353626Y-114392834D01*
X156326994Y-114459082D01*
X156283030Y-114514824D01*
X156215905Y-114537949D01*
X156146934Y-114521112D01*
X156096363Y-114466327D01*
X156063793Y-114398042D01*
X156028115Y-114323241D01*
X155896962Y-114140722D01*
X155735561Y-113984314D01*
X155549013Y-113858959D01*
X155343215Y-113768620D01*
X155337767Y-113767312D01*
X155337761Y-113767310D01*
X155130129Y-113717462D01*
X155130128Y-113717462D01*
X155124672Y-113716152D01*
X155040015Y-113711271D01*
X154905899Y-113703538D01*
X154905896Y-113703538D01*
X154900292Y-113703215D01*
X154677167Y-113730216D01*
X154462349Y-113796302D01*
X154457369Y-113798872D01*
X154457365Y-113798874D01*
X154330964Y-113864115D01*
X154262630Y-113899385D01*
X154084321Y-114036206D01*
X153933060Y-114202441D01*
X153813626Y-114392834D01*
X153811534Y-114398038D01*
X153811532Y-114398042D01*
X153760458Y-114525093D01*
X153729796Y-114601368D01*
X153684219Y-114821451D01*
X153683953Y-114826062D01*
X153683953Y-114826063D01*
X153681358Y-114871077D01*
X153680930Y-114878492D01*
X153680930Y-115722272D01*
X153681179Y-115725059D01*
X153681179Y-115725065D01*
X153683880Y-115755331D01*
X153695820Y-115889113D01*
X153697301Y-115894527D01*
X153697302Y-115894532D01*
X153749268Y-116084484D01*
X153747950Y-116155468D01*
X153708465Y-116214471D01*
X153643348Y-116242761D01*
X153634454Y-116243455D01*
X153630292Y-116243215D01*
X153407167Y-116270216D01*
X153192349Y-116336302D01*
X153187369Y-116338872D01*
X153187365Y-116338874D01*
X153064033Y-116402531D01*
X152992630Y-116439385D01*
X152814321Y-116576206D01*
X152663060Y-116742441D01*
X152543626Y-116932834D01*
X152516994Y-116999082D01*
X152473030Y-117054824D01*
X152405905Y-117077949D01*
X152336934Y-117061112D01*
X152286363Y-117006327D01*
X152271571Y-116975315D01*
X152218115Y-116863241D01*
X152086962Y-116680722D01*
X151925561Y-116524314D01*
X151739013Y-116398959D01*
X151533215Y-116308620D01*
X151527767Y-116307312D01*
X151527761Y-116307310D01*
X151320129Y-116257462D01*
X151320128Y-116257462D01*
X151314672Y-116256152D01*
X151230015Y-116251271D01*
X151095899Y-116243538D01*
X151095896Y-116243538D01*
X151090292Y-116243215D01*
X150867167Y-116270216D01*
X150652349Y-116336302D01*
X150647369Y-116338872D01*
X150647365Y-116338874D01*
X150524033Y-116402531D01*
X150452630Y-116439385D01*
X150274321Y-116576206D01*
X150123060Y-116742441D01*
X150003626Y-116932834D01*
X149976994Y-116999082D01*
X149933030Y-117054824D01*
X149865905Y-117077949D01*
X149796934Y-117061112D01*
X149746363Y-117006327D01*
X149731571Y-116975315D01*
X149678115Y-116863241D01*
X149546962Y-116680722D01*
X149497673Y-116632957D01*
X149462673Y-116571188D01*
X149466625Y-116500302D01*
X149508274Y-116442805D01*
X149531114Y-116428748D01*
X149582759Y-116404115D01*
X149765278Y-116272962D01*
X149921686Y-116111561D01*
X150047041Y-115925013D01*
X150066059Y-115881690D01*
X150135123Y-115724356D01*
X150137380Y-115719215D01*
X150138688Y-115713767D01*
X150138690Y-115713761D01*
X150188538Y-115506129D01*
X150188538Y-115506128D01*
X150189848Y-115500672D01*
X150198206Y-115355708D01*
X150202462Y-115281899D01*
X150202462Y-115281896D01*
X150202785Y-115276292D01*
X150175784Y-115053167D01*
X150109698Y-114838349D01*
X150100977Y-114821451D01*
X150009187Y-114643613D01*
X150009187Y-114643612D01*
X150006615Y-114638630D01*
X149869794Y-114460321D01*
X149703559Y-114309060D01*
X149513166Y-114189626D01*
X149446918Y-114162994D01*
X149391176Y-114119030D01*
X149368051Y-114051905D01*
X149384888Y-113982934D01*
X149439673Y-113932363D01*
X149448326Y-113928236D01*
X149582759Y-113864115D01*
X149765278Y-113732962D01*
X149921686Y-113571561D01*
X150047041Y-113385013D01*
X150137380Y-113179215D01*
X150138688Y-113173767D01*
X150138690Y-113173761D01*
X150188538Y-112966129D01*
X150188538Y-112966128D01*
X150189848Y-112960672D01*
X150198430Y-112811831D01*
X150202462Y-112741899D01*
X150202462Y-112741896D01*
X150202785Y-112736292D01*
X150175784Y-112513167D01*
X150109698Y-112298349D01*
X150076095Y-112233243D01*
X150009187Y-112103613D01*
X150009187Y-112103612D01*
X150006615Y-112098630D01*
X149869794Y-111920321D01*
X149703559Y-111769060D01*
X149513166Y-111649626D01*
X149507962Y-111647534D01*
X149507958Y-111647532D01*
X149446292Y-111622743D01*
X149390547Y-111578777D01*
X149367422Y-111511652D01*
X149384259Y-111442680D01*
X149439044Y-111392110D01*
X149577437Y-111326100D01*
X149587066Y-111320405D01*
X149760390Y-111195859D01*
X149768855Y-111188552D01*
X149917392Y-111035273D01*
X149924423Y-111026591D01*
X150043469Y-110849432D01*
X150048861Y-110839623D01*
X150134647Y-110644196D01*
X150138213Y-110633601D01*
X150168460Y-110507615D01*
X150167755Y-110493530D01*
X150158876Y-110490000D01*
X147021766Y-110490000D01*
X147007784Y-110494106D01*
X147006286Y-110503757D01*
X147006357Y-110504093D01*
X147069118Y-110708100D01*
X147073339Y-110718445D01*
X147171238Y-110908120D01*
X147177224Y-110917551D01*
X147307161Y-111086888D01*
X147314724Y-111095114D01*
X147472591Y-111238762D01*
X147481502Y-111245525D01*
X147662303Y-111358942D01*
X147672273Y-111364022D01*
X147733690Y-111388711D01*
X147789435Y-111432678D01*
X147812561Y-111499802D01*
X147795725Y-111568774D01*
X147740939Y-111619345D01*
X147597241Y-111687885D01*
X147414722Y-111819038D01*
X147258314Y-111980439D01*
X147132959Y-112166987D01*
X147130700Y-112172133D01*
X147130699Y-112172135D01*
X147115265Y-112207295D01*
X147042620Y-112372785D01*
X147041312Y-112378233D01*
X147041310Y-112378239D01*
X146999638Y-112551817D01*
X146990152Y-112591328D01*
X146989829Y-112596933D01*
X146977589Y-112809228D01*
X146977215Y-112815708D01*
X147004216Y-113038833D01*
X147070302Y-113253651D01*
X147072872Y-113258631D01*
X147072874Y-113258635D01*
X147115705Y-113341617D01*
X147173385Y-113453370D01*
X147310206Y-113631679D01*
X147476441Y-113782940D01*
X147666834Y-113902374D01*
X147733082Y-113929006D01*
X147788824Y-113972970D01*
X147811949Y-114040095D01*
X147795112Y-114109066D01*
X147740327Y-114159637D01*
X147597241Y-114227885D01*
X147414722Y-114359038D01*
X147258314Y-114520439D01*
X147132959Y-114706987D01*
X147042620Y-114912785D01*
X147041312Y-114918233D01*
X147041310Y-114918239D01*
X147008917Y-115053167D01*
X146990152Y-115131328D01*
X146989829Y-115136933D01*
X146978127Y-115339896D01*
X146977215Y-115355708D01*
X147004216Y-115578833D01*
X147070302Y-115793651D01*
X147072872Y-115798631D01*
X147072874Y-115798635D01*
X147138103Y-115925013D01*
X147173385Y-115993370D01*
X147176798Y-115997818D01*
X147303694Y-116163192D01*
X147310206Y-116171679D01*
X147476441Y-116322940D01*
X147481190Y-116325919D01*
X147659668Y-116437879D01*
X147706745Y-116491022D01*
X147717617Y-116561182D01*
X147685905Y-116629415D01*
X147583060Y-116742441D01*
X147463626Y-116932834D01*
X147461534Y-116938038D01*
X147461532Y-116938042D01*
X147401813Y-117086598D01*
X147379796Y-117141368D01*
X147334219Y-117361451D01*
X147333953Y-117366062D01*
X147333953Y-117366063D01*
X147331358Y-117411077D01*
X147330930Y-117418492D01*
X147330930Y-117542999D01*
X147310928Y-117611120D01*
X147257272Y-117657613D01*
X147186998Y-117667717D01*
X147122418Y-117638223D01*
X147115835Y-117632094D01*
X145811205Y-116327464D01*
X145777179Y-116265152D01*
X145774300Y-116238369D01*
X145774300Y-114557984D01*
X145777101Y-114535797D01*
X145776362Y-114535669D01*
X145789743Y-114458200D01*
X145791026Y-114451782D01*
X145803236Y-114398042D01*
X145808435Y-114375156D01*
X145810499Y-114342347D01*
X145812085Y-114328847D01*
X145817679Y-114296464D01*
X145819000Y-114267375D01*
X145819000Y-114211193D01*
X145819249Y-114203281D01*
X145823360Y-114137942D01*
X145823678Y-114132888D01*
X145819601Y-114091309D01*
X145819000Y-114079013D01*
X145819000Y-109964385D01*
X147011540Y-109964385D01*
X147012245Y-109978470D01*
X147021124Y-109982000D01*
X148317885Y-109982000D01*
X148333124Y-109977525D01*
X148334329Y-109976135D01*
X148336000Y-109968452D01*
X148336000Y-109963885D01*
X148844000Y-109963885D01*
X148848475Y-109979124D01*
X148849865Y-109980329D01*
X148857548Y-109982000D01*
X150158234Y-109982000D01*
X150172216Y-109977894D01*
X150173714Y-109968243D01*
X150173643Y-109967907D01*
X150110882Y-109763900D01*
X150106661Y-109753555D01*
X150008762Y-109563880D01*
X150002776Y-109554449D01*
X149872839Y-109385112D01*
X149865276Y-109376886D01*
X149707409Y-109233238D01*
X149698498Y-109226475D01*
X149517697Y-109113058D01*
X149507730Y-109107980D01*
X149309689Y-109028368D01*
X149298994Y-109025139D01*
X149089015Y-108981655D01*
X149079878Y-108980452D01*
X149029292Y-108977535D01*
X149025646Y-108977430D01*
X148862115Y-108977430D01*
X148846876Y-108981905D01*
X148845671Y-108983295D01*
X148844000Y-108990978D01*
X148844000Y-109963885D01*
X148336000Y-109963885D01*
X148336000Y-108995545D01*
X148331525Y-108980306D01*
X148330135Y-108979101D01*
X148322452Y-108977430D01*
X148186552Y-108977430D01*
X148180957Y-108977679D01*
X148022571Y-108991815D01*
X148011557Y-108993797D01*
X147805685Y-109050117D01*
X147795212Y-109054011D01*
X147602563Y-109145900D01*
X147592934Y-109151595D01*
X147419610Y-109276141D01*
X147411145Y-109283448D01*
X147262608Y-109436727D01*
X147255577Y-109445409D01*
X147136531Y-109622568D01*
X147131139Y-109632377D01*
X147045353Y-109827804D01*
X147041787Y-109838399D01*
X147011540Y-109964385D01*
X145819000Y-109964385D01*
X145819000Y-106607916D01*
X145819049Y-106604398D01*
X145821693Y-106509750D01*
X145821693Y-106509747D01*
X145821834Y-106504695D01*
X145811441Y-106426802D01*
X145810741Y-106420253D01*
X145804846Y-106346977D01*
X145804845Y-106346973D01*
X145804440Y-106341935D01*
X145796601Y-106310022D01*
X145794073Y-106296638D01*
X145790398Y-106269094D01*
X145789729Y-106264080D01*
X145770116Y-106199120D01*
X145767022Y-106188871D01*
X145765281Y-106182508D01*
X145747744Y-106111109D01*
X145746537Y-106106194D01*
X145733699Y-106075948D01*
X145729061Y-106063137D01*
X145721030Y-106036538D01*
X145719567Y-106031692D01*
X145717349Y-106027144D01*
X145717346Y-106027137D01*
X145685129Y-105961082D01*
X145682393Y-105955080D01*
X145653662Y-105887395D01*
X145651688Y-105882744D01*
X145634181Y-105854944D01*
X145627552Y-105843034D01*
X145613154Y-105813512D01*
X145608886Y-105807461D01*
X145567859Y-105749303D01*
X145564199Y-105743814D01*
X145525029Y-105681614D01*
X145525028Y-105681613D01*
X145522333Y-105677333D01*
X145518992Y-105673544D01*
X145518988Y-105673538D01*
X145500602Y-105652683D01*
X145492156Y-105641988D01*
X145489672Y-105638467D01*
X145473226Y-105615153D01*
X145453591Y-105593650D01*
X145413875Y-105553934D01*
X145408456Y-105548164D01*
X145365150Y-105499042D01*
X145365147Y-105499039D01*
X145361802Y-105495245D01*
X145329511Y-105468721D01*
X145320392Y-105460451D01*
X144498436Y-104638495D01*
X144464410Y-104576183D01*
X144469475Y-104505368D01*
X144512022Y-104448532D01*
X144578542Y-104423721D01*
X144587531Y-104423400D01*
X146759718Y-104423400D01*
X146827839Y-104443402D01*
G37*
%TD.AperFunction*%
%TD*%
M02*
